<svg width="36" height="36" viewBox="0 0 36 36" fill="none" xmlns="http://www.w3.org/2000/svg">
<path d="M10.0927 18.9554C9.42855 20.2609 10.1826 20.8849 11.903 21.951C13.3656 22.8546 15.3862 23.185 16.6841 23.3172L11.5694 28.2369C10.0808 29.6638 12.4773 31.953 13.9648 30.5565L17.9918 26.6725C19.5335 28.1557 21.0112 29.5771 22.0188 30.5619C23.5074 31.9638 25.9028 29.6941 24.4305 28.2423C24.32 28.1372 18.9734 23.0084 19.2995 23.3226C20.6136 23.1904 22.6038 22.8405 24.0491 21.9564L24.048 21.9553C25.7685 20.8838 26.5225 20.2609 25.8682 18.9554C25.4727 18.2143 24.4066 17.5946 22.9874 18.6661C22.9874 18.6661 21.0708 20.1341 17.9799 20.1341C14.8878 20.1341 12.9724 18.6661 12.9724 18.6661C11.5542 17.5892 10.4838 18.2143 10.0927 18.9554Z" fill="white"/>
<path d="M17.9778 18.1547C21.7458 18.1547 24.8227 15.21 24.8227 11.5849C24.8227 7.9447 21.7458 5 17.9778 5C14.2086 5 11.1317 7.9447 11.1317 11.5849C11.1317 15.21 14.2086 18.1547 17.9778 18.1547ZM17.9778 8.33581C19.8293 8.33581 21.3396 9.78865 21.3396 11.5849C21.3396 13.3661 19.8293 14.8189 17.9778 14.8189C16.1262 14.8189 14.6159 13.3661 14.6159 11.5849C14.6149 9.78757 16.1251 8.33581 17.9778 8.33581Z" fill="white"/>
</svg>
