<svg width="36" height="36" viewBox="0 0 36 36" fill="none" xmlns="http://www.w3.org/2000/svg">
<path d="M35.8092 26.2798C35.7656 26.1858 35.7249 26.1079 35.6872 26.0455C35.0626 24.9205 33.869 23.5398 32.1071 21.9028L32.0699 21.8653L32.0512 21.8469L32.0324 21.8281H32.0135C31.2139 21.0658 30.7075 20.5533 30.4955 20.2909C30.1075 19.791 30.0205 19.285 30.2326 18.7724C30.3824 18.385 30.9452 17.567 31.9196 16.3172C32.4321 15.6549 32.838 15.124 33.1378 14.7241C35.2997 11.8499 36.237 10.0133 35.9494 9.21344L35.8378 9.02654C35.7627 8.91401 35.5691 8.81107 35.257 8.71719C34.9443 8.62351 34.5445 8.60801 34.0571 8.67045L28.659 8.70774C28.5716 8.67675 28.4467 8.67964 28.284 8.71719L28.0403 8.77358L27.9463 8.82052L27.8717 8.87692C27.8092 8.91421 27.7405 8.97979 27.6655 9.07354C27.5908 9.16696 27.5284 9.2766 27.4785 9.40153C26.8908 10.9135 26.2226 12.3193 25.4727 13.6188C25.0103 14.3937 24.5857 15.0652 24.1979 15.6338C23.8106 16.2022 23.4857 16.621 23.2235 16.8894C22.9609 17.1581 22.7239 17.3734 22.511 17.536C22.2985 17.6987 22.1363 17.7674 22.024 17.7423C21.9114 17.7172 21.8054 17.6922 21.705 17.6673C21.5302 17.5547 21.3895 17.4017 21.2835 17.208C21.177 17.0144 21.1053 16.7706 21.0678 16.477C21.0306 16.1831 21.0085 15.9303 21.0022 15.7178C20.9964 15.5056 20.999 15.2054 21.0117 14.818C21.0247 14.4305 21.0306 14.1683 21.0306 14.0308C21.0306 13.5559 21.0398 13.0405 21.0584 12.4844C21.0773 11.9284 21.0926 11.4878 21.1054 11.1632C21.1181 10.8383 21.124 10.4945 21.124 10.1322C21.124 9.76977 21.102 9.48556 21.0584 9.27929C21.0148 9.07283 20.949 8.8717 20.8621 8.67944C20.7745 8.48577 20.6462 8.33596 20.4778 8.2296C20.3092 8.12338 20.0995 8.03909 19.85 7.97646C19.1876 7.82657 18.3442 7.7455 17.3193 7.73289C14.9952 7.70794 13.5019 7.85802 12.8396 8.18293C12.5772 8.3202 12.3397 8.50776 12.1274 8.74503C11.9024 9.02004 11.8711 9.17011 12.0335 9.1948C12.7833 9.30713 13.3142 9.57583 13.6266 10.0007L13.7392 10.2258C13.8268 10.3882 13.9142 10.6757 14.0017 11.088C14.0891 11.5003 14.1455 11.9564 14.1703 12.456C14.2327 13.3683 14.2327 14.1493 14.1703 14.799C14.1078 15.4489 14.0487 15.9549 13.9923 16.3173C13.9359 16.6797 13.8516 16.9733 13.7392 17.1982C13.6266 17.4231 13.5517 17.5606 13.5142 17.6105C13.4767 17.6604 13.4454 17.6918 13.4206 17.7042C13.2591 17.7664 13.0875 17.7983 12.9144 17.7981C12.7394 17.7981 12.527 17.7105 12.2772 17.5355C12.0274 17.3605 11.7681 17.1201 11.4994 16.8139C11.2307 16.5076 10.9277 16.0796 10.5902 15.5299C10.2529 14.9801 9.90299 14.3304 9.5406 13.5806L9.24077 13.0369C9.05334 12.6871 8.7973 12.1778 8.4724 11.5094C8.1473 10.8408 7.85994 10.194 7.61014 9.5692C7.51029 9.3068 7.36028 9.10702 7.16037 8.96955L7.06656 8.91316C7.00419 8.86326 6.90407 8.81028 6.76673 8.75382C6.62806 8.69715 6.48344 8.65632 6.33561 8.63211L1.19983 8.6694C0.675019 8.6694 0.31893 8.78829 0.131432 9.02575L0.0563938 9.13808C0.0189074 9.20064 0 9.30056 0 9.4381C0 9.57557 0.0374865 9.74429 0.112525 9.94407C0.862254 11.7061 1.67757 13.4055 2.55847 15.0424C3.43937 16.6794 4.20485 17.9979 4.85446 18.997C5.50421 19.9968 6.16649 20.9404 6.84131 21.8273C7.51613 22.7146 7.96282 23.2832 8.18137 23.533C8.40018 23.7833 8.57206 23.9704 8.69699 24.0953L9.16567 24.5451C9.46556 24.845 9.90594 25.2043 10.487 25.6228C11.0682 26.0416 11.7117 26.4539 12.4177 26.8603C13.1238 27.2661 13.9453 27.5972 14.8826 27.8533C15.8197 28.1097 16.7319 28.2126 17.6192 28.1629H19.7747C20.2119 28.1252 20.5431 27.9877 20.7682 27.7505L20.8428 27.6565C20.893 27.5819 20.9399 27.4661 20.9832 27.3101C21.0271 27.154 21.0489 26.9819 21.0489 26.7947C21.0361 26.2575 21.077 25.7733 21.1705 25.3423C21.2639 24.9113 21.3704 24.5864 21.4895 24.3676C21.6085 24.149 21.7428 23.9645 21.8923 23.815C22.0421 23.6651 22.1489 23.5743 22.2115 23.5431C22.2737 23.5116 22.3234 23.4903 22.3609 23.4775C22.6608 23.3775 23.0137 23.4743 23.4202 23.7682C23.8264 24.0619 24.2074 24.4245 24.5637 24.8554C24.9199 25.2867 25.3478 25.7706 25.8475 26.3079C26.3476 26.8453 26.7848 27.2448 27.1596 27.5076L27.5343 27.7325C27.7846 27.8826 28.1095 28.02 28.5094 28.145C28.9086 28.2698 29.2584 28.3011 29.5588 28.2386L34.357 28.1638C34.8316 28.1638 35.2008 28.0852 35.4628 27.9293C35.7253 27.7731 35.8812 27.601 35.9315 27.4139C35.9816 27.2265 35.9843 27.0139 35.941 26.7763C35.8965 26.5392 35.8527 26.3734 35.8092 26.2798Z" fill="white"/>
</svg>
