<svg aria-hidden="true" style="position: absolute; width: 0; height: 0; overflow: hidden;" version="1.1"
     xmlns="http://www.w3.org/2000/svg">
    <defs>
        <symbol id="imit" viewBox="0 0 24 24">
            <path
                d="M15 8.13001C14.2053 7.59425 13.2684 7.30866 12.31 7.31001C11.6639 7.30639 11.024 7.43573 10.43 7.69001C9.55796 8.05656 8.81367 8.6726 8.2906 9.46076C7.76753 10.2489 7.489 11.1741 7.48999 12.12C7.48953 12.7668 7.62229 13.4068 7.87999 14C8.2472 14.8736 8.86478 15.619 9.65491 16.1422C10.445 16.6654 11.3724 16.943 12.32 16.94C12.9629 16.9437 13.5995 16.8143 14.19 16.56C15.0524 16.2011 15.7898 15.5958 16.31 14.82C16.8471 14.0222 17.1327 13.0817 17.13 12.12C17.1365 11.3297 16.9461 10.5502 16.576 9.85185C16.2058 9.15351 15.6677 8.55833 15.01 8.12001L15 8.13001ZM15.49 13.47C15.2316 14.0882 14.8012 14.6192 14.25 15C13.9682 15.185 13.6619 15.3297 13.34 15.43C12.5696 15.668 11.7393 15.6219 11 15.3C10.3842 15.0373 9.85668 14.6035 9.47999 14.05C9.29514 13.7717 9.15038 13.4687 9.04999 13.15C8.94804 12.8263 8.89413 12.4894 8.88999 12.15C8.89009 11.6888 8.98542 11.2326 9.16999 10.81C9.42975 10.1924 9.86419 9.66414 10.42 9.29001C10.6983 9.10515 11.0013 8.9604 11.32 8.86001C12.0283 8.63633 12.79 8.64793 13.4912 8.89307C14.1923 9.13821 14.7953 9.60373 15.21 10.22C15.3989 10.4997 15.5439 10.8065 15.64 11.13C15.7429 11.4535 15.7969 11.7906 15.8 12.13C15.7876 12.5919 15.6858 13.047 15.5 13.47H15.49Z"
                fill="currentColor"/>
            <path
                d="M21.0699 12.13C21.0705 11.7522 21.0472 11.3748 20.9999 11L23.7199 8.71L23.5499 8.26C23.0651 7.00559 22.3607 5.84752 21.4699 4.84L21.1699 4.5L17.7399 5.6C17.0786 5.09947 16.3475 4.69854 15.5699 4.41L14.8399 1L14.3799 0.92C13.6956 0.80796 13.0034 0.751111 12.3099 0.75C11.616 0.750338 10.9235 0.810561 10.2399 0.93L9.78992 1.01L9.06992 4.38C8.29916 4.67659 7.57246 5.07695 6.90992 5.57L3.46992 4.48L3.17992 4.81C2.28578 5.81506 1.58107 6.97376 1.09992 8.23L0.919922 8.69L3.64993 11C3.59013 11.3838 3.56004 11.7716 3.55993 12.16C3.56008 12.5451 3.59017 12.9296 3.64993 13.31L0.919922 15.6L1.09992 16.06C1.58574 17.3139 2.28997 18.4718 3.17992 19.48L3.46992 19.81L6.90992 18.72C7.57044 19.2136 8.2977 19.6109 9.06992 19.9L9.78992 23.28L10.2399 23.36C10.9247 23.4696 11.6165 23.5297 12.3099 23.54C13 23.5301 13.6885 23.47 14.3699 23.36L14.8299 23.28L15.5499 19.91C16.3207 19.6134 17.0474 19.2131 17.7099 18.72L21.1499 19.81L21.4399 19.48C22.3395 18.4546 23.0475 17.2759 23.5299 16L23.6999 15.54L20.9999 13.29C21.053 12.9057 21.0764 12.5179 21.0699 12.13ZM20.7099 18.21L17.4399 17.21L17.1499 17.44C16.4422 18.0222 15.6315 18.4666 14.7599 18.75L14.3899 18.88L13.6999 22.09C12.7805 22.21 11.8494 22.21 10.9299 22.09L10.2399 18.87L9.86993 18.75C9.00012 18.4626 8.19015 18.0186 7.47992 17.44L7.18992 17.2L3.91992 18.25C3.36617 17.5655 2.9086 16.8085 2.55993 16L5.13992 13.84L5.05993 13.44C4.88672 12.5854 4.88672 11.7046 5.05993 10.85L5.13992 10.45L2.55993 8.29C2.90288 7.46629 3.36075 6.6953 3.91992 6L7.18992 7L7.47992 6.77C8.18769 6.18776 8.99837 5.74341 9.86993 5.46L10.2399 5.33L10.9299 2.12C11.3908 2.05984 11.8551 2.02978 12.3199 2.03C12.781 2.03173 13.2417 2.05844 13.6999 2.11L14.3799 5.33L14.7599 5.45C15.6341 5.73916 16.4476 6.1866 17.1599 6.77L17.4399 7L20.7199 6C21.2681 6.67757 21.7253 7.4239 22.0799 8.22L19.4999 10.42L19.5799 10.82C19.6628 11.2485 19.7063 11.6836 19.7099 12.12C19.7084 12.557 19.6615 12.9927 19.5699 13.42L19.4899 13.82L22.0699 16C21.7145 16.7926 21.2573 17.5355 20.7099 18.21Z"
                fill="currentColor"/>
        </symbol>

        <symbol viewBox="0 0 31 28" id="mi">
            <path
                d="M29.7501 18.56L29.0001 17.67L28.0001 16.39L26.4201 14.47L25.4201 13.19L21.9101 9.00003C21.7709 8.83467 21.599 8.69984 21.4052 8.604C21.2115 8.50815 21 8.45335 20.7841 8.44302C20.5682 8.43269 20.3525 8.46707 20.1504 8.54399C19.9484 8.62091 19.7645 8.73871 19.6101 8.89003L19.3501 9.15003V4.90003H19.9301C19.9831 4.90003 20.034 4.87896 20.0715 4.84145C20.109 4.80394 20.1301 4.75308 20.1301 4.70003V0.600031C20.1301 0.546988 20.109 0.496116 20.0715 0.458609C20.034 0.421102 19.9831 0.40003 19.9301 0.40003H17.5801C17.553 0.398674 17.5259 0.402843 17.5005 0.412285C17.4751 0.421727 17.4518 0.436244 17.4322 0.454953C17.4125 0.473661 17.3969 0.49617 17.3862 0.521111C17.3755 0.546052 17.3701 0.572904 17.3701 0.600031V4.70003C17.3701 4.72716 17.3755 4.75401 17.3862 4.77895C17.3969 4.80389 17.4125 4.8264 17.4322 4.84511C17.4518 4.86382 17.4751 4.87833 17.5005 4.88778C17.5259 4.89722 17.553 4.90139 17.5801 4.90003H18.1601V10.34L11.1601 17.34C11.0074 17.4937 10.8884 17.6774 10.8106 17.8796C10.7328 18.0818 10.698 18.2979 10.7083 18.5143C10.7187 18.7306 10.774 18.9425 10.8707 19.1363C10.9674 19.3301 11.1034 19.5017 11.2701 19.64L15.4601 23.07L16.7401 24.07L18.6601 25.65L19.9401 26.7L20.8301 27.43C21.112 27.6605 21.466 27.7844 21.8301 27.78C22.035 27.7815 22.238 27.7414 22.4271 27.6624C22.6161 27.5833 22.7872 27.4669 22.9301 27.32L29.6801 20.57C29.9288 20.298 30.0725 19.9463 30.0854 19.5779C30.0982 19.2096 29.9793 18.8487 29.7501 18.56ZM28.7501 19.7L22.0001 26.46C21.9564 26.4998 21.8992 26.5213 21.8401 26.52C21.8146 26.5215 21.7891 26.5179 21.765 26.5093C21.7409 26.5007 21.7189 26.4873 21.7001 26.47L20.8101 25.74L19.5301 24.69L17.6101 23.11L16.3301 22.11L12.1401 18.67C12.096 18.6273 12.0678 18.5709 12.0601 18.51C12.0588 18.4783 12.0644 18.4467 12.0765 18.4174C12.0886 18.388 12.1069 18.3616 12.1301 18.34L18.2101 12.26V15.45C18.1062 15.5088 18.0118 15.583 17.9301 15.67C17.8043 15.7921 17.7043 15.9383 17.636 16.0997C17.5677 16.2612 17.5325 16.4347 17.5325 16.61C17.5325 16.7853 17.5677 16.9589 17.636 17.1203C17.7043 17.2818 17.8043 17.4279 17.9301 17.55C18.1819 17.7867 18.516 17.9161 18.8616 17.9107C19.2071 17.9054 19.537 17.7657 19.7814 17.5213C20.0258 17.277 20.1654 16.9471 20.1708 16.6015C20.1761 16.2559 20.0468 15.9219 19.8101 15.67C19.6939 15.5472 19.5546 15.4487 19.4001 15.38V11L20.6001 9.80003C20.6197 9.77702 20.6443 9.75877 20.6721 9.74664C20.6998 9.73452 20.7299 9.72884 20.7601 9.73003C20.7926 9.72999 20.8247 9.73714 20.8541 9.75097C20.8835 9.7648 20.9094 9.78497 20.9301 9.81003L24.3201 14L25.3201 15.28L26.9001 17.2L27.9001 18.48L28.6301 19.37C28.6593 19.3842 28.685 19.4046 28.7054 19.4299C28.7258 19.4552 28.7403 19.4846 28.7479 19.5162C28.7556 19.5477 28.7561 19.5805 28.7496 19.6123C28.7431 19.6441 28.7296 19.6741 28.7101 19.7H28.7501Z"
                fill="currentColor"/>
            <path
                d="M11.2401 16.54C11.5201 16.28 11.7601 16.08 11.9701 15.88C12.0827 15.7822 12.1834 15.6714 12.2701 15.55C12.3234 15.4758 12.3671 15.3952 12.4001 15.31C12.4463 15.2026 12.4701 15.0869 12.4701 14.97C12.4701 14.97 12.4701 14.91 12.4701 14.89C12.4584 14.7886 12.4279 14.6902 12.3801 14.6C12.3114 14.4827 12.2195 14.3806 12.1101 14.3C11.9649 14.1883 11.8029 14.1006 11.6301 14.04C11.3284 13.9329 11.0169 13.8558 10.7001 13.81C8.95193 13.5518 7.16688 13.8528 5.60008 14.67C4.69998 15.1737 3.91087 15.8539 3.28008 16.67C2.84794 17.2262 2.46958 17.8222 2.15008 18.45C1.71549 19.2917 1.37992 20.181 1.15008 21.1C0.914796 21.9709 0.790475 22.868 0.78008 23.77C0.764606 24.3447 0.838833 24.9182 1.00008 25.47C1.08467 25.7342 1.20946 25.9838 1.37008 26.21C1.53554 26.4369 1.74253 26.6303 1.98008 26.78C2.20375 26.9132 2.45975 26.9824 2.72008 26.98C2.94852 26.9799 3.17404 26.9286 3.38008 26.83C3.63844 26.7089 3.87765 26.5505 4.09008 26.36C4.29008 26.2 4.46008 26.04 4.61008 25.91C4.74462 25.915 4.87698 25.9455 5.00008 26C5.23008 26 5.52008 26.14 5.82008 26.22C6.14503 26.3153 6.48147 26.3657 6.82008 26.37C6.98215 26.3735 7.14387 26.3533 7.30008 26.31C7.43207 26.2745 7.55714 26.217 7.67008 26.14C7.85567 26.0206 8.00724 25.8553 8.11008 25.66C8.21383 25.4636 8.28156 25.2503 8.31008 25.03C8.50008 23.73 8.63008 22.51 8.80008 21.47C8.89635 20.6131 9.11526 19.7746 9.45008 18.98C9.8912 18.0633 10.4981 17.236 11.2401 16.54ZM9.48008 16.48C9.00347 17.0564 8.59727 17.6875 8.27008 18.36C7.87536 19.2707 7.61595 20.2342 7.50008 21.22C7.33008 22.31 7.20008 23.53 7.01008 24.8C7.01649 24.8668 7.01312 24.9342 7.00008 25C6.96085 25.0111 6.91931 25.0111 6.88008 25C6.75365 25.011 6.62651 25.011 6.50008 25C6.26008 24.95 5.98008 24.86 5.69008 24.78L5.23008 24.67C5.06867 24.638 4.90462 24.6213 4.74008 24.62C4.59441 24.6159 4.44908 24.6362 4.31008 24.68C4.14629 24.726 3.99331 24.8042 3.86008 24.91C3.60008 25.13 3.36008 25.36 3.16008 25.51C3.08745 25.5736 3.00676 25.6274 2.92008 25.67C2.88059 25.679 2.83957 25.679 2.80008 25.67H2.74008C2.66074 25.6139 2.58999 25.5465 2.53008 25.47C2.39498 25.2665 2.29995 25.0391 2.25008 24.8C2.18228 24.4474 2.14879 24.0891 2.15008 23.73C2.16114 22.9399 2.2686 22.1541 2.47008 21.39C2.66184 20.565 2.94352 19.7635 3.31008 19C3.59491 18.4505 3.92965 17.9283 4.31008 17.44C4.83484 16.7792 5.48796 16.2316 6.23008 15.83C7.23611 15.2909 8.35871 15.0059 9.50008 15C9.93342 14.9986 10.3657 15.0421 10.7901 15.13L10.6101 15.3C10.2029 15.663 9.8251 16.0575 9.48008 16.48Z"
                fill="currentColor"/>
        </symbol>

        <symbol viewBox="0 0 25 25" id="isnep">
            <path
                d="M23.7999 12.13H23.3199C23.3223 14.7054 22.4314 17.202 20.7992 19.1941C19.167 21.1862 16.8944 22.5507 14.3688 23.0549C11.8432 23.5591 9.22094 23.1718 6.94893 21.959C4.67691 20.7463 2.89578 18.7832 1.9091 16.4043C0.922426 14.0254 0.791282 11.3779 1.53802 8.91311C2.28475 6.44833 3.86315 4.31879 6.00419 2.88745C8.14523 1.45611 10.7164 0.811574 13.2794 1.06369C15.8425 1.3158 18.2388 2.44896 20.0599 4.27003C21.0931 5.30168 21.9128 6.52687 22.4722 7.87555C23.0316 9.22423 23.3196 10.6699 23.3199 12.13H24.3199C24.3217 9.33254 23.3533 6.62099 21.5798 4.45753C19.8063 2.29406 17.3374 0.812577 14.5939 0.265566C11.8504 -0.281446 9.00217 0.139871 6.53453 1.45771C4.0669 2.77556 2.13263 4.90836 1.0614 7.49262C-0.00982541 10.0769 -0.151718 12.9527 0.659909 15.6298C1.47154 18.307 3.18645 20.6198 5.51237 22.1742C7.83829 23.7286 10.6313 24.4282 13.4153 24.1539C16.1993 23.8796 18.802 22.6484 20.7799 20.67C21.9053 19.5513 22.7976 18.2205 23.4053 16.7546C24.0129 15.2887 24.3238 13.7169 24.3199 12.13H23.7999Z"
                fill="currentColor"/>
            <path
                d="M20.5301 4.12001C20.0216 4.69637 19.4115 5.17431 18.7301 5.53001C18.3125 5.74892 17.8513 5.87191 17.3801 5.89001H17.2501C17.0486 5.89021 16.8476 5.87012 16.6501 5.83002C16.3501 5.78002 16.0201 5.70001 15.6501 5.62001C15.1615 5.53387 14.6663 5.49037 14.1701 5.49002H13.5301C12.8993 5.5084 12.2766 5.637 11.6901 5.87001C11.5159 5.94086 11.3539 6.03873 11.2101 6.16001C11.1132 6.23639 11.0288 6.32749 10.9601 6.43001C10.8815 6.52873 10.8144 6.63609 10.7601 6.75001C10.7062 6.86518 10.6427 6.97558 10.5701 7.08002C10.5274 7.14773 10.4644 7.20022 10.3901 7.23001C10.2866 7.27646 10.1733 7.29705 10.0601 7.29001H9.94012C9.86032 7.28199 9.77991 7.28199 9.70011 7.29001C9.62709 7.30874 9.55891 7.34284 9.50011 7.39001C9.41124 7.44598 9.34419 7.53067 9.31011 7.63001C9.29583 7.69929 9.29583 7.77074 9.31011 7.84001C9.30999 7.93012 9.33052 8.01906 9.37012 8.10001C9.39298 8.1509 9.42331 8.19809 9.46011 8.24002C9.51236 8.30437 9.57288 8.36153 9.64011 8.41001C9.74239 8.49882 9.8492 8.58226 9.96011 8.66001C10.107 8.76455 10.2473 8.87811 10.3801 9.00001C10.4231 9.03082 10.4576 9.07213 10.4801 9.12001H10.5801H10.4701H10.5701L10.4401 9.05001V9.11001H10.5901L10.4601 9.04001L10.3601 9.11001L10.1901 9.20001C10.0733 9.25872 9.96276 9.32907 9.86012 9.41001C9.78792 9.4646 9.72682 9.53248 9.68011 9.61001C9.61559 9.71543 9.58102 9.83643 9.58012 9.96001C9.56498 10.0393 9.56498 10.1207 9.58012 10.2C9.6251 10.3129 9.69323 10.4151 9.78011 10.5C9.91051 10.6194 10.059 10.7172 10.2201 10.79C10.4325 10.8948 10.6533 10.9818 10.8801 11.05L11.1301 11.12H11.2701C11.6301 11.2082 11.9995 11.2518 12.3701 11.25H12.9601H13.1501L13.3001 11.32C13.46 11.4316 13.5876 11.5834 13.6701 11.76C13.7667 11.9773 13.8178 12.2122 13.8201 12.45C13.8246 12.6137 13.7975 12.7767 13.7401 12.93C13.6474 13.1892 13.4847 13.4177 13.2701 13.59C13.0816 13.7483 12.8534 13.8521 12.6101 13.89H12.5101C12.4178 13.8899 12.3263 13.8729 12.2401 13.84C12.1101 13.84 11.9501 13.69 11.7201 13.57C11.5946 13.509 11.4642 13.4588 11.3301 13.42C11.1671 13.3757 10.9991 13.3521 10.8301 13.35H10.7301C10.2735 13.3727 9.8329 13.5254 9.46011 13.79C9.0691 14.0547 8.75788 14.4212 8.56011 14.85C8.43498 15.1441 8.37036 15.4604 8.37012 15.78C8.38004 16.1982 8.47532 16.61 8.65012 16.99C8.81124 17.3408 9.03488 17.6593 9.31011 17.93C9.5112 18.1276 9.749 18.2838 10.0101 18.39C10.167 18.4523 10.3272 18.5057 10.4901 18.55C10.6889 18.5859 10.8834 18.6429 11.0701 18.72C11.2836 18.8027 11.4777 18.9287 11.6401 19.09L11.8301 19.27C11.9517 19.4016 12.059 19.5458 12.1501 19.7C12.2518 19.875 12.3164 20.069 12.3401 20.27C12.3451 20.3165 12.3451 20.3635 12.3401 20.41C12.3337 20.613 12.2896 20.8131 12.2101 21C12.2101 21.1 12.1201 21.2 12.0801 21.32C12.0295 21.4509 12.0024 21.5897 12.0001 21.73C12.0009 21.8955 12.0457 22.0577 12.1301 22.2C12.1959 22.328 12.292 22.4378 12.4101 22.52C12.5708 22.6421 12.7545 22.7306 12.9501 22.78C13.143 22.8285 13.3413 22.8521 13.5401 22.85C13.9236 22.8555 14.3032 22.7734 14.6501 22.61C14.8701 22.5051 15.0725 22.3668 15.2501 22.2C15.4847 21.9681 15.6775 21.6975 15.8201 21.4C15.949 21.1437 16.0626 20.8799 16.1601 20.61C16.2559 20.3775 16.3296 20.1364 16.3801 19.89C16.3801 19.74 16.3801 19.6 16.4501 19.48C16.4654 19.315 16.4921 19.1513 16.5301 18.99C16.5774 18.7905 16.6444 18.5962 16.7301 18.41C16.7964 18.2562 16.8767 18.109 16.9701 17.97C17.0615 17.84 17.1618 17.7163 17.2701 17.6C17.3392 17.5184 17.3964 17.4275 17.4401 17.33C17.4932 17.2156 17.5302 17.0945 17.5501 16.97C17.56 16.9104 17.56 16.8496 17.5501 16.79C17.5514 16.6609 17.5311 16.5325 17.4901 16.41C17.4326 16.2128 17.3555 16.0219 17.2601 15.84C17.1201 15.56 16.9601 15.28 16.8401 15.02C16.7368 14.8142 16.6756 14.5898 16.6601 14.36C16.6539 14.3102 16.6539 14.2598 16.6601 14.21L16.2501 14.09L16.6301 14.28V14.21L16.2201 14.09L16.6001 14.28L16.3001 14.13L16.5801 14.31L16.2801 14.16L16.5601 14.34L17.0001 13.7C17.2901 13.26 17.4501 13.02 17.5401 12.9V12.84L17.4401 12.75L17.5201 12.86L17.4201 12.77L17.4901 12.88L17.4101 12.77L17.4801 12.88C17.4801 12.88 17.4801 12.88 17.5901 12.88L18.0601 13.09C18.3211 13.2102 18.5922 13.3072 18.8701 13.38L19.3801 13.49C19.6348 13.5314 19.8921 13.5548 20.1501 13.56C20.6072 13.5614 21.0598 13.4695 21.4801 13.29C21.5862 13.2449 21.6869 13.1879 21.7801 13.12C21.9401 13.02 22.1301 12.89 22.3601 12.72L23.2201 12.07C23.4501 11.89 23.6301 11.74 23.7601 11.65C23.8568 11.5699 23.9189 11.4556 23.9338 11.331C23.9487 11.2063 23.9152 11.0807 23.8401 10.98C23.7614 10.8812 23.647 10.8174 23.5215 10.8024C23.3961 10.7874 23.2699 10.8225 23.1701 10.9L22.6401 11.31C22.1801 11.66 21.8401 11.92 21.5801 12.1C21.4821 12.1805 21.3785 12.2541 21.2701 12.32L21.1001 12.42C20.7829 12.5489 20.4423 12.6103 20.1001 12.6C19.8971 12.6165 19.6931 12.6165 19.4901 12.6C19.0504 12.5207 18.6232 12.3828 18.2201 12.19C18.1027 12.134 17.9826 12.0839 17.8601 12.04C17.724 11.9822 17.578 11.9516 17.4301 11.95C17.2736 11.951 17.1194 11.9886 16.9801 12.06C16.8994 12.0983 16.8252 12.1489 16.7601 12.21C16.6646 12.3163 16.5777 12.43 16.5001 12.55L16.0401 13.23L15.6101 13.85L15.5501 13.94V14.02C15.53 14.1559 15.53 14.2941 15.5501 14.43C15.5554 14.7115 15.6131 14.9896 15.7201 15.25C15.8639 15.5926 16.0275 15.9265 16.2101 16.25C16.2801 16.4 16.3501 16.53 16.3901 16.64C16.4017 16.7095 16.4017 16.7805 16.3901 16.85C16.3948 16.8999 16.3948 16.9501 16.3901 17L16.3101 17.09C16.2134 17.1979 16.1233 17.3114 16.0401 17.43C15.8996 17.6276 15.779 17.8386 15.6801 18.06C15.5757 18.2784 15.492 18.506 15.4301 18.74C15.4301 18.9 15.3701 19.03 15.3501 19.16C15.3301 19.29 15.3501 19.51 15.2701 19.68C15.2235 19.8947 15.16 20.1054 15.0801 20.31C14.9735 20.626 14.8362 20.9308 14.6701 21.22C14.5933 21.3432 14.5027 21.4573 14.4001 21.56C14.3022 21.6599 14.187 21.7412 14.0601 21.8C13.8396 21.8977 13.6013 21.9488 13.3601 21.95C13.2106 21.9512 13.0619 21.9276 12.9201 21.88L13.0001 21.85C12.9953 21.8169 12.9953 21.7832 13.0001 21.75C13.0001 21.65 13.1101 21.49 13.1801 21.29C13.2648 21.0455 13.3087 20.7888 13.3101 20.53C13.3151 20.4468 13.3151 20.3633 13.3101 20.28C13.2568 19.8577 13.0987 19.4555 12.8501 19.11C12.7569 18.9782 12.6567 18.8513 12.5501 18.73L12.3201 18.5C12.094 18.2853 11.8338 18.1096 11.5501 17.98C11.3851 17.9041 11.2146 17.8406 11.0401 17.79C10.8408 17.7469 10.6439 17.6935 10.4501 17.63C10.2761 17.5708 10.1185 17.4715 9.99011 17.34C9.60011 16.9516 9.37148 16.43 9.35011 15.88C9.346 15.6908 9.38355 15.5031 9.46011 15.33C9.57963 15.0665 9.77006 14.8415 10.0101 14.68C10.2427 14.5159 10.5161 14.419 10.8001 14.4C10.9088 14.3992 11.0169 14.4161 11.1201 14.45C11.2601 14.45 11.4101 14.6 11.6301 14.71C11.7482 14.7748 11.8721 14.8283 12.0001 14.87C12.156 14.9158 12.3176 14.9393 12.4801 14.94H12.6801C13.1115 14.8946 13.5192 14.7204 13.8501 14.44C14.1987 14.1574 14.4618 13.7835 14.6101 13.36C14.7001 13.1028 14.7474 12.8325 14.7501 12.56C14.7472 12.1785 14.6583 11.8025 14.4901 11.46C14.3378 11.1241 14.0955 10.8368 13.7901 10.63C13.6546 10.5435 13.506 10.4794 13.3501 10.44C13.2107 10.4216 13.0695 10.4216 12.9301 10.44H12.3401C12.0467 10.4396 11.7544 10.4027 11.4701 10.33L11.2201 10.26C11.0068 10.2027 10.7992 10.1257 10.6001 10.03C10.535 10.0024 10.4744 9.96532 10.4201 9.92001L10.3201 10.01L10.4401 9.96001L10.3401 10.05L10.4601 10L10.2301 10.1H10.4801C10.4869 10.067 10.4869 10.033 10.4801 10L10.2501 10.1L10.4801 10.25C10.4977 10.2016 10.4977 10.1485 10.4801 10.1H10.2101L10.4401 10.25L10.3301 10L10.4501 10.12C10.4862 10.0905 10.5267 10.0668 10.5701 10.05C10.7078 9.97752 10.8414 9.8974 10.9701 9.81001C11.0597 9.74792 11.1405 9.67391 11.2101 9.59001C11.288 9.47619 11.3392 9.34632 11.3601 9.21001C11.3601 9.21001 11.3601 9.14001 11.3601 9.10001C11.3518 8.96046 11.3143 8.82419 11.2501 8.70001C11.1565 8.52216 11.0271 8.36556 10.8701 8.24002C10.6871 8.07722 10.4933 7.92688 10.2901 7.79001L10.1301 7.66001L9.98012 7.79001L10.1601 7.70001L10.0101 7.83002L10.1901 7.74002L9.86012 7.90001H10.2201C10.2297 7.84711 10.2297 7.79292 10.2201 7.74002L9.89011 7.90001L10.2601 8.05001C10.2696 8.00046 10.2696 7.94957 10.2601 7.90001H9.86012L10.2301 8.05001L9.85011 7.90001L10.0901 8.23001C10.155 8.18677 10.2042 8.1236 10.2301 8.05001L9.85011 7.90001L10.0901 8.23001L9.87012 7.93001L9.99011 8.28001C10.023 8.28735 10.0572 8.28735 10.0901 8.28001L9.87012 7.98001L9.99011 8.33002L9.92011 8.12001V8.34001L9.85011 8.13001V8.35001H10.0001C10.255 8.35752 10.5082 8.30619 10.7401 8.20001C10.8929 8.13283 11.0319 8.03789 11.1501 7.92001C11.2773 7.77468 11.3849 7.61331 11.4701 7.44001L11.6601 7.10001C11.6909 7.06419 11.7243 7.03076 11.7601 7.00001C11.9076 6.89111 12.0736 6.8098 12.2501 6.76001C12.667 6.63968 13.0966 6.56919 13.5301 6.55001H14.1101C14.6682 6.55128 15.2247 6.61162 15.7701 6.73001L16.4601 6.87001C16.711 6.91454 16.9653 6.93796 17.2201 6.94001H17.3901C17.9936 6.90813 18.5834 6.74791 19.1201 6.47001C19.9056 6.06428 20.6104 5.51868 21.2001 4.86001C21.2449 4.81542 21.2804 4.76243 21.3046 4.70409C21.3288 4.64574 21.3413 4.58319 21.3413 4.52001C21.3413 4.45684 21.3288 4.39429 21.3046 4.33594C21.2804 4.2776 21.2449 4.22461 21.2001 4.18001C21.1564 4.13557 21.1042 4.10027 21.0467 4.07618C20.9892 4.05208 20.9275 4.03967 20.8651 4.03967C20.8028 4.03967 20.741 4.05208 20.6835 4.07618C20.626 4.10027 20.5739 4.13557 20.5301 4.18001V4.12001Z"
                fill="currentColor"/>
            <path
                d="M4.17 3.65997C4.42504 4.02231 4.65236 4.40339 4.85 4.79997C4.89666 4.89948 4.9335 5.00331 4.96 5.10997C4.96 5.17997 4.96 5.22997 4.96 5.26997C4.96 5.30997 4.96 5.34997 4.96 5.40997C4.91352 5.57167 4.83906 5.72398 4.74 5.85997C4.49096 6.18117 4.17761 6.44683 3.82 6.63997C3.6963 6.70503 3.56541 6.75537 3.43 6.78997C3.27 6.78997 3.13 6.78997 2.93 6.85997C2.81367 6.88211 2.69979 6.9156 2.59 6.95997C2.46148 7.01251 2.34306 7.08695 2.24 7.17997C2.02672 7.37409 1.87103 7.6232 1.79 7.89998C1.71293 8.16635 1.67586 8.4427 1.68 8.71997C1.68665 9.05544 1.72009 9.38984 1.78 9.71997C1.84 10.07 1.91 10.43 1.99 10.77C2.09751 11.3775 2.25129 11.9759 2.45 12.56C2.5349 12.8029 2.64908 13.0346 2.79 13.25C2.93015 13.4736 3.10578 13.6728 3.31 13.84C3.54603 14.0487 3.81678 14.2146 4.11 14.33C4.28353 14.3988 4.46042 14.4589 4.64 14.51C4.82236 14.5471 5.00009 14.6041 5.17 14.68C5.22209 14.705 5.26946 14.7388 5.31 14.78C5.35884 14.8198 5.3967 14.8714 5.42 14.93C5.49957 15.0774 5.54084 15.2424 5.54 15.41C5.53855 15.5601 5.5115 15.7089 5.46 15.85C5.4211 15.9753 5.35638 16.0911 5.27 16.19C5.22384 16.2455 5.16573 16.29 5.1 16.32L4.94 16.38L4.55 16.46C4.36099 16.5093 4.18176 16.5905 4.02 16.7C3.88153 16.7967 3.76275 16.9188 3.67 17.06C3.5447 17.2627 3.45665 17.4862 3.41 17.72C3.36098 17.9568 3.33751 18.1982 3.34 18.44C3.3638 19.1133 3.45085 19.7829 3.6 20.44C3.60734 20.5058 3.62821 20.5693 3.66129 20.6266C3.69437 20.684 3.73895 20.7338 3.79223 20.7731C3.84551 20.8124 3.90633 20.8402 3.97088 20.8548C4.03543 20.8695 4.10231 20.8706 4.16731 20.8582C4.23232 20.8457 4.29405 20.82 4.34862 20.7825C4.40319 20.7451 4.44944 20.6967 4.48444 20.6405C4.51944 20.5844 4.54244 20.5216 4.552 20.4561C4.56156 20.3906 4.55748 20.3238 4.54 20.26C4.39946 19.649 4.31577 19.0264 4.29 18.4C4.2863 18.1773 4.31322 17.9553 4.37 17.74C4.3929 17.6717 4.42667 17.6075 4.47 17.55C4.49869 17.5033 4.53603 17.4626 4.58 17.43C4.62908 17.3895 4.68753 17.362 4.75 17.35H4.96C5.12517 17.3287 5.28666 17.2849 5.44 17.22C5.64759 17.1286 5.8321 16.9919 5.98 16.82C6.14677 16.6311 6.27273 16.4098 6.35 16.17C6.43844 15.9299 6.48249 15.6758 6.48 15.42C6.48144 15.0925 6.40246 14.7698 6.25 14.48C6.07181 14.1517 5.78039 13.8994 5.43 13.77C5.14 13.66 4.88 13.61 4.64 13.52C4.37451 13.4438 4.1288 13.3108 3.92 13.13C3.78807 13.0174 3.6735 12.886 3.58 12.74C3.42201 12.4814 3.30084 12.202 3.22 11.91C3.12 11.56 3.02 11.12 2.91 10.58C2.84 10.24 2.76 9.88998 2.71 9.57998C2.65331 9.28999 2.62318 8.99543 2.62 8.69997C2.61225 8.52058 2.63594 8.34121 2.69 8.16997C2.71908 8.05667 2.77775 7.95314 2.86 7.86997L2.97 7.79997H3.12C3.23 7.79997 3.39 7.79997 3.58 7.72997C3.81023 7.67667 4.03223 7.59258 4.24 7.47997C4.51369 7.35474 4.76931 7.19329 5 6.99997C5.19556 6.83525 5.37019 6.64718 5.52 6.43997C5.69433 6.20738 5.82015 5.94213 5.89 5.65997C5.90737 5.53725 5.90737 5.4127 5.89 5.28997C5.90337 5.15698 5.90337 5.02297 5.89 4.88997C5.81675 4.63649 5.71616 4.39171 5.59 4.15997C5.39775 3.81578 5.18745 3.48199 4.96 3.15997C4.92719 3.10611 4.88408 3.05924 4.83315 3.02205C4.78221 2.98485 4.72445 2.95806 4.66316 2.9432C4.60186 2.92834 4.53824 2.92571 4.47593 2.93545C4.41362 2.94519 4.35383 2.96712 4.3 2.99997C4.24753 3.03426 4.20245 3.0787 4.16741 3.13067C4.13237 3.18264 4.10807 3.24109 4.09596 3.30259C4.08385 3.36409 4.08416 3.42738 4.09687 3.48876C4.10959 3.55014 4.13445 3.60835 4.17 3.65997Z"
                fill="currentColor"/>
            <path
                d="M7.86999 3.00002L7.49999 2.69002L7.30999 2.93002C7.16644 3.12748 7.04252 3.33848 6.93999 3.56002C6.81556 3.86134 6.75103 4.18402 6.74999 4.51002C6.74545 4.57995 6.74545 4.65009 6.74999 4.72002C6.74583 4.79329 6.74583 4.86675 6.74999 4.94002C6.77591 5.16591 6.84017 5.38573 6.93999 5.59002C6.9944 5.72587 7.07225 5.8511 7.16999 5.96002C7.28948 6.08566 7.43675 6.18155 7.59999 6.24002C7.67312 6.24765 7.74685 6.24765 7.81999 6.24002H8.01999C8.12535 6.20584 8.22611 6.15882 8.31999 6.10002C8.50797 5.97782 8.68831 5.84424 8.85999 5.70002C9.09999 5.50002 9.38999 5.25002 9.77999 4.90002C10.0418 4.66899 10.289 4.42185 10.52 4.16002C10.6083 4.06282 10.6793 3.95121 10.73 3.83002C10.7812 3.7098 10.8084 3.5807 10.81 3.45002C10.7959 3.24533 10.7342 3.04674 10.63 2.87002C10.5015 2.67576 10.3389 2.50636 10.15 2.37002C10.0487 2.29516 9.94168 2.22829 9.82999 2.17002C9.56587 2.03876 9.27493 1.97046 8.97999 1.97046C8.68505 1.97046 8.39411 2.03876 8.12999 2.17002C7.9869 2.24465 7.85272 2.33523 7.72999 2.44002C7.61999 2.54002 7.53999 2.64002 7.45999 2.72002L7.82999 3.03002L8.18999 3.34002C8.24502 3.27216 8.3052 3.20863 8.36999 3.15002C8.4239 3.09882 8.48444 3.0551 8.54999 3.02002C8.68488 2.95852 8.83176 2.92778 8.97999 2.93002C9.12486 2.92924 9.26816 2.95995 9.39999 3.02002L9.49999 3.08002C9.59243 3.1384 9.67653 3.20905 9.74999 3.29002C9.784 3.32074 9.81125 3.3582 9.82999 3.40002C9.8386 3.4294 9.8386 3.46064 9.82999 3.49002C9.77898 3.56756 9.72216 3.6411 9.65999 3.71002L9.10999 4.22002C8.53999 4.74002 8.17999 5.05002 7.95999 5.22002C7.89535 5.27147 7.82486 5.3151 7.74999 5.35002L7.80999 5.52002V5.34002H7.79999L7.85999 5.51002L7.92999 5.29002H7.85999V5.52002L7.92999 5.30002C7.89957 5.26837 7.87577 5.23098 7.85999 5.19002C7.80659 5.07839 7.76632 4.96094 7.73999 4.84002C7.73627 4.78675 7.73627 4.73329 7.73999 4.68002C7.73664 4.65346 7.73664 4.62658 7.73999 4.60002C7.73507 4.56017 7.73507 4.51987 7.73999 4.48002C7.74531 4.22073 7.81397 3.96669 7.93999 3.74002C7.99533 3.647 8.05541 3.55688 8.11999 3.47002L8.26999 3.28002L7.86999 3.00002Z"
                fill="currentColor"/>
        </symbol>

        <symbol viewBox="0 0 157 427" id="isa">
            <path
                d="M1.60016 308.7L7.7002 303.9V426.7H3.90021C2.90021 426.7 2.00017 426.3 1.30017 425.6C0.600171 424.9 0.200195 424 0.200195 423V311.6C0.200195 310.5 0.700159 309.4 1.60016 308.7Z"
                fill="currentColor"/>
            <path d="M15.2002 298.1L22.6002 292.2V426.7H15.2002V298.1Z" fill="currentColor"/>
            <path d="M30.0996 6.60001L37.4996 0.700012V426.7H30.0996V6.60001Z" fill="currentColor"/>
            <path d="M45 2.5L52.4 8.39999V426.7H45V2.5Z" fill="currentColor"/>
            <path d="M59.8999 14.3L67.2999 20.2V426.7H59.8999V14.3Z" fill="currentColor"/>
            <path d="M82.1998 78.1V426.7H74.7998V71.1L82.1998 78.1Z" fill="currentColor"/>
            <path d="M89.6997 84L97.0997 89.9V426.7H89.6997V84Z" fill="currentColor"/>
            <path
                d="M111.8 210L112 210.2V426.7H104.5V95.8L110.3 100.4C111.2 101.1 111.7 102.2 111.7 103.3V210H111.8Z"
                fill="currentColor"/>
            <path d="M119.5 216.1L126.9 222V426.7H119.5V216.1Z" fill="currentColor"/>
            <path
                d="M141.8 381.4V426.7H134.3V227.9L137.2 230.2C138.1 230.9 138.6 232 138.6 233.1V378.9L141.8 381.4Z"
                fill="currentColor"/>
            <path
                d="M156.7 395.1V426.7H149.2V387.4L155.3 392.2C156.2 392.9 156.7 394 156.7 395.1Z"
                fill="currentColor"/>
        </symbol>

        <symbol viewBox="0 0 306 340" id="fei">
            <path
                d="M153.1 199.6C169.613 199.6 183 186.213 183 169.7C183 153.187 169.613 139.8 153.1 139.8C136.587 139.8 123.2 153.187 123.2 169.7C123.2 186.213 136.587 199.6 153.1 199.6Z"
                fill="currentColor"/>
            <path
                d="M218.5 217.2C214.7 243.9 207.6 270 197.4 295H196.9C191.2 309 182.5 321.6 171.4 331.9C136.8 358.6 109.1 310.6 95.2002 280.7C140.6 269.2 182.8 247.5 218.5 217.2Z"
                fill="currentColor"/>
            <path
                d="M278.5 164C256 141 230.1 121.7 201.7 106.8C188.8 100 175.4 94 161.6 89.2C180.3 82 199.6 76.2 219.2 72.1C241.4 67.8 266.6 64.4 288.8 74.6C322.9 93.4 296.5 138.4 278.5 164Z"
                fill="currentColor"/>
            <path
                d="M79.2998 203.6C56.5998 185.5 35.7998 165 19.1998 141.5C6.39981 122 -7.80018 92.3 14.3998 74.7C34.3998 61.3 61.5998 62.3 85.5998 64.4C73.3998 108.5 71.1998 158.5 79.2998 203.6Z"
                fill="currentColor"/>
            <path
                d="M210.9 59.3C165.4 70.8 123.1 92.6 87.2998 123C91.3998 94.3 99.5998 66.3 111.6 39.9C120.7 19.4 139.9 -8.19999 165.6 2.50001L166.3 2.79999C187.9 13.3 200.6 37.5 210.9 59.3Z"
                fill="currentColor"/>
            <path
                d="M220.4 275.1C233.1 230.1 235.4 182.7 227.1 136.7C255.4 157.8 278.9 184.5 296.3 215.1C324.1 273.6 263.3 279.1 220.4 275.1Z"
                fill="currentColor"/>
            <path
                d="M144.4 250.6C125.7 257.9 106.5 263.6 86.8999 267.8C65.3999 273.3 42.8998 273 21.5998 267.1C-18.5002 250.4 8.89987 202.4 27.8999 175.6C60.4999 209.2 100.3 234.8 144.4 250.6Z"
                fill="currentColor"/>
        </symbol>

        <symbol viewBox="0 0 354 354" id="ikn">
            <path
                d="M255 78.4C266 78.5 274.9 87.4 274.9 98.3V254.6C274.9 265.6 266 274.6 255 274.7H98.7001C87.6001 274.7 78.6001 265.7 78.6001 254.6V98.3C78.7001 87.3 87.6001 78.4 98.7001 78.4H255ZM255 61.6H98.7001C78.5001 61.8 62.2001 78.1 62.1001 98.4V254.7C62.1001 275.1 78.6001 291.6 99.0001 291.6H255C275.3 291.5 291.8 275 291.8 254.7V98.3C291.7 78.1 275.3 61.6 255 61.6Z"
                fill="currentColor"/>
            <path
                d="M91.4 49.2C88 49.2 85.3 46.5 85.2 43.2V6.29999C85.2 2.89999 88 0.100006 91.4 0.100006C94.8 0.100006 97.6 2.89999 97.6 6.29999V43.5C97.4 46.7 94.7 49.2 91.4 49.2Z"
                fill="currentColor"/>
            <path
                d="M148.4 49.2C145 49.2 142.3 46.5 142.2 43.2V6.29999C142.2 2.89999 145 0.100006 148.4 0.100006C151.8 0.200006 154.4 2.89999 154.4 6.29999V43.5C154.3 46.7 151.6 49.2 148.4 49.2Z"
                fill="currentColor"/>
            <path
                d="M205.4 49.2C202 49.2 199.3 46.5 199.2 43.2V6.29999C199.2 2.89999 202 0.100006 205.4 0.100006C208.8 0.200006 211.4 2.89999 211.4 6.29999V43.5C211.2 46.7 208.6 49.2 205.4 49.2Z"
                fill="currentColor"/>
            <path
                d="M262.3 49.2C258.9 49.2 256.2 46.5 256.1 43.2V6.29999C256.1 2.89999 258.9 0.100006 262.3 0.100006C265.7 0.200006 268.3 2.89999 268.3 6.29999V43.5C268.2 46.7 265.6 49.2 262.3 49.2Z"
                fill="currentColor"/>
            <path
                d="M91.4 353.2C88 353.2 85.3 350.5 85.2 347.2V310C85.2 306.6 88 303.8 91.4 303.8C94.8 303.8 97.6 306.6 97.6 310V347.2C97.5 350.5 94.8 353.2 91.4 353.2Z"
                fill="currentColor"/>
            <path
                d="M148.4 353.2C145 353.2 142.3 350.5 142.2 347.2V310C142.2 306.6 145 303.8 148.4 303.8C151.8 303.9 154.4 306.6 154.4 310V347.2C154.4 350.5 151.7 353.2 148.4 353.2Z"
                fill="currentColor"/>
            <path
                d="M205.4 353.2C202 353.2 199.3 350.5 199.2 347.2V310C199.2 306.6 202 303.8 205.4 303.8C208.8 303.9 211.4 306.6 211.4 310V347.2C211.4 350.5 208.7 353.2 205.4 353.2Z"
                fill="currentColor"/>
            <path
                d="M262.3 353.2C258.9 353.2 256.2 350.5 256.1 347.2V310C256.1 306.6 258.9 303.8 262.3 303.8C265.7 303.9 268.3 306.6 268.3 310V347.2C268.4 350.5 265.7 353.2 262.3 353.2Z"
                fill="currentColor"/>
            <path
                d="M304.2 90.5C304.2 87.2 306.9 84.5 310.2 84.5H347.4C350.8 84.5 353.5 87.2 353.6 90.5C353.6 93.9 350.8 96.7 347.4 96.7H310.2C306.8 96.6 304.2 93.8 304.2 90.5Z"
                fill="currentColor"/>
            <path
                d="M304.2 148C304.2 144.6 306.9 141.9 310.2 141.8H347.4C350.8 141.8 353.6 144.6 353.6 148C353.6 151.4 350.8 154.2 347.4 154.2H310.2C306.8 154.1 304.2 151.4 304.2 148Z"
                fill="currentColor"/>
            <path
                d="M304.2 205C304.2 201.6 306.9 198.9 310.2 198.8H347.4C350.8 198.8 353.6 201.6 353.6 205C353.6 208.4 350.8 211.2 347.4 211.2H310.2C306.8 211.1 304.2 208.3 304.2 205Z"
                fill="currentColor"/>
            <path
                d="M304.2 262C304.2 258.6 306.9 255.9 310.2 255.8H347.4C350.8 255.8 353.6 258.6 353.6 262C353.6 265.4 350.8 268.2 347.4 268.2H310.2C306.8 268.1 304.2 265.3 304.2 262Z"
                fill="currentColor"/>
            <path
                d="M0.199951 90.5C0.199951 87.2 2.89995 84.5 6.19995 84.5H43.4C46.8 84.5 49.5 87.2 49.6 90.5C49.6 93.9 46.8 96.7 43.4 96.7H5.89996C2.69996 96.4 0.199951 93.7 0.199951 90.5Z"
                fill="currentColor"/>
            <path
                d="M0.199951 148C0.199951 144.6 2.89995 141.9 6.19995 141.8H43.4C46.8 141.8 49.6 144.6 49.6 148C49.6 151.4 46.8 154.2 43.4 154.2H5.89996C2.69996 154 0.199951 151.3 0.199951 148Z"
                fill="currentColor"/>
            <path
                d="M0.199951 205C0.199951 201.6 2.89995 198.9 6.19995 198.8H43.4C46.8 198.8 49.6 201.6 49.6 205C49.6 208.4 46.8 211.2 43.4 211.2H5.89996C2.69996 210.9 0.199951 208.2 0.199951 205Z"
                fill="currentColor"/>
            <path
                d="M0.199951 262C0.199951 258.6 2.89995 255.9 6.19995 255.8H43.4C46.8 255.8 49.6 258.6 49.6 262C49.6 265.4 46.8 268.2 43.4 268.2H5.89996C2.69996 267.9 0.199951 265.2 0.199951 262Z"
                fill="currentColor"/>
            <path
                d="M154.5 281.1V141.8H119.8C116.4 141.8 113.6 144.6 113.6 148C113.6 151.4 116.4 154.2 119.8 154.2H142.1V281C142.1 284.4 144.9 287.2 148.3 287.2C151.7 287.3 154.5 284.5 154.5 281.1Z"
                fill="currentColor"/>
            <path
                d="M70.6001 211.2H104.2V235.3C104.2 238.7 107 241.5 110.4 241.5C113.8 241.5 116.6 238.7 116.6 235.3V198.8H70.5001C67.1001 198.8 64.3 201.6 64.3 205C64.4 208.4 67.2001 211.2 70.6001 211.2Z"
                fill="currentColor"/>
            <path
                d="M70.5999 111.1H148.3C151.7 111.1 154.5 108.3 154.5 104.9C154.5 101.5 151.7 98.7 148.3 98.7H70.5999C67.1999 98.7 64.3999 101.5 64.3999 104.9C64.3999 108.3 67.1999 111.1 70.5999 111.1Z"
                fill="currentColor"/>
            <path
                d="M211.5 281.1V111.1H250.2C253.6 111.1 256.4 108.3 256.4 104.9C256.4 101.5 253.6 98.7 250.2 98.7H199.1V281.1C199.1 284.5 201.9 287.3 205.3 287.3C208.7 287.3 211.5 284.5 211.5 281.1Z"
                fill="currentColor"/>
            <path
                d="M282.7 141.8H233.2V188C233.2 191.4 236 194.2 239.4 194.2C242.8 194.2 245.6 191.4 245.6 188V154.2H282.7C286.1 154.2 288.9 151.4 288.9 148C288.9 144.6 286.1 141.8 282.7 141.8Z"
                fill="currentColor"/>
            <path
                d="M110.4 248.9C116.917 248.9 122.2 243.617 122.2 237.1C122.2 230.583 116.917 225.3 110.4 225.3C103.883 225.3 98.6001 230.583 98.6001 237.1C98.6001 243.617 103.883 248.9 110.4 248.9Z"
                fill="currentColor"/>
            <path
                d="M245.6 278.1V247.8C245.6 244.4 242.8 241.6 239.4 241.6C236 241.6 233.2 244.4 233.2 247.8V278.1C233.2 281.5 236 284.3 239.4 284.3C242.8 284.3 245.6 281.5 245.6 278.1Z"
                fill="currentColor"/>
            <path
                d="M239.4 257.8C245.917 257.8 251.2 252.517 251.2 246C251.2 239.483 245.917 234.2 239.4 234.2C232.883 234.2 227.6 239.483 227.6 246C227.6 252.517 232.883 257.8 239.4 257.8Z"
                fill="currentColor"/>
            <path
                d="M114.9 159.8C121.417 159.8 126.7 154.517 126.7 148C126.7 141.483 121.417 136.2 114.9 136.2C108.383 136.2 103.1 141.483 103.1 148C103.1 154.517 108.383 159.8 114.9 159.8Z"
                fill="currentColor"/>
            <path
                d="M153.4 116.7C159.917 116.7 165.2 111.417 165.2 104.9C165.2 98.383 159.917 93.1 153.4 93.1C146.883 93.1 141.6 98.383 141.6 104.9C141.6 111.417 146.883 116.7 153.4 116.7Z"
                fill="currentColor"/>
            <path
                d="M252.2 116.7C258.717 116.7 264 111.417 264 104.9C264 98.383 258.717 93.1 252.2 93.1C245.683 93.1 240.4 98.383 240.4 104.9C240.4 111.417 245.683 116.7 252.2 116.7Z"
                fill="currentColor"/>
            <path
                d="M239.4 202.8C245.917 202.8 251.2 197.517 251.2 191C251.2 184.483 245.917 179.2 239.4 179.2C232.883 179.2 227.6 184.483 227.6 191C227.6 197.517 232.883 202.8 239.4 202.8Z"
                fill="currentColor"/>
        </symbol>

        <symbol viewBox="0 0 22 20" id="zf">
            <path
                d="M3.57017 12.7H19.0902C19.2407 12.7 19.3898 12.6702 19.5287 12.6122C19.6677 12.5543 19.7938 12.4695 19.8998 12.3626C20.0058 12.2556 20.0896 12.1288 20.1463 11.9893C20.203 11.8498 20.2315 11.7005 20.2302 11.55V1.73997C20.2302 1.43763 20.1101 1.14767 19.8963 0.933874C19.6825 0.720083 19.3925 0.599976 19.0902 0.599976H3.57017C3.26768 0.602539 2.97817 0.723156 2.76334 0.936115C2.54851 1.14907 2.42537 1.43753 2.42017 1.73997V11.55C2.4199 11.7008 2.44984 11.8503 2.50823 11.9894C2.56663 12.1285 2.65229 12.2545 2.76017 12.36C2.8653 12.4683 2.99125 12.5543 3.13044 12.6127C3.26964 12.6711 3.41921 12.7008 3.57017 12.7ZM3.41017 1.69998C3.41182 1.65818 3.42976 1.6187 3.46017 1.58998C3.47755 1.58255 3.49626 1.57872 3.51517 1.57872C3.53407 1.57872 3.55278 1.58255 3.57017 1.58998H19.0902C19.1262 1.5802 19.1642 1.5802 19.2002 1.58998C19.2132 1.62549 19.2132 1.66446 19.2002 1.69998V11.51C19.2076 11.5274 19.2114 11.5461 19.2114 11.565C19.2114 11.5839 19.2076 11.6026 19.2002 11.62C19.1714 11.6504 19.132 11.6683 19.0902 11.67H3.57017C3.52851 11.6676 3.48918 11.65 3.45968 11.6205C3.43018 11.591 3.41255 11.5516 3.41017 11.51V1.69998Z"
                fill="currentColor"/>
            <path
                d="M21.6899 18.11L20.3599 14.43C20.277 14.2104 20.1293 14.0211 19.9365 13.8872C19.7436 13.7533 19.5147 13.681 19.2799 13.68H3.36994C3.13587 13.6788 2.90721 13.7503 2.71554 13.8847C2.52387 14.019 2.37865 14.2096 2.29994 14.43L0.999938 18.11C0.953403 18.2348 0.929693 18.3669 0.929939 18.5C0.928901 18.7981 1.04363 19.0849 1.24994 19.3C1.46636 19.5203 1.76112 19.6461 2.06994 19.65H20.6099C20.7632 19.6503 20.9149 19.6195 21.0559 19.5593C21.1969 19.4991 21.3241 19.4109 21.4299 19.3C21.639 19.0859 21.7572 18.7993 21.7599 18.5C21.7611 18.3668 21.7373 18.2345 21.6899 18.11ZM20.6899 18.61C20.6511 18.6237 20.6088 18.6237 20.5699 18.61H1.99994C1.98255 18.6174 1.96384 18.6213 1.94494 18.6213C1.92603 18.6213 1.90732 18.6174 1.88994 18.61C1.88117 18.593 1.87659 18.5741 1.87659 18.555C1.87659 18.5359 1.88117 18.517 1.88994 18.5L3.21994 14.82C3.2302 14.791 3.24913 14.7658 3.27418 14.7479C3.29922 14.7301 3.32916 14.7203 3.35994 14.72H19.2799C19.3124 14.7182 19.3446 14.7269 19.3716 14.745C19.3987 14.763 19.4192 14.7893 19.4299 14.82L20.7599 18.5C20.7603 18.5387 20.7499 18.5768 20.7299 18.61H20.6899Z"
                fill="currentColor"/>
        </symbol>

        <symbol viewBox="0 0 14 22" id="fdo">
            <path
                d="M7.44775 0.349976C6.20785 0.350246 4.98885 0.669467 3.90796 1.27695C2.82706 1.88444 1.92061 2.75976 1.27573 3.81878C0.630857 4.87779 0.269244 6.08489 0.225659 7.32403C0.182074 8.56318 0.457982 9.7927 1.02686 10.8944L1.04321 10.9257L1.042 10.9232L1.05639 10.951L1.07129 10.9794L1.08643 11.0082L1.0879 11.0111L1.10206 11.0379L1.11377 11.0604L1.12988 11.0912L1.12888 11.0892L1.14354 11.117L1.14501 11.12L1.15941 11.1473L1.1704 11.1678L1.17162 11.1707L1.17334 11.1737L1.18749 11.201L1.1885 11.203L1.20314 11.2304L1.21536 11.2538L1.21636 11.2558L1.23052 11.2831L1.24419 11.3095L1.24566 11.3119L1.26006 11.3393L1.27422 11.3661L1.273 11.3637L1.2874 11.3915L1.28886 11.3945L1.30328 11.4218L1.31767 11.4492L1.33159 11.4755L1.33059 11.4735L1.34501 11.5013L1.34601 11.5033L1.36041 11.5307L1.36213 11.5341L1.37113 11.5512L1.37357 11.5566L1.37457 11.5586L1.37846 11.5659L1.39385 11.5947L1.40825 11.622L1.40625 11.6191L1.4209 11.6474L1.4226 11.6504L1.43726 11.6782L1.43525 11.6748L1.44965 11.7031L1.45165 11.7065L1.46605 11.7343L1.48119 11.7627L1.47899 11.7588L1.49339 11.7871L1.49487 11.79L1.50951 11.8178L1.5244 11.8462L1.53856 11.8735L1.53711 11.8706L1.55151 11.8989L1.55296 11.9018L1.56762 11.9297L1.58178 11.957L1.59715 11.9858L1.59422 11.9809L1.60888 12.0093L1.61088 12.0132L1.62528 12.041L1.64016 12.0698L1.65165 12.0918L1.66483 12.1172L1.67263 12.1323L1.67972 12.146L1.69534 12.1758L1.70995 12.204L1.70825 12.201L1.72289 12.2299L1.72435 12.2328L1.73901 12.2611L1.7534 12.2894L1.76806 12.3177L1.78222 12.3451L1.79614 12.3724L1.79714 12.3744L1.81178 12.4028L1.8262 12.4306L1.84084 12.4594L1.855 12.4867L1.87063 12.5165L1.86916 12.5141L1.88356 12.5424L1.88503 12.5448L1.8965 12.5672L1.90188 12.5776L1.9026 12.5796L1.90675 12.5879L1.90775 12.5899L1.9119 12.5977L1.918 12.6094L1.93071 12.6348L1.9451 12.6621L1.95976 12.6914L1.96146 12.6953L1.97635 12.7241L1.97535 12.7221L1.99001 12.751L1.99122 12.753L2.00588 12.7818L2.0193 12.8086L2.03468 12.8384L2.04932 12.8672L2.06349 12.895L2.07863 12.9248L2.09229 12.9522L2.10719 12.9815L2.12183 13.0103L2.13355 13.0333L2.14747 13.0601L2.16163 13.0885L2.17555 13.1163L2.19045 13.1461L2.20509 13.1749L2.22022 13.2047L2.23438 13.233L2.25074 13.2652L2.26392 13.2916L2.27834 13.3199L2.29297 13.3492L2.29421 13.3521L2.30885 13.3809L2.32179 13.4068L2.3313 13.4257L2.3335 13.4302L2.35402 13.4708L2.3667 13.4962L2.38184 13.5269L2.39626 13.5557L2.39747 13.5582L2.41213 13.5875L2.41113 13.585L2.42577 13.6148L2.44017 13.6441L2.44188 13.6475L2.45654 13.6768L2.46922 13.7022L2.48412 13.7322L2.49804 13.7604L2.50004 13.7643L2.5137 13.7916L2.52029 13.8048L2.51907 13.8028L2.53347 13.8321L2.54886 13.8625L2.56302 13.8917L2.56448 13.8946L2.57937 13.9244L2.59232 13.9512L2.59403 13.9547L2.60867 13.9844L2.60667 13.98L2.62156 14.0103L2.62328 14.0142L2.63792 14.044L2.65233 14.0733L2.66282 14.0943L2.66501 14.0992L2.66702 14.1031L2.68166 14.1329L2.69241 14.1544L2.70657 14.1841L2.70485 14.1802L2.71975 14.211L2.73634 14.2447L2.7505 14.2735L2.7654 14.3043L2.78006 14.334L2.77786 14.3297L2.7925 14.3604L2.80911 14.3946L2.82327 14.4239L2.83035 14.4382L2.86746 14.5152L2.8821 14.5455L2.8965 14.5753L2.91116 14.6056L2.9258 14.6363L2.94045 14.6666L2.94146 14.669L2.95464 14.6967L2.96904 14.7267L2.9832 14.7565L2.98663 14.7633L2.98808 14.7667L2.99785 14.7869L2.99907 14.7897L3.00932 14.8112L3.01812 14.829L3.03178 14.858L3.0457 14.8873L3.04741 14.8907L3.06207 14.9215L3.06059 14.918L3.07525 14.9493L3.08917 14.9796L3.09063 14.9825L3.10527 15.0133L3.11895 15.0421L3.13287 15.0721L3.13897 15.0851L3.1563 15.1217L3.15508 15.1188L3.16998 15.1505L3.18535 15.1837L3.19975 15.2145L3.21441 15.2457L3.22807 15.275L3.24249 15.3058L3.25615 15.3351L3.26788 15.3605L3.28325 15.3932L3.29741 15.4239L3.31207 15.4557L3.32573 15.4855L3.33989 15.5162L3.35429 15.5475L3.36944 15.5802L3.38335 15.6109L3.38165 15.607L3.39581 15.6383L3.3997 15.6466L3.41924 15.6876L3.43337 15.7188L3.43263 15.7168L3.44777 15.7505L3.45802 15.773L3.4585 15.7741L3.46095 15.7793L3.46631 15.7913L3.46486 15.7882L3.48047 15.8228L3.49463 15.8541L3.49611 15.857L3.51172 15.8917L3.52712 15.9254L3.5425 15.9595L3.54688 15.9575C3.67677 16.2351 3.88679 16.4674 4.14988 16.6245C4.58923 16.883 5.07046 17.0625 5.57176 17.1548C6.18912 17.2803 6.81776 17.342 7.44775 17.3389C8.26148 17.3488 9.07234 17.2406 9.85498 17.0176C10.168 16.9272 10.4674 16.795 10.7451 16.6245C11.0084 16.4675 11.2185 16.2352 11.3484 15.9575L11.3525 15.9595L11.3679 15.9259L11.3838 15.8912L11.3994 15.857L11.4006 15.8541L11.4165 15.8189L11.4304 15.7882L11.4297 15.7899L11.4355 15.7769L11.4387 15.7701L11.4487 15.7476L11.4624 15.7174L11.4758 15.6882L11.4941 15.65L11.4985 15.6402L11.5132 15.608L11.5266 15.5787L11.5415 15.546L11.5395 15.5499L11.5541 15.5186L11.5551 15.5162L11.5698 15.4844L11.5837 15.4547L11.5983 15.4229L11.6123 15.3931L11.6272 15.3614L11.6389 15.336L11.6533 15.3048L11.6674 15.274L11.6811 15.2447L11.6958 15.2135L11.7102 15.1832L11.7112 15.1812L11.7258 15.1494L11.7243 15.1524L11.739 15.1211L11.7534 15.0913L11.7568 15.084L11.7644 15.0674L11.7764 15.042L11.7905 15.0122L11.8052 14.9815L11.8203 14.9492L11.8189 14.9522L11.8335 14.9214L11.8345 14.919L11.8494 14.8877L11.8643 14.8565L11.8787 14.8257L11.8916 14.7993L11.8958 14.79L11.8965 14.7885L11.9048 14.7712L11.9082 14.7641L11.9116 14.7573L11.9258 14.7275L11.9397 14.6987L11.9551 14.6659L11.97 14.6352L11.9841 14.6054L11.9988 14.5751L12.0137 14.5439L12.0127 14.5463L12.0276 14.5156L12.0429 14.4833L12.0498 14.4694L12.0532 14.4623L12.0566 14.4555L12.0718 14.4243L12.0864 14.394L12.1011 14.3637L12.1021 14.3613L12.1169 14.3305L12.1155 14.3334L12.1304 14.3032L12.1448 14.2734L12.1594 14.2436L12.1741 14.2138L12.1753 14.2114L12.1902 14.1806L12.1885 14.184L12.2026 14.1552L12.2139 14.1323L12.218 14.124L12.2288 14.102L12.2298 14.0995L12.2447 14.0692L12.2576 14.0434L12.2722 14.0136L12.2735 14.0106L12.2884 13.9804L12.3015 13.954L12.3025 13.9516L12.3174 13.9213L12.316 13.9242L12.3306 13.8944L12.3326 13.891L12.3473 13.8607L12.3597 13.8358L12.3763 13.8022L12.3817 13.7914L12.3956 13.7636L12.3968 13.7611L12.4115 13.7313L12.4244 13.7055L12.4259 13.703L12.4405 13.6732L12.4537 13.6469L12.4679 13.6181L12.4701 13.6137L12.4845 13.5849L12.4825 13.5883L12.4974 13.559L12.4986 13.5561L12.5135 13.5263L12.5289 13.496L12.5431 13.4672L12.5509 13.4511L12.554 13.4452L12.573 13.4071L12.5879 13.3773L12.5859 13.3817L12.6006 13.3529L12.6028 13.348L12.6165 13.3207L12.6314 13.2914L12.6301 13.2938L12.6448 13.265L12.646 13.2626L12.6607 13.2333L12.6753 13.204L12.6904 13.1737L12.6897 13.1757L12.7044 13.1464L12.7195 13.1167L12.7341 13.0874L12.7488 13.0585L12.7615 13.0332L12.7632 13.0297L12.7715 13.0131L12.7864 12.9848L12.8027 12.9521L12.8169 12.9243L12.832 12.8945L12.831 12.8965L12.8457 12.8677L12.8611 12.8374L12.8755 12.8091L12.8899 12.7813L12.9048 12.752L12.9192 12.7236L12.9341 12.6943L12.9487 12.666L12.95 12.663L12.9648 12.6337L12.9634 12.6366L12.978 12.6078L12.9814 12.601L12.9878 12.5888L12.9893 12.5858L12.9922 12.58L12.9976 12.5697L12.9963 12.5722L13.0107 12.5443L13.0256 12.515L13.04 12.4872L13.0542 12.4594L13.0688 12.431L13.0837 12.4022L13.0979 12.3749L13.1143 12.3422L13.1272 12.3173L13.1411 12.2899L13.1426 12.2879L13.157 12.2596L13.1558 12.2616L13.1704 12.2333L13.1726 12.2294L13.1873 12.2006L13.1851 12.2045L13.1997 12.1762L13.2144 12.1478L13.2197 12.1378L13.2429 12.0932L13.2439 12.0912L13.2571 12.0653L13.2544 12.0702L13.2691 12.0423L13.2705 12.0399L13.2849 12.0121L13.3003 11.9823L13.2989 11.9847L13.3135 11.9569L13.3277 11.9295L13.3421 11.9022L13.3584 11.87L13.3711 11.8456L13.3853 11.8182L13.4004 11.7894L13.416 11.7596L13.4148 11.7616L13.4295 11.7338L13.4305 11.7318L13.4451 11.7035L13.4439 11.7059L13.4583 11.6781L13.4727 11.6502L13.4742 11.6478L13.4888 11.6195L13.4874 11.6219L13.5018 11.5941L13.5162 11.5667L13.524 11.5516L13.5318 11.5365L13.5372 11.5262L13.5352 11.5301L13.5496 11.5028L13.5632 11.4769L13.5647 11.474L13.5791 11.4461L13.5928 11.4203L13.5918 11.4223L13.6062 11.3949L13.618 11.372L13.6228 11.3627L13.6206 11.3671L13.635 11.3397L13.6514 11.308L13.6641 11.2841L13.6783 11.2572L13.6931 11.2289L13.7085 11.1996L13.7075 11.2016L13.7217 11.1743L13.7368 11.1456L13.75 11.1206L13.7671 11.0878L13.7778 11.0668L13.7791 11.0648L13.781 11.0614L13.7954 11.0336L13.8084 11.0092L13.8247 10.9779L13.8225 10.9818L13.8369 10.9545L13.8384 10.9516L13.853 10.9237L13.8518 10.9262L13.8662 10.8988L13.8687 10.8944C14.4373 9.7927 14.713 8.56323 14.6694 7.32416C14.6257 6.0851 14.264 4.8781 13.6192 3.81915C12.9744 2.7602 12.068 1.8849 10.9872 1.27736C9.90645 0.669818 8.68759 0.35046 7.44775 0.349976ZM12.7852 10.3334L12.7729 10.3563L12.7717 10.3588L12.7573 10.3866L12.7585 10.3837L12.7441 10.411L12.7321 10.433L12.7275 10.4428L12.7148 10.4667L12.6989 10.4975L12.6863 10.5214L12.6841 10.5258L12.6694 10.5536L12.6577 10.5761L12.6406 10.6088L12.6279 10.6327L12.6269 10.6347L12.6123 10.6626L12.5988 10.6884L12.5849 10.7148L12.5703 10.7426L12.5539 10.7739L12.5412 10.7983L12.5415 10.7973L12.5393 10.8017L12.5249 10.8295L12.5126 10.8525L12.5116 10.8545L12.4975 10.8819L12.4821 10.9112L12.4838 10.9082L12.4692 10.9356L12.4543 10.9644L12.4477 10.9773L12.4448 10.9825L12.4335 11.0045L12.4355 11.001L12.4209 11.0289L12.406 11.0572L12.4045 11.0596L12.3899 11.088L12.3911 11.0855L12.3767 11.1133L12.3623 11.1412L12.3608 11.1436L12.3462 11.1719L12.3472 11.1699L12.3328 11.1978L12.3318 11.1998L12.3171 11.2281L12.3035 11.2544L12.2895 11.2813L12.2746 11.3096L12.2729 11.313L12.2583 11.3414L12.2458 11.3653L12.2312 11.3936L12.2163 11.4219L12.2151 11.4244L12.2007 11.4527L12.187 11.4791L12.1885 11.4766L12.1738 11.5044L12.1711 11.5093L12.1579 11.5352L12.154 11.5416L12.1296 11.5899L12.1313 11.587L12.1167 11.6153L12.102 11.6436L12.0998 11.6475L12.0852 11.6763L12.0727 11.7007L12.0713 11.7027L12.0569 11.7311L12.0581 11.7291L12.0434 11.7574L12.0281 11.7867L12.0146 11.8121L12.0117 11.8189L11.999 11.8433L11.9841 11.8726L11.9697 11.9004L11.9551 11.9288L11.9404 11.9576L11.9255 11.9864L11.9116 12.0137L11.9101 12.0167L11.9048 12.0269L11.9038 12.0294L11.8996 12.0377L11.8935 12.0489L11.8767 12.0816L11.8755 12.0845L11.8606 12.1138L11.862 12.1109L11.8471 12.1397L11.8325 12.169L11.8178 12.1973L11.8029 12.2266L11.7885 12.2549L11.7734 12.2847L11.7585 12.314L11.7446 12.3414L11.7436 12.3434L11.7289 12.3722L11.7148 12.4L11.6996 12.4298L11.7016 12.4259L11.687 12.4542L11.6838 12.461L11.6738 12.481L11.6604 12.5074L11.645 12.5377L11.6301 12.5675L11.6152 12.5968L11.6006 12.6256L11.5998 12.6276L11.5852 12.6569L11.5708 12.6852L11.5561 12.7145L11.5571 12.712L11.5425 12.7409L11.5415 12.7433L11.5269 12.7726L11.5259 12.7746L11.5112 12.8039L11.4988 12.8278L11.4966 12.8322L11.4819 12.8615L11.4734 12.8788L11.4717 12.882L11.4512 12.9235L11.4365 12.9528L11.4209 12.9836L11.4067 13.0129L11.4079 13.0099L11.393 13.0392L11.3806 13.0637L11.3764 13.0724L11.3613 13.1032L11.3479 13.1301L11.3486 13.1291L11.3469 13.132L11.3323 13.1618L11.3188 13.1886L11.3025 13.2218L11.289 13.2487L11.2817 13.2633L11.2805 13.2658L11.2661 13.2951L11.2536 13.3205L11.2444 13.3385L11.2363 13.3556L11.2234 13.382L11.2217 13.3849L11.207 13.4152L11.208 13.4128L11.1934 13.4425L11.1919 13.446L11.177 13.476L11.1782 13.473L11.1635 13.5028L11.1489 13.5326L11.1472 13.5365L11.1323 13.5668L11.1335 13.5644L11.1188 13.5941L11.1127 13.6059L11.112 13.6079L11.1076 13.6171L11.0937 13.6455L11.092 13.6489L11.0771 13.6796L11.0783 13.6772L11.0634 13.7075L11.0485 13.7382L11.0336 13.769L11.0185 13.7998L11.017 13.8027L11.0024 13.8335L11.0034 13.831L10.9888 13.8613L10.9741 13.8916L10.9597 13.9213L10.9565 13.9277L10.9453 13.9511L10.9172 14.0083L10.9167 14.01L10.915 14.0136L10.914 14.0161L10.8991 14.0468L10.8845 14.0771L10.8696 14.1084L10.8542 14.1401L10.8398 14.1709L10.8259 14.1992L10.8247 14.2021L10.81 14.2329L10.8095 14.2339L10.8073 14.2377L10.7961 14.2616L10.7912 14.2721L10.778 14.2992L10.7612 14.3349L10.7463 14.3666L10.7314 14.3979L10.7324 14.3954L10.7177 14.4262L10.7165 14.4291L10.7016 14.4604L10.6877 14.4901L10.6733 14.5209L10.6582 14.5526L10.6499 14.5702L10.6489 14.5722L10.6367 14.5986L10.6213 14.6313L10.6196 14.6342L10.605 14.666L10.606 14.664L10.5913 14.6952L10.5762 14.7275L10.5615 14.7587L10.5464 14.7919L10.5317 14.8236L10.5205 14.8471L10.5068 14.8769L10.4919 14.9086L10.4763 14.9423L10.4617 14.974L10.4463 15.0077L10.4475 15.0053L10.4331 15.0365L10.4312 15.0404L10.4165 15.0722L10.4028 15.1025L10.3908 15.1288L10.3706 15.1713L10.3657 15.1816L10.352 15.2118L10.3364 15.2465L10.3274 15.2665L10.3225 15.2772L10.3179 15.2874L10.3049 15.3154L10.2876 15.3544L10.2888 15.3515L10.2729 15.3862L10.2571 15.4213L10.8125 15.6738L10.2568 15.4223L10.2412 15.457L10.2344 15.4711L10.2332 15.4749C10.1701 15.5459 10.0935 15.6036 10.0078 15.6445C9.20068 15.9921 8.32583 16.1541 7.44775 16.1186C6.75554 16.1283 6.06553 16.0384 5.39895 15.8515C5.1918 15.7929 4.99325 15.7074 4.80838 15.5971L4.6807 15.497L4.6619 15.4747L4.65946 15.4687L4.63846 15.4223L4.62259 15.3872L4.60648 15.3515L4.60769 15.3544L4.59182 15.3193L4.59036 15.3154L4.57449 15.2807L4.57108 15.2734L4.5635 15.2563L4.55911 15.247L4.54764 15.2216L4.54398 15.2133L4.54297 15.2113L4.52881 15.1801L4.50681 15.1337L4.49363 15.1054L4.49217 15.1015L4.47777 15.0702L4.46288 15.0385L4.44896 15.0082L4.4343 14.976L4.41918 14.9433L4.40379 14.9096L4.38889 14.8778L4.37352 14.8451L4.36327 14.8227L4.3496 14.7934L4.33421 14.7602L4.31931 14.7284L4.30394 14.6952L4.28928 14.664L4.2744 14.6322L4.26024 14.6025L4.25876 14.5995L4.24413 14.5683L4.24656 14.5736L4.239 14.557L4.22215 14.5214L4.20799 14.4911L4.19236 14.4584L4.19383 14.4613L4.17917 14.4301L4.1638 14.3979L4.16209 14.3944L4.14745 14.3637L4.14916 14.3671L4.13426 14.3359L4.11863 14.3026L4.11717 14.2997L4.10302 14.27L4.09887 14.2612L4.09277 14.2485L4.09034 14.2436L4.08593 14.2343L4.07081 14.2026L4.05591 14.1709L4.04273 14.143L4.03956 14.1372L4.04055 14.1396L4.02591 14.1088L4.01077 14.0776L3.99612 14.0468L3.98098 14.0156L3.97805 14.0095L3.97757 14.0078L3.93948 13.9292L3.93509 13.9199L3.92093 13.8911L3.90677 13.8618L3.89138 13.8305L3.89309 13.8344L3.87845 13.8037L3.8616 13.769L3.84671 13.7382L3.83207 13.7085L3.81643 13.6767L3.80154 13.646L3.80354 13.6494L3.79134 13.624L3.78743 13.6167L3.78109 13.604L3.77596 13.5932L3.76132 13.5637L3.74862 13.5371L3.73177 13.5029L3.71687 13.4726L3.70369 13.4462L3.7017 13.4418L3.68705 13.4121L3.6885 13.4155L3.67362 13.3852L3.65725 13.352L3.65873 13.3549L3.64383 13.3247L3.62722 13.2915L3.62893 13.2944L3.61453 13.2651L3.61332 13.2631L3.60696 13.2499L3.60597 13.2479L3.59327 13.2225L3.57863 13.1927L3.56104 13.1581L3.54884 13.1327L3.53175 13.099L3.5188 13.0726L3.50367 13.0423L3.50245 13.04L3.48779 13.0107L3.48879 13.0131L3.47414 12.9833L3.45876 12.9526L3.44436 12.9238L3.43361 12.9018L3.42751 12.8901L3.41261 12.8603L3.39845 12.8319L3.38479 12.8046L3.38234 12.7997L3.38356 12.8026L3.36892 12.7734L3.35426 12.7441L3.33913 12.7138L3.33767 12.7109L3.32301 12.682L3.31007 12.6562L3.29469 12.6259L3.28029 12.5971L3.26516 12.5673L3.25076 12.5385L3.23512 12.5077L3.22122 12.4804L3.20974 12.4579L3.19534 12.4291L3.18068 12.4003L3.16628 12.372L3.15089 12.3417L3.13673 12.3139L3.12161 12.2841L3.10695 12.2553L3.09279 12.2275L3.09158 12.2255L3.07668 12.1967L3.0779 12.1987L3.0635 12.1698L3.06249 12.1678L3.0476 12.139L3.0496 12.1429L3.0347 12.1136L3.01687 12.079L3.00488 12.055L2.9973 12.0404L2.99487 12.0355L2.99387 12.0335L2.99167 12.0291L2.98629 12.0189L2.97849 12.0032L2.96872 11.9847L2.97019 11.9871L2.95554 11.9588L2.95408 11.9564L2.93942 11.928L2.926 11.9012L2.91086 11.8719L2.89645 11.8441L2.88181 11.8153L2.88281 11.8173L2.86815 11.7884L2.85278 11.7587L2.83764 11.7294L2.82298 11.701L2.80835 11.6727L2.8098 11.6757L2.79516 11.6468L2.79345 11.644L2.77881 11.6157L2.76416 11.5873L2.75049 11.5605L2.74316 11.5458L2.74024 11.5405L2.73633 11.5331L2.72387 11.5087L2.70728 11.477L2.69336 11.4501L2.68066 11.4252L2.66357 11.393L2.64996 11.3661L2.6353 11.3378L2.63677 11.3407L2.62212 11.3124L2.62066 11.3095L2.606 11.2817L2.59111 11.2533L2.57719 11.226L2.57866 11.2289L2.56402 11.2006L2.56181 11.1967L2.54717 11.1689L2.53325 11.1415L2.51812 11.1127L2.52031 11.1166L2.50372 11.0854L2.50543 11.0883L2.49096 11.06L2.48924 11.057L2.47461 11.0292L2.45971 11.0009L2.45433 10.9901L2.45116 10.9838L2.44848 10.9786L2.4436 10.9692L2.44751 10.9767L2.44116 10.9647L2.4436 10.9692L2.42632 10.9364L2.42754 10.9384L2.41312 10.9106L2.4119 10.9086L2.3975 10.8812L2.3826 10.8529L2.36821 10.8256L2.36992 10.8285L2.3555 10.8007L2.35405 10.7982L2.33965 10.7709L2.32496 10.7431L2.32642 10.7455L2.31176 10.7177L2.29664 10.6889L2.29786 10.6909L2.2832 10.663L2.28101 10.6586L2.26661 10.6313L2.26761 10.6333L2.25295 10.6059L2.25465 10.6088L2.24025 10.581L2.23782 10.5766L2.2234 10.5492L2.22511 10.5522L2.21047 10.5243L2.20947 10.5223L2.19505 10.495L2.18237 10.4706L2.16478 10.4374L2.16626 10.4403L2.15186 10.413L2.13794 10.3866L2.12402 10.3593L2.12256 10.3568L2.10816 10.3295L2.11036 10.3334C1.63792 9.41785 1.40894 8.39616 1.44542 7.36656C1.4819 6.33695 1.78262 5.33403 2.31867 4.45422C2.85472 3.5744 3.60808 2.84727 4.50632 2.34271C5.40457 1.83815 6.4175 1.57314 7.44775 1.57314C8.47801 1.57314 9.49095 1.83815 10.3892 2.34271C11.2874 2.84727 12.0408 3.5744 12.5768 4.45422C13.1129 5.33403 13.4136 6.33695 13.4501 7.36656C13.4866 8.39616 13.2576 9.41783 12.7852 10.3334Z"
                fill="currentColor"/>
            <path
                d="M9.86258 18.2338L9.70267 18.2738V19.6435C9.69822 19.9209 9.58719 20.1859 9.3926 20.3837C9.2978 20.4815 9.18437 20.5593 9.05899 20.6126C8.93361 20.6659 8.79883 20.6934 8.66261 20.6938H6.24271C5.96524 20.6904 5.70009 20.5786 5.50391 20.3823C5.30772 20.1861 5.19603 19.9209 5.19271 19.6435V18.2836C4.82536 18.1917 4.47452 18.0433 4.15271 17.8437L3.97278 17.7138V19.6435C3.97564 20.2446 4.21572 20.8204 4.64081 21.2455C5.0659 21.6705 5.64162 21.9106 6.24278 21.9135H8.6627C9.26229 21.9085 9.83577 21.6675 10.2588 21.2425C10.6819 20.8176 10.9204 20.2431 10.9227 19.6435V17.7236L10.7528 17.8437C10.476 18.0153 10.1763 18.1466 9.86258 18.2338Z"
                fill="currentColor"/>
        </symbol>

        <symbol viewBox="0 0 15 28" id="uk">
            <path
                d="M14.78 16.29C14.7806 15.8069 14.59 15.3432 14.25 15L11.34 12.09V5.2C11.3353 4.71795 11.1455 4.25615 10.81 3.91L8.34002 1.44L7.95002 1.05C7.81154 0.929029 7.6339 0.862366 7.45002 0.862366C7.26614 0.862366 7.0885 0.929029 6.95002 1.05L6.56002 1.44L4.00002 3.91C3.83207 4.07877 3.69949 4.27935 3.61002 4.5C3.51375 4.72061 3.466 4.95933 3.47002 5.2V12.07L0.550018 15C0.388485 15.1739 0.25672 15.3732 0.160019 15.59C0.0685937 15.8121 0.0210522 16.0498 0.0200195 16.29V26.75C0.0200095 26.8375 0.0374058 26.9242 0.0711975 27.0049C0.104989 27.0856 0.154501 27.1588 0.21685 27.2203C0.2792 27.2817 0.353143 27.3301 0.434376 27.3627C0.515608 27.3952 0.602507 27.4113 0.690018 27.41C0.776488 27.4112 0.862222 27.394 0.941528 27.3595C1.02083 27.325 1.0919 27.274 1.15002 27.21L5.38002 23L5.47002 22.91V23.02L6.79002 26.63C6.82533 26.7317 6.88778 26.8218 6.97063 26.8905C7.05348 26.9593 7.15355 27.0041 7.26002 27.02H7.40002C7.51931 27.0135 7.63407 26.9722 7.73007 26.9011C7.82606 26.83 7.89907 26.7322 7.94002 26.62L9.30002 23V22.89L9.38002 22.98L10.04 23.63L10.84 24.43L13.61 27.2C13.6697 27.2648 13.7424 27.3162 13.8235 27.3507C13.9045 27.3851 13.992 27.402 14.08 27.4C14.2551 27.4 14.4229 27.3305 14.5467 27.2067C14.6705 27.0829 14.74 26.915 14.74 26.74L14.78 16.29ZM3.49002 14V23.2L1.40002 25.3L1.27002 25.43V16.85C1.27217 16.3302 1.47661 15.8317 1.84002 15.46L3.38002 13.92L3.52002 13.78L3.49002 14ZM8.38002 22L7.48002 24.47L7.40002 24.67L7.33002 24.47L6.43002 22L6.86002 21.57C6.92775 21.5006 7.00861 21.4455 7.09789 21.4077C7.18717 21.3699 7.28308 21.3503 7.38002 21.35C7.57887 21.3502 7.7695 21.4293 7.91002 21.57L8.34002 22H8.38002ZM10.11 8.57V22L10 21.82L9.86002 21.68L8.80002 20.61L8.35002 20.16L7.85002 19.67C7.79467 19.6154 7.72907 19.5723 7.65699 19.5431C7.58491 19.5139 7.50778 19.4993 7.43002 19.5C7.27622 19.5001 7.12874 19.5612 7.02002 19.67L6.52002 20.16L6.07002 20.61L4.86002 21.82L4.70002 22V5.76C4.70484 5.23879 4.91294 4.74006 5.28002 4.37L6.77002 2.88C6.85247 2.79695 6.95065 2.73118 7.05883 2.68653C7.167 2.64189 7.283 2.61927 7.40002 2.62C7.51856 2.61905 7.63613 2.64153 7.74596 2.68615C7.85579 2.73077 7.95572 2.79665 8.04002 2.88L9.53002 4.37C9.89709 4.74006 10.1052 5.23879 10.11 5.76V8.57ZM13.57 25.23V25.42L13.44 25.29L11.34 23.19V13.78L11.47 13.92L13 15.46C13.3671 15.8301 13.5752 16.3288 13.58 16.85L13.57 25.23Z"
                fill="currentColor"/>
        </symbol>

        <symbol viewBox="0 0 27 31" id="nii">
            <path
                d="M13.5601 16.38C14.2504 16.38 14.8101 15.8204 14.8101 15.13C14.8101 14.4396 14.2504 13.88 13.5601 13.88C12.8697 13.88 12.3101 14.4396 12.3101 15.13C12.3101 15.8204 12.8697 16.38 13.5601 16.38Z"
                fill="currentColor"/>
            <path
                d="M26.54 8.58999C26.92 7.17999 25.43 6.97 24.41 7.12C22.4807 7.44334 20.6038 8.02524 18.83 8.84999C18.05 9.17999 17.28 9.53999 16.52 9.90999C16.24 6.45999 15.65 2.65999 14.46 0.909994C12.14 -1.81001 10.93 6.05999 10.76 7.42999C10.67 8.18999 10.58 8.96 10.51 9.72C8.60805 8.78886 6.62687 8.02918 4.58998 7.45C3.54561 7.0951 2.43351 6.9856 1.33998 7.12999C1.15952 7.16435 0.990282 7.24257 0.84718 7.35775C0.704077 7.47293 0.591503 7.62155 0.519379 7.7905C0.447254 7.95945 0.417794 8.14354 0.433594 8.32656C0.449394 8.50958 0.50997 8.68591 0.609982 8.83999C1.0733 9.72709 1.69719 10.5205 2.44998 11.18C3.40079 12.0644 4.4025 12.8925 5.44998 13.66C6.14998 14.17 6.86998 14.66 7.57998 15.12C6.87332 15.6133 6.17331 16.1133 5.47998 16.62C4.42761 17.392 3.42557 18.2304 2.47998 19.13C1.73567 19.7886 1.11876 20.5784 0.659981 21.46C0.019981 22.97 1.46998 23.29 2.65998 23.14C4.5942 22.8382 6.48035 22.2834 8.26998 21.49C8.98998 21.19 9.69998 20.87 10.41 20.54C10.53 21.97 10.7 23.4 10.93 24.82C11.04 25.46 11.17 26.09 11.34 26.73C11.5477 27.7199 11.9377 28.6626 12.49 29.51C12.5795 29.6805 12.7094 29.8265 12.8683 29.9352C13.0273 30.0439 13.2104 30.1121 13.4017 30.1338C13.5931 30.1555 13.7868 30.1301 13.966 30.0597C14.1453 29.9893 14.3045 29.8761 14.43 29.73C15.0837 28.8395 15.5311 27.8147 15.74 26.73C16.2106 24.6042 16.5083 22.4438 16.63 20.27C17.37 20.62 18.1 20.97 18.86 21.27C20.0459 21.7794 21.2614 22.2169 22.5 22.58C23.4315 22.8863 24.41 23.0251 25.39 22.99C26.93 22.8 26.45 21.46 25.79 20.59C24.5713 19.0819 23.163 17.7375 21.6 16.59C21 16.12 20.39 15.66 19.76 15.22C21.4934 14.0225 23.1256 12.6847 24.64 11.22C25.4613 10.4958 26.1105 9.59725 26.54 8.58999ZM11.21 7.46999C11.3776 5.56283 11.798 3.68641 12.46 1.88999C13.76 -1.11001 14.9 2.15999 15.3 3.67999C15.8078 5.77004 16.1225 7.90234 16.24 10.05C15.94 10.2 15.63 10.34 15.33 10.5C14.78 10.78 14.24 11.08 13.71 11.37C12.81 10.87 11.91 10.37 11 9.93999C11.05 9.10999 11.12 8.28999 11.21 7.46999ZM16.38 15.13C16.38 15.51 16.38 15.99 16.38 16.53C15.88 16.84 15.38 17.15 14.89 17.44L13.36 18.31C12.53 17.85 11.71 17.37 10.91 16.88C10.91 16.29 10.91 15.71 10.91 15.13C10.91 14.55 10.91 14.01 10.91 13.45C11.75 12.9367 12.6 12.4467 13.46 11.98L14.92 12.77L16.44 13.67L16.38 15.13ZM16.74 13.88C17.38 14.27 18.01 14.67 18.64 15.08C18.02 15.49 17.39 15.89 16.76 16.29C16.76 15.9 16.76 15.52 16.76 15.13C16.76 14.74 16.75 14.34 16.74 13.88ZM16.32 17.39C16.32 18.12 16.24 18.94 16.17 19.8C15.45 19.45 14.74 19.07 14.04 18.69L15.22 18.05L16.32 17.39ZM13.09 18.45C12.4 18.83 11.71 19.2 11.01 19.55C10.96 18.77 10.93 17.99 10.9 17.21C11.62 17.63 12.35 18.05 13.09 18.45ZM10.23 16.45C9.54998 16.02 8.86998 15.58 8.22998 15.12L8.86998 14.68L10.28 13.81C10.23 14.7 10.22 15.58 10.23 16.46V16.45ZM10.86 13C10.86 12.25 10.86 11.49 10.95 10.73C11.63 11.06 12.3 11.41 12.95 11.73C12.26 12.16 11.56 12.57 10.86 13ZM15.18 12.22L14.11 11.6C14.82 11.23 15.54 10.86 16.27 10.51C16.3233 11.3233 16.3533 12.1333 16.36 12.94L15.18 12.22ZM5.67998 13.33C4.23998 12.17 1.67998 10.13 1.05998 8.41999C0.659982 7.02999 3.71998 7.86999 4.40998 8.06999C6.47009 8.7188 8.47622 9.52794 10.41 10.49C10.33 11.49 10.27 12.39 10.24 13.35C9.41998 13.85 8.61998 14.35 7.82998 14.9C7.12998 14.38 6.38998 13.87 5.67998 13.32V13.33ZM4.45998 22.26C0.45998 23.37 -0.0500195 22.26 2.79998 19.41C4.37735 17.9064 6.08393 16.5445 7.89998 15.34C8.66998 15.85 9.44998 16.34 10.24 16.82C10.24 17.82 10.3 18.82 10.37 19.88C8.46934 20.833 6.49247 21.6258 4.45998 22.25V22.26ZM13.8 29.35C12.95 29.93 12.19 27.17 12.03 26.54C11.5264 24.4638 11.192 22.3502 11.03 20.22C11.95 19.78 12.86 19.32 13.76 18.84C14.54 19.25 15.32 19.65 16.11 20.03C15.84 23.73 15.16 28.07 13.8 29.34V29.35ZM24.27 19.35C25.47 20.48 27.73 23.07 24.42 22.74C22.524 22.4397 20.6774 21.8846 18.93 21.09C18.16 20.76 17.4 20.39 16.64 20.02C16.7 19.02 16.73 18.09 16.75 17.13C17.61 16.61 18.46 16.06 19.29 15.5C21.0518 16.6459 22.7173 17.9335 24.27 19.35ZM24.2 10.79C22.6249 12.2587 20.9326 13.5965 19.14 14.79C18.34 14.24 17.53 13.7 16.71 13.19C16.71 12.33 16.63 11.39 16.55 10.4C17.36 10.02 18.18 9.65 19.01 9.31C20.74 8.63 23.76 7.39999 25.56 7.72999C27 7.99999 24.72 10.28 24.2 10.79Z"
                fill="currentColor"/>
        </symbol>

        <symbol viewBox="0 0 80 82" id="lic">
            <path
                d="M76.19 59.1601L69.26 66.0901L66.6 63.4301L73.53 56.5001L69.01 51.9801L58.52 62.4701L55.86 59.8001L66.35 49.3101L61.83 44.7901L54.9 51.7201L52.23 49.0501L59.16 42.1201L54.64 37.6001L44.15 48.0901L41.48 45.4301L51.97 34.9401L47.45 30.4201L40.52 37.3501L37.86 34.6901L44.79 27.7601L40.27 23.2401L29.78 33.7301L27.12 31.0601L37.61 20.5701L33.09 16.0501L26.16 22.9801L23.49 20.3101L30.42 13.3801L25.9 8.86009L15.41 19.3501L12.74 16.6901L23.23 6.20009L17.87 0.840088L6.73002 11.9801C2.28002 16.4301 2.28002 23.6401 6.73002 28.0901L54.3 75.6601C58.75 80.1101 65.96 80.1101 70.41 75.6601L81.55 64.5201L76.19 59.1701V59.1601ZM18.58 32.2201C16.22 32.2201 14.31 30.3101 14.31 27.9501C14.31 25.5901 16.22 23.6801 18.58 23.6801C20.94 23.6801 22.85 25.5901 22.85 27.9501C22.85 30.3101 20.94 32.2201 18.58 32.2201Z"
                fill="currentColor"/>
            <path
                d="M18.51 44.7201L3.09999 60.1201C2.93999 60.2801 2.83998 60.5101 2.83998 60.7401C2.83998 60.9701 2.92999 61.2001 3.09999 61.3601L3.15999 61.4201L3.77998 60.8001L3.14998 60.1801C2.28998 61.0601 1.64998 62.1001 1.22998 63.2301C0.80998 64.3601 0.609985 65.5801 0.609985 66.8401C0.609985 68.7301 1.05998 70.7001 1.91998 72.6201C2.77998 74.5401 4.04998 76.4001 5.69998 78.0501C7.35998 79.7101 9.21998 80.9801 11.14 81.8301C13.06 82.6901 15.04 83.1401 16.92 83.1401C18.2 83.1401 19.43 82.9301 20.58 82.5001C21.72 82.0701 22.77 81.4201 23.65 80.5301C23.95 80.2301 24.22 79.9101 24.46 79.5901L23.75 79.0701L24.37 79.6901L38.93 65.1301C39.27 64.7901 39.27 64.2301 38.93 63.8901C38.59 63.5501 38.03 63.5501 37.69 63.8901L23.13 78.4501C23.13 78.4501 23.07 78.5201 23.05 78.5501C22.85 78.8201 22.64 79.0701 22.41 79.2901C21.71 79.9901 20.89 80.5101 19.96 80.8601C19.04 81.2101 18.01 81.3801 16.92 81.3801C15.31 81.3801 13.57 80.9901 11.85 80.2301C10.13 79.4601 8.44999 78.3101 6.93999 76.8101C5.42999 75.3001 4.28999 73.6201 3.51999 71.9001C2.74999 70.1901 2.36998 68.4401 2.36998 66.8401C2.36998 65.7701 2.53999 64.7501 2.87999 63.8401C3.21999 62.9201 3.72999 62.1101 4.40999 61.4101C4.74999 61.0601 4.73999 60.5101 4.40999 60.1701L4.34999 60.1101L3.72998 60.7301L4.34999 61.3501L19.76 45.9501C20.1 45.6101 20.1 45.0501 19.76 44.7101C19.42 44.3701 18.86 44.3701 18.52 44.7101L18.51 44.7201Z"
                fill="currentColor"/>
            <path
                d="M44.26 21.4599L59.21 6.50991L58.59 5.8899L57.97 6.50991L58.03 6.5699C58.22 6.7599 58.49 6.8499 58.76 6.8199L79.56 4.22991L76.97 25.0299L77.84 25.1399L78.46 24.5199L78.4 24.4599C78.24 24.2999 78.01 24.1999 77.78 24.1999C77.55 24.1999 77.32 24.2899 77.16 24.4599L62.21 39.4099C61.87 39.7499 61.87 40.3099 62.21 40.6499C62.55 40.9899 63.11 40.9899 63.45 40.6499L78.4 25.6999L77.78 25.0799L77.16 25.6999L77.22 25.7599C77.46 25.9999 77.81 26.0799 78.13 25.9699C78.45 25.8599 78.68 25.5799 78.72 25.2499L81.44 3.32991C81.47 3.05991 81.38 2.7899 81.19 2.5999C81 2.4099 80.73 2.3199 80.46 2.3499L58.54 5.0699L58.65 5.93991L59.27 5.3199L59.21 5.25991C59.05 5.09991 58.82 4.9999 58.59 4.9999C58.36 4.9999 58.13 5.08991 57.97 5.25991L43.02 20.2099C42.68 20.5499 42.68 21.1099 43.02 21.4499C43.36 21.7899 43.92 21.7899 44.26 21.4499V21.4599Z"
                fill="currentColor"/>
            <path
                d="M80.1 11.32L72.46 3.68005C72.12 3.34005 71.56 3.34005 71.22 3.68005C70.88 4.02005 70.88 4.58005 71.22 4.92005L78.86 12.56C79.2 12.9 79.76 12.9 80.1 12.56C80.44 12.22 80.44 11.66 80.1 11.32Z"
                fill="currentColor"/>
        </symbol>
    </defs>
</svg>
