<svg aria-hidden="true" style="position: absolute; width: 0; height: 0; overflow: hidden;" version="1.1" xmlns="http://www.w3.org/2000/svg">
    <defs>
        <symbol id="ikn" viewBox="0 0 2000 2000">
            <path d="M255 78.4C266 78.5 274.9 87.4 274.9 98.3V254.6C274.9 265.6 266 274.6 255 274.7H98.7001C87.6001 274.7 78.6001 265.7 78.6001 254.6V98.3C78.7001 87.3 87.6001 78.4 98.7001 78.4H255ZM255 61.6H98.7001C78.5001 61.8 62.2001 78.1 62.1001 98.4V254.7C62.1001 275.1 78.6001 291.6 99.0001 291.6H255C275.3 291.5 291.8 275 291.8 254.7V98.3C291.7 78.1 275.3 61.6 255 61.6Z" fill="#FFD040"/>
            <path d="M91.4 49.2C88 49.2 85.3 46.5 85.2 43.2V6.29999C85.2 2.89999 88 0.100006 91.4 0.100006C94.8 0.100006 97.6 2.89999 97.6 6.29999V43.5C97.4 46.7 94.7 49.2 91.4 49.2Z" fill="#FFD040"/>
            <path d="M148.4 49.2C145 49.2 142.3 46.5 142.2 43.2V6.29999C142.2 2.89999 145 0.100006 148.4 0.100006C151.8 0.200006 154.4 2.89999 154.4 6.29999V43.5C154.3 46.7 151.6 49.2 148.4 49.2Z" fill="#FFD040"/>
            <path d="M205.4 49.2C202 49.2 199.3 46.5 199.2 43.2V6.29999C199.2 2.89999 202 0.100006 205.4 0.100006C208.8 0.200006 211.4 2.89999 211.4 6.29999V43.5C211.2 46.7 208.6 49.2 205.4 49.2Z" fill="#FFD040"/>
            <path d="M262.3 49.2C258.9 49.2 256.2 46.5 256.1 43.2V6.29999C256.1 2.89999 258.9 0.100006 262.3 0.100006C265.7 0.200006 268.3 2.89999 268.3 6.29999V43.5C268.2 46.7 265.6 49.2 262.3 49.2Z" fill="#FFD040"/>
            <path d="M91.4 353.2C88 353.2 85.3 350.5 85.2 347.2V310C85.2 306.6 88 303.8 91.4 303.8C94.8 303.8 97.6 306.6 97.6 310V347.2C97.5 350.5 94.8 353.2 91.4 353.2Z" fill="#FFD040"/>
            <path d="M148.4 353.2C145 353.2 142.3 350.5 142.2 347.2V310C142.2 306.6 145 303.8 148.4 303.8C151.8 303.9 154.4 306.6 154.4 310V347.2C154.4 350.5 151.7 353.2 148.4 353.2Z" fill="#FFD040"/>
            <path d="M205.4 353.2C202 353.2 199.3 350.5 199.2 347.2V310C199.2 306.6 202 303.8 205.4 303.8C208.8 303.9 211.4 306.6 211.4 310V347.2C211.4 350.5 208.7 353.2 205.4 353.2Z" fill="#FFD040"/>
            <path d="M262.3 353.2C258.9 353.2 256.2 350.5 256.1 347.2V310C256.1 306.6 258.9 303.8 262.3 303.8C265.7 303.9 268.3 306.6 268.3 310V347.2C268.4 350.5 265.7 353.2 262.3 353.2Z" fill="#FFD040"/>
            <path d="M304.2 90.5C304.2 87.2 306.9 84.5 310.2 84.5H347.4C350.8 84.5 353.5 87.2 353.6 90.5C353.6 93.9 350.8 96.7 347.4 96.7H310.2C306.8 96.6 304.2 93.8 304.2 90.5Z" fill="#FFD040"/>
            <path d="M304.2 148C304.2 144.6 306.9 141.9 310.2 141.8H347.4C350.8 141.8 353.6 144.6 353.6 148C353.6 151.4 350.8 154.2 347.4 154.2H310.2C306.8 154.1 304.2 151.4 304.2 148Z" fill="#FFD040"/>
            <path d="M304.2 205C304.2 201.6 306.9 198.9 310.2 198.8H347.4C350.8 198.8 353.6 201.6 353.6 205C353.6 208.4 350.8 211.2 347.4 211.2H310.2C306.8 211.1 304.2 208.3 304.2 205Z" fill="#FFD040"/>
            <path d="M304.2 262C304.2 258.6 306.9 255.9 310.2 255.8H347.4C350.8 255.8 353.6 258.6 353.6 262C353.6 265.4 350.8 268.2 347.4 268.2H310.2C306.8 268.1 304.2 265.3 304.2 262Z" fill="#FFD040"/>
            <path d="M0.199951 90.5C0.199951 87.2 2.89995 84.5 6.19995 84.5H43.4C46.8 84.5 49.5 87.2 49.6 90.5C49.6 93.9 46.8 96.7 43.4 96.7H5.89996C2.69996 96.4 0.199951 93.7 0.199951 90.5Z" fill="#FFD040"/>
            <path d="M0.199951 148C0.199951 144.6 2.89995 141.9 6.19995 141.8H43.4C46.8 141.8 49.6 144.6 49.6 148C49.6 151.4 46.8 154.2 43.4 154.2H5.89996C2.69996 154 0.199951 151.3 0.199951 148Z" fill="#FFD040"/>
            <path d="M0.199951 205C0.199951 201.6 2.89995 198.9 6.19995 198.8H43.4C46.8 198.8 49.6 201.6 49.6 205C49.6 208.4 46.8 211.2 43.4 211.2H5.89996C2.69996 210.9 0.199951 208.2 0.199951 205Z" fill="#FFD040"/>
            <path d="M0.199951 262C0.199951 258.6 2.89995 255.9 6.19995 255.8H43.4C46.8 255.8 49.6 258.6 49.6 262C49.6 265.4 46.8 268.2 43.4 268.2H5.89996C2.69996 267.9 0.199951 265.2 0.199951 262Z" fill="#FFD040"/>
            <path d="M154.5 281.1V141.8H119.8C116.4 141.8 113.6 144.6 113.6 148C113.6 151.4 116.4 154.2 119.8 154.2H142.1V281C142.1 284.4 144.9 287.2 148.3 287.2C151.7 287.3 154.5 284.5 154.5 281.1Z" fill="#FFD143"/>
            <path d="M70.6001 211.2H104.2V235.3C104.2 238.7 107 241.5 110.4 241.5C113.8 241.5 116.6 238.7 116.6 235.3V198.8H70.5001C67.1001 198.8 64.3 201.6 64.3 205C64.4 208.4 67.2001 211.2 70.6001 211.2Z" fill="#FFD143"/>
            <path d="M70.5999 111.1H148.3C151.7 111.1 154.5 108.3 154.5 104.9C154.5 101.5 151.7 98.7 148.3 98.7H70.5999C67.1999 98.7 64.3999 101.5 64.3999 104.9C64.3999 108.3 67.1999 111.1 70.5999 111.1Z" fill="#FFD143"/>
            <path d="M211.5 281.1V111.1H250.2C253.6 111.1 256.4 108.3 256.4 104.9C256.4 101.5 253.6 98.7 250.2 98.7H199.1V281.1C199.1 284.5 201.9 287.3 205.3 287.3C208.7 287.3 211.5 284.5 211.5 281.1Z" fill="#FFD143"/>
            <path d="M282.7 141.8H233.2V188C233.2 191.4 236 194.2 239.4 194.2C242.8 194.2 245.6 191.4 245.6 188V154.2H282.7C286.1 154.2 288.9 151.4 288.9 148C288.9 144.6 286.1 141.8 282.7 141.8Z" fill="#FFD143"/>
            <path d="M110.4 248.9C116.917 248.9 122.2 243.617 122.2 237.1C122.2 230.583 116.917 225.3 110.4 225.3C103.883 225.3 98.6001 230.583 98.6001 237.1C98.6001 243.617 103.883 248.9 110.4 248.9Z" fill="#FFD143"/>
            <path d="M245.6 278.1V247.8C245.6 244.4 242.8 241.6 239.4 241.6C236 241.6 233.2 244.4 233.2 247.8V278.1C233.2 281.5 236 284.3 239.4 284.3C242.8 284.3 245.6 281.5 245.6 278.1Z" fill="#FFD143"/>
            <path d="M239.4 257.8C245.917 257.8 251.2 252.517 251.2 246C251.2 239.483 245.917 234.2 239.4 234.2C232.883 234.2 227.6 239.483 227.6 246C227.6 252.517 232.883 257.8 239.4 257.8Z" fill="#FFD143"/>
            <path d="M114.9 159.8C121.417 159.8 126.7 154.517 126.7 148C126.7 141.483 121.417 136.2 114.9 136.2C108.383 136.2 103.1 141.483 103.1 148C103.1 154.517 108.383 159.8 114.9 159.8Z" fill="#FFD143"/>
            <path d="M153.4 116.7C159.917 116.7 165.2 111.417 165.2 104.9C165.2 98.383 159.917 93.1 153.4 93.1C146.883 93.1 141.6 98.383 141.6 104.9C141.6 111.417 146.883 116.7 153.4 116.7Z" fill="#FFD143"/>
            <path d="M252.2 116.7C258.717 116.7 264 111.417 264 104.9C264 98.383 258.717 93.1 252.2 93.1C245.683 93.1 240.4 98.383 240.4 104.9C240.4 111.417 245.683 116.7 252.2 116.7Z" fill="#FFD143"/>
            <path d="M239.4 202.8C245.917 202.8 251.2 197.517 251.2 191C251.2 184.483 245.917 179.2 239.4 179.2C232.883 179.2 227.6 184.483 227.6 191C227.6 197.517 232.883 202.8 239.4 202.8Z" fill="#FFD143"/>
        </symbol>
        <symbol id="imit" viewBox="0 0 24 24">
            <path d="M15 8.13001C14.2053 7.59425 13.2684 7.30866 12.31 7.31001C11.6639 7.30639 11.024 7.43573 10.43 7.69001C9.55796 8.05656 8.81367 8.6726 8.2906 9.46076C7.76753 10.2489 7.489 11.1741 7.48999 12.12C7.48953 12.7668 7.62229 13.4068 7.87999 14C8.2472 14.8736 8.86478 15.619 9.65491 16.1422C10.445 16.6654 11.3724 16.943 12.32 16.94C12.9629 16.9437 13.5995 16.8143 14.19 16.56C15.0524 16.2011 15.7898 15.5958 16.31 14.82C16.8471 14.0222 17.1327 13.0817 17.13 12.12C17.1365 11.3297 16.9461 10.5502 16.576 9.85185C16.2058 9.15351 15.6677 8.55833 15.01 8.12001L15 8.13001ZM15.49 13.47C15.2316 14.0882 14.8012 14.6192 14.25 15C13.9682 15.185 13.6619 15.3297 13.34 15.43C12.5696 15.668 11.7393 15.6219 11 15.3C10.3842 15.0373 9.85668 14.6035 9.47999 14.05C9.29514 13.7717 9.15038 13.4687 9.04999 13.15C8.94804 12.8263 8.89413 12.4894 8.88999 12.15C8.89009 11.6888 8.98542 11.2326 9.16999 10.81C9.42975 10.1924 9.86419 9.66414 10.42 9.29001C10.6983 9.10515 11.0013 8.9604 11.32 8.86001C12.0283 8.63633 12.79 8.64793 13.4912 8.89307C14.1923 9.13821 14.7953 9.60373 15.21 10.22C15.3989 10.4997 15.5439 10.8065 15.64 11.13C15.7429 11.4535 15.7969 11.7906 15.8 12.13C15.7876 12.5919 15.6858 13.047 15.5 13.47H15.49Z" fill="#5F6DB2"/>
            <path d="M21.0699 12.13C21.0705 11.7522 21.0472 11.3748 20.9999 11L23.7199 8.71L23.5499 8.26C23.0651 7.00559 22.3607 5.84752 21.4699 4.84L21.1699 4.5L17.7399 5.6C17.0786 5.09947 16.3475 4.69854 15.5699 4.41L14.8399 1L14.3799 0.92C13.6956 0.80796 13.0034 0.751111 12.3099 0.75C11.616 0.750338 10.9235 0.810561 10.2399 0.93L9.78992 1.01L9.06992 4.38C8.29916 4.67659 7.57246 5.07695 6.90992 5.57L3.46992 4.48L3.17992 4.81C2.28578 5.81506 1.58107 6.97376 1.09992 8.23L0.919922 8.69L3.64993 11C3.59013 11.3838 3.56004 11.7716 3.55993 12.16C3.56008 12.5451 3.59017 12.9296 3.64993 13.31L0.919922 15.6L1.09992 16.06C1.58574 17.3139 2.28997 18.4718 3.17992 19.48L3.46992 19.81L6.90992 18.72C7.57044 19.2136 8.2977 19.6109 9.06992 19.9L9.78992 23.28L10.2399 23.36C10.9247 23.4696 11.6165 23.5297 12.3099 23.54C13 23.5301 13.6885 23.47 14.3699 23.36L14.8299 23.28L15.5499 19.91C16.3207 19.6134 17.0474 19.2131 17.7099 18.72L21.1499 19.81L21.4399 19.48C22.3395 18.4546 23.0475 17.2759 23.5299 16L23.6999 15.54L20.9999 13.29C21.053 12.9057 21.0764 12.5179 21.0699 12.13ZM20.7099 18.21L17.4399 17.21L17.1499 17.44C16.4422 18.0222 15.6315 18.4666 14.7599 18.75L14.3899 18.88L13.6999 22.09C12.7805 22.21 11.8494 22.21 10.9299 22.09L10.2399 18.87L9.86993 18.75C9.00012 18.4626 8.19015 18.0186 7.47992 17.44L7.18992 17.2L3.91992 18.25C3.36617 17.5655 2.9086 16.8085 2.55993 16L5.13992 13.84L5.05993 13.44C4.88672 12.5854 4.88672 11.7046 5.05993 10.85L5.13992 10.45L2.55993 8.29C2.90288 7.46629 3.36075 6.6953 3.91992 6L7.18992 7L7.47992 6.77C8.18769 6.18776 8.99837 5.74341 9.86993 5.46L10.2399 5.33L10.9299 2.12C11.3908 2.05984 11.8551 2.02978 12.3199 2.03C12.781 2.03173 13.2417 2.05844 13.6999 2.11L14.3799 5.33L14.7599 5.45C15.6341 5.73916 16.4476 6.1866 17.1599 6.77L17.4399 7L20.7199 6C21.2681 6.67757 21.7253 7.4239 22.0799 8.22L19.4999 10.42L19.5799 10.82C19.6628 11.2485 19.7063 11.6836 19.7099 12.12C19.7084 12.557 19.6615 12.9927 19.5699 13.42L19.4899 13.82L22.0699 16C21.7145 16.7926 21.2573 17.5355 20.7099 18.21Z" fill="#5F6DB2"/>
        </symbol>
    </defs>
</svg>