<svg width="1490" height="1664" viewBox="0 0 1490 1664" fill="none" xmlns="http://www.w3.org/2000/svg">
<path d="M1181.4 598.4L1081.6 698.4L878.2 901.8L777.1 1002.8L734.2 1045.7V903L835.1 802L1038.7 598.6L1010.6 570.5L997.9 557.8L973.9 533.6V390.9L997.9 414.9L1181.4 598.4Z" fill="#4B5C6C"/>
<path d="M1194.8 683.3H1123.4L1194.8 611.9V683.3Z" fill="#B1896A"/>
<path d="M755.8 0V142.7L654.9 243.6L635.5 263L626.3 272.2L451.3 447.1L459.1 454.9L516 512V654.7L308.6 447.1L345.9 409.9L380 375.8L480.5 275.3L487.7 268.2L755.8 0Z" fill="#4B5C6C"/>
<path d="M295.2 362.6H366.5L295.2 433.8V362.6Z" fill="#B1896A"/>
<path d="M484.9 1219.7C475.5 1211.8 462.1 1207.3 444.6 1206.3V1195.7H422.4V1206.4C404.7 1207.5 391.2 1211.9 381.9 1219.7C372.5 1227.5 367.9 1238.2 367.9 1251.9C367.9 1265.5 372.6 1276.2 381.9 1284.1C391.3 1292 404.8 1296.4 422.4 1297.4V1308.9H444.6V1297.6C462.1 1296.7 475.6 1292.3 484.9 1284.5C494.3 1276.6 498.9 1265.8 498.9 1252C499 1238.4 494.3 1227.6 484.9 1219.7ZM422.4 1278.7C401.6 1276.5 391.2 1267.6 391.2 1251.9C391.2 1243.8 393.8 1237.6 398.9 1233.2C404 1228.9 411.9 1226.2 422.5 1225.2V1278.7H422.4ZM468.1 1270.6C462.9 1275 455.1 1277.7 444.6 1278.7V1225.3C465.4 1227.1 475.8 1235.9 475.8 1251.8C475.8 1259.9 473.2 1266.2 468.1 1270.6Z" fill="#212121"/>
<path d="M517 1200.2H540.9V1268L590.6 1200.2H613.1V1304.3H589.4V1236.6L539.7 1304.3H517V1200.2Z" fill="#212121"/>
<path d="M712.4 1259.8C715.8 1264.2 717.5 1269.3 717.5 1275.2C717.5 1281.5 715.4 1287 711.3 1291.7C707.1 1296.4 701.5 1299.9 694.4 1302.4C687.3 1304.9 679.6 1306.1 671.1 1306.1C664 1306.1 656.9 1305.2 649.8 1303.4C642.7 1301.6 636 1298.9 629.7 1295.2L637.1 1278C641.7 1280.8 646.7 1282.9 652.2 1284.3C657.7 1285.7 663.1 1286.5 668.3 1286.5C675.4 1286.5 681.4 1285.2 686.1 1282.6C690.8 1280 693.2 1276.4 693.2 1271.7C693.2 1267.8 691.6 1264.9 688.4 1262.9C685.2 1260.9 680.8 1259.9 675.2 1259.9H649.8V1241.8H673.4C678.3 1241.8 682 1240.8 684.8 1238.8C687.5 1236.8 688.9 1234.1 688.9 1230.6C688.9 1226.5 686.9 1223.4 683 1221.1C679.1 1218.8 674.1 1217.7 667.9 1217.7C663.3 1217.7 658.6 1218.3 653.8 1219.6C648.9 1220.8 644.3 1222.7 640 1225.2L632.7 1206.5C643.7 1200.9 655.6 1198 668.4 1198C676.5 1198 684 1199.2 690.8 1201.6C697.6 1204 703.1 1207.4 707.2 1212C711.3 1216.6 713.3 1221.9 713.3 1227.9C713.3 1232.9 712 1237.3 709.3 1241.1C706.6 1245 703 1247.9 698.3 1250C704.2 1252.1 709 1255.3 712.4 1259.8Z" fill="#212121"/>
<path d="M736.5 1200.2H760.5V1268L810.1 1200.2H832.7V1304.3H808.9V1236.6L759.3 1304.3H736.5V1200.2Z" fill="#212121"/>
<path d="M898.8 1262.4H882.2V1304.3H858.3V1200.2H882.2V1242.3H899.4L926.8 1200.2H952.2L918.2 1250.5L953.3 1304.3H925.9L898.8 1262.4Z" fill="#212121"/>
<path d="M1063.3 1224.7C1058.3 1216.5 1051.6 1210.1 1042.9 1205.5C1034.3 1200.8 1024.6 1198.5 1013.8 1198.5C1003 1198.5 993.3 1200.8 984.6 1205.5C975.9 1210.2 969.1 1216.6 964.2 1224.7C959.3 1232.9 956.9 1242.1 956.9 1252.3C956.9 1262.5 959.3 1271.7 964.2 1279.9C969.1 1288.1 975.9 1294.5 984.6 1299.2C993.3 1303.8 1003 1306.2 1013.8 1306.2C1024.6 1306.2 1034.3 1303.9 1042.9 1299.2C1051.5 1294.5 1058.3 1288.1 1063.3 1279.9C1068.2 1271.7 1070.7 1262.5 1070.7 1252.3C1070.7 1242 1068.2 1232.8 1063.3 1224.7ZM1042.1 1269.5C1039.3 1274.6 1035.4 1278.5 1030.4 1281.3C1025.4 1284.1 1019.9 1285.5 1013.7 1285.5C1007.6 1285.5 1002 1284.1 997.1 1281.3C992.1 1278.5 988.3 1274.5 985.4 1269.5C982.6 1264.5 981.2 1258.7 981.2 1252.3C981.2 1245.9 982.6 1240.1 985.4 1235C988.2 1230 992.1 1226 997.1 1223.2C1002.1 1220.4 1007.6 1219 1013.7 1219C1019.9 1219 1025.4 1220.4 1030.4 1223.2C1035.3 1226 1039.2 1230 1042.1 1235C1044.9 1240.1 1046.3 1245.8 1046.3 1252.3C1046.3 1258.7 1044.9 1264.4 1042.1 1269.5Z" fill="#212121"/>
<path d="M1128.2 1242.3H1086.1V1260.9H1128.2V1242.3Z" fill="#212121"/>
<path d="M71.6 1383.7C79.8 1388.3 86.2 1394.7 90.8 1402.9C95.5 1411.1 97.8 1420.3 97.8 1430.6C97.8 1440.9 95.5 1450.1 90.8 1458.3C86.1 1466.5 79.7 1472.9 71.6 1477.5C63.4 1482.1 54.2 1484.4 43.9 1484.4C34.7 1484.4 26.4 1482.8 19 1479.6C11.6 1476.4 5.4 1471.8 0.5 1465.8L15.8 1451.5C23.1 1459.7 32.1 1463.8 42.7 1463.8C50.3 1463.8 56.8 1461.6 62.1 1457.1C67.4 1452.6 70.8 1446.6 72.4 1439.1H30.2V1420.7H72.1C70.4 1413.6 66.9 1407.9 61.7 1403.6C56.4 1399.3 50.1 1397.2 42.7 1397.2C32.1 1397.2 23.1 1401.3 15.8 1409.5L0.5 1395.2C5.5 1389.2 11.6 1384.5 19 1381.4C26.4 1378.2 34.7 1376.6 43.9 1376.6C54.2 1376.8 63.5 1379.1 71.6 1383.7Z" fill="#212121"/>
<path d="M212.2 1378.6V1482.7H188.1V1440H140.8V1482.7H116.7V1378.6H140.8V1419.6H188.1V1378.6H212.2Z" fill="#212121"/>
<path d="M318.8 1463.3V1482.7H238.2V1378.6H316.8V1397.9H262.1V1420.5H310.4V1439.2H262.1V1463.3H318.8Z" fill="#212121"/>
<path d="M422.9 1396.3C419.2 1390.7 414 1386.3 407.2 1383.2C400.4 1380.1 392.4 1378.6 383.2 1378.6H338.2V1482.7H362.3V1454H383.3C392.5 1454 400.5 1452.5 407.3 1449.5C414.1 1446.5 419.3 1442.1 423 1436.4C426.7 1430.7 428.5 1424 428.5 1416.4C428.4 1408.6 426.6 1401.9 422.9 1396.3ZM398.4 1429.7C394.6 1432.8 389.1 1434.4 381.9 1434.4H362.3V1398.3H381.9C389.1 1398.3 394.6 1399.9 398.4 1403C402.2 1406.1 404 1410.6 404 1416.4C404.1 1422.1 402.2 1426.5 398.4 1429.7Z" fill="#212121"/>
<path d="M517.6 1398.2H468.1L468.3 1482.7H444.4V1378.6H517.8L517.6 1398.2Z" fill="#212121"/>
<path d="M613.1 1463.3V1482.7H532.5V1378.6H611.1V1397.9H556.4V1420.5H604.8V1439.2H556.4V1463.3H613.1Z" fill="#212121"/>
<path d="M712.1 1398.2H678.8V1482.7H655V1398.2H621.8V1378.6H712.1V1398.2Z" fill="#212121"/>
<path d="M727.2 1378.6H751.2V1446.4L800.8 1378.6H823.4V1482.7H799.6V1415L750 1482.7H727.2V1378.6Z" fill="#212121"/>
<path d="M931.8 1378.6V1482.7H908V1445.2C899 1448.5 890.6 1450.1 882.9 1450.1C868.9 1450.1 858.2 1446.8 850.8 1440.1C843.4 1433.4 839.6 1423.8 839.6 1411.2V1378.6H863.4V1408.5C863.4 1415.6 865.3 1421 869.1 1424.6C872.9 1428.2 878.4 1430 885.7 1430C893.6 1430 901.1 1428.5 908 1425.4V1378.6H931.8Z" fill="#212121"/>
<path d="M1038.2 1463.3V1482.7H957.6V1378.6H1036.3V1397.9H981.6V1420.5H1029.9V1439.2H981.6V1463.3H1038.2Z" fill="#212121"/>
<path d="M1077.8 1477.5C1069.2 1472.9 1062.5 1466.5 1057.6 1458.3C1052.7 1450.1 1050.2 1440.9 1050.2 1430.6C1050.2 1420.3 1052.7 1411.1 1057.6 1402.9C1062.5 1394.7 1069.2 1388.3 1077.8 1383.7C1086.4 1379.1 1096 1376.8 1106.7 1376.8C1115.7 1376.8 1123.9 1378.4 1131.2 1381.6C1138.5 1384.8 1144.6 1389.3 1149.6 1395.3L1134.1 1409.6C1127.1 1401.5 1118.3 1397.4 1107.9 1397.4C1101.5 1397.4 1095.7 1398.8 1090.7 1401.6C1085.6 1404.4 1081.7 1408.4 1078.9 1413.4C1076.1 1418.5 1074.7 1424.2 1074.7 1430.6C1074.7 1437 1076.1 1442.8 1078.9 1447.8C1081.7 1452.9 1085.7 1456.8 1090.7 1459.6C1095.8 1462.4 1101.5 1463.8 1107.9 1463.8C1118.3 1463.8 1127 1459.7 1134.1 1451.5L1149.6 1465.8C1144.6 1471.8 1138.5 1476.5 1131.2 1479.6C1123.9 1482.8 1115.7 1484.4 1106.7 1484.4C1096 1484.4 1086.4 1482.1 1077.8 1477.5Z" fill="#212121"/>
<path d="M1205.6 1440.7H1188.9V1482.7H1165V1378.6H1188.9V1420.7H1206.2L1233.5 1378.6H1258.9L1224.9 1428.8L1260 1482.7H1232.6L1205.6 1440.7Z" fill="#212121"/>
<path d="M1271.3 1378.6H1295.2V1446.4L1344.9 1378.6H1367.5V1482.7H1343.7V1415L1294 1482.7H1271.3V1378.6Z" fill="#212121"/>
<path d="M1453.7 1349.2C1453.6 1352.8 1452.5 1355.5 1450.4 1357.3C1448.3 1359.1 1445.3 1360.1 1441.3 1360.1C1433.3 1360.1 1429.2 1356.5 1429 1349.2H1412.5C1412.7 1364.4 1422.3 1371.9 1441.3 1371.9C1450.9 1371.9 1458.1 1370 1462.9 1366.1C1467.7 1362.2 1470.1 1356.6 1470.2 1349.1H1453.7V1349.2ZM1466.9 1378.6L1417.2 1446.4V1378.6H1393.3V1482.7H1416L1465.6 1415.1V1482.7H1489.4V1378.6H1466.9Z" fill="#212121"/>
<path d="M334.1 1557H358.1V1624.8L407.7 1557H430.3V1661H406.5V1593.4L356.9 1661H334.1V1557Z" fill="#212121"/>
<path d="M551.6 1557V1661H527.5V1618.4H480.3V1661H456.2V1557H480.3V1598H527.5V1557H551.6Z" fill="#212121"/>
<path d="M598.1 1655.9C589.5 1651.3 582.8 1644.9 577.9 1636.7C573 1628.5 570.5 1619.3 570.5 1609C570.5 1598.7 573 1589.5 577.9 1581.3C582.8 1573.1 589.5 1566.7 598.1 1562.1C606.7 1557.5 616.3 1555.2 627 1555.2C636 1555.2 644.2 1556.8 651.5 1560C658.8 1563.2 664.9 1567.7 669.9 1573.7L654.4 1588C647.4 1579.9 638.6 1575.8 628.2 1575.8C621.8 1575.8 616 1577.2 611 1580C605.9 1582.8 602 1586.8 599.2 1591.8C596.4 1596.9 595 1602.6 595 1609C595 1615.4 596.4 1621.2 599.2 1626.2C602 1631.3 606 1635.2 611 1638C616.1 1640.8 621.8 1642.2 628.2 1642.2C638.6 1642.2 647.3 1638.1 654.4 1629.9L669.9 1644.2C664.9 1650.2 658.8 1654.9 651.5 1658C644.2 1661.2 636 1662.8 627 1662.8C616.2 1662.8 606.6 1660.5 598.1 1655.9Z" fill="#212121"/>
<path d="M764 1576.6H730.7V1661H706.9V1576.6H673.8V1557H764V1576.6Z" fill="#212121"/>
<path d="M779.2 1557H803.1V1624.8L852.8 1557H875.4V1661H851.6V1593.4L801.9 1661H779.2V1557Z" fill="#212121"/>
<path d="M980.8 1576.6H947.5V1661H923.7V1576.6H890.5V1557H980.8V1576.6Z" fill="#212121"/>
<path d="M1085.4 1557L1041.1 1639.4C1036.8 1647.3 1031.7 1653.3 1025.7 1657.4C1019.7 1661.5 1013.2 1663.5 1006.2 1663.5C1000.7 1663.5 995.1 1662.3 989.3 1659.9L995.1 1641.6C999.3 1642.9 1002.7 1643.5 1005.5 1643.5C1008.5 1643.5 1011.2 1642.8 1013.5 1641.3C1015.9 1639.9 1018.1 1637.6 1020 1634.5L1020.9 1633.3L979.9 1556.9H1005.6L1033.3 1612.8L1061.8 1556.9H1085.4V1557Z" fill="#212121"/>
<path d="M1176.7 1576.6H1143.4V1661H1119.6V1576.6H1086.4V1557H1176.7V1576.6Z" fill="#212121"/>
<path d="M745.1 552.6C761.613 552.6 775 539.213 775 522.7C775 506.187 761.613 492.8 745.1 492.8C728.587 492.8 715.2 506.187 715.2 522.7C715.2 539.213 728.587 552.6 745.1 552.6Z" fill="#8F4899"/>
<path d="M810.5 570.2C806.7 596.9 799.6 623 789.4 648H788.9C783.2 662 774.5 674.6 763.4 684.9C728.8 711.6 701.1 663.6 687.2 633.7C732.6 622.2 774.8 600.5 810.5 570.2Z" fill="#8F4899"/>
<path d="M870.5 517C848 494 822.1 474.7 793.7 459.8C780.8 453 767.4 447 753.6 442.2C772.3 435 791.6 429.2 811.2 425.1C833.4 420.8 858.6 417.4 880.8 427.6C914.9 446.4 888.5 491.4 870.5 517Z" fill="#8F4899"/>
<path d="M671.3 556.6C648.6 538.5 627.8 518 611.2 494.5C598.4 475 584.2 445.3 606.4 427.7C626.4 414.3 653.6 415.3 677.6 417.4C665.4 461.5 663.2 511.5 671.3 556.6Z" fill="#8F4899"/>
<path d="M802.9 412.3C757.4 423.8 715.1 445.6 679.3 476C683.4 447.3 691.6 419.3 703.6 392.9C712.7 372.4 731.9 344.8 757.6 355.5L758.3 355.8C779.9 366.3 792.6 390.5 802.9 412.3Z" fill="#8F4899"/>
<path d="M812.4 628.1C825.1 583.1 827.4 535.7 819.1 489.7C847.4 510.8 870.9 537.5 888.3 568.1C916.1 626.6 855.3 632.1 812.4 628.1Z" fill="#8F4899"/>
<path d="M736.4 603.6C717.7 610.9 698.5 616.6 678.9 620.8C657.4 626.3 634.9 626 613.6 620.1C573.5 603.4 600.9 555.4 619.9 528.6C652.5 562.2 692.3 587.8 736.4 603.6Z" fill="#8F4899"/>
</svg>
