<svg width="36" height="36" viewBox="0 0 36 36" fill="none" xmlns="http://www.w3.org/2000/svg">
<path d="M30.2606 17.4323C30.2629 17.4323 30.2645 17.4323 30.2668 17.4323C30.423 17.4323 30.572 17.3668 30.6778 17.252C30.7853 17.1355 30.8385 16.9792 30.8245 16.8213C30.2623 10.6372 25.3662 5.73948 19.1816 5.17612C19.0248 5.1638 18.8669 5.21476 18.7504 5.32284C18.6339 5.43036 18.5689 5.58212 18.5706 5.7406C18.6681 13.9592 19.7522 17.3175 30.2606 17.4323ZM30.2606 18.568C19.7522 18.6828 18.6686 22.0411 18.5712 30.2596C18.5695 30.4181 18.6345 30.5699 18.7509 30.6774C18.8551 30.7732 18.9912 30.8264 19.1312 30.8264C19.148 30.8264 19.1653 30.8258 19.1821 30.8241C25.3668 30.2608 30.2629 25.3636 30.8245 19.1789C30.8385 19.021 30.7859 18.8648 30.6778 18.7483C30.5697 18.6318 30.4191 18.5741 30.2606 18.568ZM16.7809 5.17892C10.6158 5.75852 5.73542 10.6552 5.17598 16.8224C5.16198 16.9804 5.21462 17.1366 5.3227 17.2531C5.42854 17.3679 5.57806 17.4328 5.73374 17.4328C5.73598 17.4328 5.73822 17.4328 5.74046 17.4328C16.2141 17.3124 17.2955 13.9558 17.3941 5.74284C17.3957 5.58436 17.3302 5.43204 17.2137 5.32452C17.0961 5.217 16.9388 5.16436 16.7809 5.17892ZM5.7399 18.5674C5.56574 18.5478 5.4291 18.6307 5.32214 18.7472C5.21462 18.8636 5.16142 19.0199 5.17542 19.1778C5.73486 25.3451 10.6158 30.2417 16.7809 30.8213C16.7982 30.823 16.8161 30.8236 16.8335 30.8236C16.9735 30.8236 17.109 30.7709 17.2132 30.6752C17.3297 30.5676 17.3952 30.4153 17.3935 30.2568C17.2949 22.0444 16.2141 18.6878 5.7399 18.5674Z" fill="white" fill-opacity="0.37"/>
</svg>
