<svg width="36" height="36" viewBox="0 0 36 36" fill="none" xmlns="http://www.w3.org/2000/svg">
<path fill-rule="evenodd" clip-rule="evenodd" d="M4 9.07107C4 8.47953 4.4701 8 5.05001 8H24.0014C25.2394 8 26.2875 8.13231 27.1615 8.38465C27.174 8.38825 27.1864 8.39208 27.1987 8.39614C28.0978 8.69275 28.8618 9.14532 29.5434 9.7826C29.5581 9.79639 29.5725 9.81061 29.5864 9.82523C30.2275 10.4973 30.6981 11.2658 30.9729 12.1591C31.2357 13.0138 31.3684 14.0674 31.3684 15.3254V16.889C31.3684 18.9712 31.0151 20.7582 30.1139 21.9751L30.1138 21.9752C29.5052 22.7968 28.6676 23.3751 27.6612 23.7513L31.7856 29.2803C32.0272 29.6043 32.068 30.0399 31.8908 30.4046C31.7136 30.7693 31.349 31 30.95 31H25.0437C24.6994 31 24.3769 30.8278 24.1808 30.5391L19.8823 24.2142H11.3747V29.9289C11.3747 30.5205 10.9046 31 10.3247 31H5.05001C4.4701 31 4 30.5205 4 29.9289V9.07107ZM6.10001 10.1421V28.8579H9.27471V23.1432C9.27471 22.5516 9.74481 22.0721 10.3247 22.0721H20.4321C20.7764 22.0721 21.0988 22.2443 21.295 22.5329L25.5934 28.8579H28.8316L25.0292 23.7605C24.8051 23.4601 24.7526 23.0616 24.8909 22.7115C25.0293 22.3614 25.3381 22.1114 25.7037 22.0535C27.119 21.8294 27.9625 21.326 28.4383 20.6838C28.9266 20.0246 29.2684 18.8094 29.2684 16.889V15.3254C29.2684 14.2067 29.1487 13.3842 28.9692 12.8004C28.8042 12.2641 28.5233 11.7884 28.1022 11.3411C27.6572 10.9304 27.1696 10.6405 26.5709 10.4404C25.9311 10.2582 25.0897 10.1421 24.0014 10.1421H6.10001ZM9.27471 13.6679C9.27471 13.0764 9.74481 12.5969 10.3247 12.5969H23.1486C23.5653 12.5969 23.9568 12.6322 24.3048 12.7142C24.6406 12.7934 25.0097 12.933 25.3126 13.1954C25.8963 13.701 26.0937 14.4794 26.0937 15.2315V16.9827C26.0937 17.7547 25.9019 18.5395 25.3126 19.0499C24.9917 19.3277 24.6026 19.455 24.2747 19.522C23.9406 19.5903 23.5671 19.6159 23.1776 19.6171C23.168 19.6174 23.1583 19.6176 23.1486 19.6176H10.3247C9.74481 19.6176 9.27471 19.138 9.27471 18.5465V13.6679ZM23.1212 17.4754C23.1303 17.4752 23.1395 17.4751 23.1486 17.4751C23.4752 17.4751 23.7072 17.4533 23.8622 17.4216C23.8962 17.4147 23.923 17.4079 23.9436 17.4021C23.9659 17.3349 23.9937 17.2031 23.9937 16.9827V15.2315C23.9937 15.0271 23.966 14.9034 23.9442 14.8409C23.9432 14.8381 23.9423 14.8355 23.9413 14.8331C23.9177 14.8245 23.8822 14.8132 23.832 14.8014C23.6826 14.7661 23.4581 14.739 23.1486 14.739H11.3747V17.4754H23.1212ZM23.9267 14.8001C23.9264 14.7996 23.9262 14.7994 23.9262 14.7994C23.9262 14.7994 23.9264 14.7996 23.9267 14.8001ZM23.9246 17.448C23.9246 17.448 23.9247 17.4478 23.925 17.4474C23.9247 17.4478 23.9246 17.448 23.9246 17.448Z" fill="white" fill-opacity="0.37"/>
<path d="M30.0004 9C31.1044 9 32 8.1046 32 7C32 5.8954 31.1044 5 30.0004 5C28.8956 5 28 5.8954 28 7C28 8.1046 28.8956 9 30.0004 9Z" fill="white" fill-opacity="0.37"/>
</svg>
