<svg width="36" height="36" viewBox="0 0 36 36" fill="none" xmlns="http://www.w3.org/2000/svg">
<path d="M29.9872 11.1718C28.4247 11.1718 26.9831 10.6542 25.8255 9.78097C24.4978 8.77998 23.5438 7.31165 23.207 5.61927C23.1225 5.19373 23.0781 4.76122 23.0744 4.32739H18.6111V16.5232L18.6057 23.2034C18.6057 24.9894 17.4427 26.5037 15.8305 27.0363C15.3476 27.1959 14.839 27.2634 14.3312 27.2352C13.6596 27.1983 13.0302 26.9956 12.4832 26.6684C11.3191 25.9722 10.5299 24.7092 10.5085 23.2644C10.4748 21.0063 12.3003 19.1652 14.5569 19.1652C15.0023 19.1652 15.43 19.238 15.8305 19.37V14.8383C15.4081 14.7758 14.9782 14.7431 14.5435 14.7431C12.0736 14.7431 9.76365 15.7698 8.11245 17.6194C6.86442 19.0171 6.11582 20.8004 6.00032 22.6703C5.84899 25.1268 6.74785 27.4619 8.49103 29.1848C8.74716 29.4377 9.01612 29.6724 9.29738 29.889C10.7919 31.0392 12.619 31.6626 14.5435 31.6626C14.9782 31.6626 15.4081 31.6306 15.8305 31.568C17.6283 31.3017 19.287 30.4788 20.5959 29.1848C22.2044 27.595 23.0931 25.4845 23.1027 23.2382L23.0797 13.2625C23.8488 13.8558 24.6914 14.3471 25.5864 14.7244C26.9869 15.3153 28.4718 15.6147 30 15.6142V11.1707C30.0011 11.1718 29.9882 11.1718 29.9872 11.1718Z" fill="white"/>
</svg>
