<svg width="36" height="36" viewBox="0 0 36 36" fill="none" xmlns="http://www.w3.org/2000/svg">
<path d="M32.3819 10.4425C32.0362 9.09635 31.0229 8.03524 29.7378 7.67276C27.3902 7 17.9997 7 17.9997 7C17.9997 7 8.60945 7 6.26185 7.64728C5.00152 8.00936 3.96352 9.09659 3.61781 10.4425C3 12.9011 3 18 3 18C3 18 3 23.1246 3.61781 25.5575C3.96385 26.9035 4.97682 27.9646 6.26204 28.327C8.63415 29 18 29 18 29C18 29 27.3902 29 29.7378 28.3527C31.0231 27.9904 32.0362 26.9293 32.3822 25.5834C32.9999 23.1246 32.9999 18.0259 32.9999 18.0259C32.9999 18.0259 33.0246 12.901 32.3819 10.4425ZM15.0099 22.7106V13.2894L22.8186 18L15.0099 22.7106Z" fill="white"/>
</svg>
