<svg aria-hidden="true" style="position: absolute; width: 0; height: 0; overflow: hidden;" version="1.1" xmlns="http://www.w3.org/2000/svg">
    <defs>
        <symbol id="right" viewBox="0 0 490.8 490.8">
            <path d="M135.685 3.128c-4.237-4.093-10.99-3.975-15.083.262-3.992 4.134-3.992 10.687 0 14.82l227.115 227.136-227.136 227.115c-4.237 4.093-4.354 10.845-.262 15.083 4.093 4.237 10.845 4.354 15.083.262.089-.086.176-.173.262-.262l234.667-234.667c4.164-4.165 4.164-10.917 0-15.083L135.685 3.128z" fill="currentColor"/>
        </symbol>
        <symbol id="left" viewBox="0 0 490.8 490.8">
            <path d="M370.454 508.737C374.874 513.007 381.919 512.884 386.189 508.464C390.353 504.151 390.353 497.315 386.189 493.003L149.263 256.056L386.211 19.1312C390.631 14.8614 390.753 7.81771 386.484 3.39665C382.214 -1.02337 375.17 -1.14542 370.749 3.12333C370.657 3.21305 370.566 3.3038 370.476 3.39664L125.673 248.2C121.329 252.545 121.329 259.589 125.673 263.935L370.454 508.737Z" fill="currentColor"/>
        </symbol>
        <symbol id="bottom" viewBox="0 0 12 12">
            <path d="M-1.91877e-06 3.14204C-9.25156e-05 3.0904 0.0151548 3.03988 0.0438061 2.99691C0.0724583 2.95394 0.113224 2.92044 0.160936 2.90066C0.208649 2.88088 0.261159 2.87572 0.31181 2.88582C0.362462 2.89592 0.408974 2.92083 0.44545 2.9574L5.99838 8.51085L11.5513 2.9574C11.6533 2.85542 11.8186 2.85542 11.9206 2.9574C12.0226 3.05938 12.0226 3.22471 11.9206 3.32669L6.18301 9.06427C6.08117 9.16608 5.91609 9.16608 5.81423 9.06427L0.0766725 3.32669C0.052371 3.30247 0.0330896 3.27369 0.0199318 3.24201C0.00677393 3.21032 -1.29198e-08 3.17635 -1.91877e-06 3.14204Z" fill="currentColor"/>
        </symbol>
    </defs>
</svg>
