<svg aria-hidden="true" style="position: absolute; width: 0; height: 0; overflow: hidden;" version="1.1" xmlns="http://www.w3.org/2000/svg">
    <defs>
        <symbol id="right" viewBox="0 0 490.8 490.8">
            <path d="M135.685 3.128c-4.237-4.093-10.99-3.975-15.083.262-3.992 4.134-3.992 10.687 0 14.82l227.115 227.136-227.136 227.115c-4.237 4.093-4.354 10.845-.262 15.083 4.093 4.237 10.845 4.354 15.083.262.089-.086.176-.173.262-.262l234.667-234.667c4.164-4.165 4.164-10.917 0-15.083L135.685 3.128z" fill="currentColor"/>
        </symbol>
        <symbol id="left" viewBox="0 0 490.8 490.8">
            <path d="M370.454 508.737C374.874 513.007 381.919 512.884 386.189 508.464C390.353 504.151 390.353 497.315 386.189 493.003L149.263 256.056L386.211 19.1312C390.631 14.8614 390.753 7.81771 386.484 3.39665C382.214 -1.02337 375.17 -1.14542 370.749 3.12333C370.657 3.21305 370.566 3.3038 370.476 3.39664L125.673 248.2C121.329 252.545 121.329 259.589 125.673 263.935L370.454 508.737Z" fill="currentColor"/>
        </symbol>

    </defs>
</svg>
