<svg aria-hidden="true" style="position: absolute; width: 0; height: 0; overflow: hidden;" version="1.1" xmlns="http://www.w3.org/2000/svg">
    <defs>
        <symbol id="search" viewBox="0 0 24 24">
            <path fill-rule="evenodd" clip-rule="evenodd" d="M14.5 4.5C11.1863 4.5 8.50005 7.18629 8.50005 10.5C8.50005 10.7761 8.27619 11 8.00005 11C7.7239 11 7.50005 10.7761 7.50005 10.5C7.50005 6.63401 10.6341 3.5 14.5 3.5C18.366 3.5 21.5 6.63401 21.5 10.5C21.5 14.366 18.366 17.5 14.5 17.5C12.7668 17.5 11.18 16.8695 9.95766 15.8262L3.28319 20.4121C3.0556 20.5685 2.74432 20.5107 2.58795 20.2831C2.43157 20.0555 2.4893 19.7443 2.7169 19.5879L9.7169 14.7783C9.91232 14.6441 10.1752 14.6655 10.3462 14.8297C11.4248 15.8647 12.8877 16.5 14.5 16.5C17.8138 16.5 20.5 13.8137 20.5 10.5C20.5 7.18629 17.8138 4.5 14.5 4.5Z" fill="currentColor"/>
        </symbol>
        <symbol id="profile" viewBox="0 0 24 24">
            <path fill-rule="evenodd" clip-rule="evenodd" d="M16.0724 4.02447C15.1063 3.04182 13.7429 2.5 12.152 2.5C10.5611 2.5 9.19773 3.04182 8.23167 4.02447C7.26636 5.00636 6.73644 6.38891 6.73644 8C6.73644 10.169 7.68081 11.567 8.8496 12.4062C9.07675 12.5692 9.3115 12.7107 9.54832 12.8327C8.24215 13.1916 7.18158 13.8173 6.31809 14.5934C4.95272 15.8205 4.10647 17.3993 3.53633 18.813C3.43305 19.0691 3.55693 19.3604 3.81304 19.4637C4.06914 19.567 4.36047 19.4431 4.46375 19.187C5.00642 17.8414 5.78146 16.4202 6.98653 15.3371C8.1795 14.265 9.82009 13.5 12.152 13.5C14.332 13.5 15.9058 14.1685 17.074 15.1279C18.252 16.0953 19.0453 17.3816 19.6137 18.6532C19.9929 19.5016 19.3274 20.5 18.2827 20.5H6.74488C6.46874 20.5 6.24488 20.7239 6.24488 21C6.24488 21.2761 6.46874 21.5 6.74488 21.5H18.2827C19.9348 21.5 21.2479 19.8588 20.5267 18.2452C19.9232 16.8952 19.0504 15.4569 17.7087 14.3551C16.9123 13.7011 15.9603 13.1737 14.8203 12.8507C15.43 12.5136 15.9312 12.0662 16.33 11.5591C17.1929 10.462 17.5676 9.10016 17.5676 8C17.5676 6.38891 17.0377 5.00636 16.0724 4.02447ZM15.3593 4.72553C16.1144 5.49364 16.5676 6.61109 16.5676 8C16.5676 8.89984 16.2541 10.038 15.544 10.9409C14.8475 11.8265 13.7607 12.5 12.152 12.5C11.5014 12.5 10.3789 12.2731 9.43284 11.5938C8.51251 10.933 7.73644 9.83102 7.73644 8C7.73644 6.61109 8.18963 5.49364 8.94477 4.72553C9.69916 3.95818 10.7935 3.5 12.152 3.5C13.5105 3.5 14.6049 3.95818 15.3593 4.72553Z" fill="currentColor"/>
        </symbol>
        <symbol id="envelope" viewBox="0 0 512 512">
            <path d="M469.333 64H42.667C19.135 64 0 83.135 0 106.667v298.667C0 428.865 19.135 448 42.667 448h426.667C492.865 448 512 428.865 512 405.333V106.667C512 83.135 492.865 64 469.333 64zM42.667 85.333h426.667c1.572 0 2.957.573 4.432.897-36.939 33.807-159.423 145.859-202.286 184.478-3.354 3.021-8.76 6.625-15.479 6.625s-12.125-3.604-15.49-6.635C197.652 232.085 75.161 120.027 38.228 86.232c1.478-.324 2.866-.899 4.439-.899zm-21.334 320V106.667c0-2.09.63-3.986 1.194-5.896 28.272 25.876 113.736 104.06 169.152 154.453C136.443 302.671 50.957 383.719 22.46 410.893c-.503-1.814-1.127-3.588-1.127-5.56zm448 21.334H42.667c-1.704 0-3.219-.594-4.81-.974 29.447-28.072 115.477-109.586 169.742-156.009a7980.773 7980.773 0 0 0 18.63 16.858c8.792 7.938 19.083 12.125 29.771 12.125s20.979-4.188 29.76-12.115a8178.815 8178.815 0 0 0 18.641-16.868c54.268 46.418 140.286 127.926 169.742 156.009-1.591.38-3.104.974-4.81.974zm21.334-21.334c0 1.971-.624 3.746-1.126 5.56-28.508-27.188-113.984-108.227-169.219-155.668 55.418-50.393 140.869-128.57 169.151-154.456.564 1.91 1.194 3.807 1.194 5.897v298.667z" fill="currentColor"/>
        </symbol>
        <symbol id="calendar" viewBox="0 0 122.88 122.88">
            <path d="M81.61,4.73c0-2.61,2.58-4.73,5.77-4.73c3.19,0,5.77,2.12,5.77,4.73v20.72c0,2.61-2.58,4.73-5.77,4.73 c-3.19,0-5.77-2.12-5.77-4.73V4.73L81.61,4.73z M66.11,103.81c-0.34,0-0.61-1.43-0.61-3.2c0-1.77,0.27-3.2,0.61-3.2H81.9 c0.34,0,0.61,1.43,0.61,3.2c0,1.77-0.27,3.2-0.61,3.2H66.11L66.11,103.81z M15.85,67.09c-0.34,0-0.61-1.43-0.61-3.2 c0-1.77,0.27-3.2,0.61-3.2h15.79c0.34,0,0.61,1.43,0.61,3.2c0,1.77-0.27,3.2-0.61,3.2H15.85L15.85,67.09z M40.98,67.09 c-0.34,0-0.61-1.43-0.61-3.2c0-1.77,0.27-3.2,0.61-3.2h15.79c0.34,0,0.61,1.43,0.61,3.2c0,1.77-0.27,3.2-0.61,3.2H40.98 L40.98,67.09z M66.11,67.09c-0.34,0-0.61-1.43-0.61-3.2c0-1.77,0.27-3.2,0.61-3.2H81.9c0.34,0,0.61,1.43,0.61,3.2 c0,1.77-0.27,3.2-0.61,3.2H66.11L66.11,67.09z M91.25,67.09c-0.34,0-0.61-1.43-0.61-3.2c0-1.77,0.27-3.2,0.61-3.2h15.79 c0.34,0,0.61,1.43,0.61,3.2c0,1.77-0.27,3.2-0.61,3.2H91.25L91.25,67.09z M15.85,85.45c-0.34,0-0.61-1.43-0.61-3.2 c0-1.77,0.27-3.2,0.61-3.2h15.79c0.34,0,0.61,1.43,0.61,3.2c0,1.77-0.27,3.2-0.61,3.2H15.85L15.85,85.45z M40.98,85.45 c-0.34,0-0.61-1.43-0.61-3.2c0-1.77,0.27-3.2,0.61-3.2h15.79c0.34,0,0.61,1.43,0.61,3.2c0,1.77-0.27,3.2-0.61,3.2H40.98 L40.98,85.45z M66.11,85.45c-0.34,0-0.61-1.43-0.61-3.2c0-1.77,0.27-3.2,0.61-3.2H81.9c0.34,0,0.61,1.43,0.61,3.2 c0,1.77-0.27,3.2-0.61,3.2H66.11L66.11,85.45z M91.25,85.45c-0.34,0-0.61-1.43-0.61-3.2c0-1.77,0.27-3.2,0.61-3.2h15.79 c0.34,0,0.61,1.43,0.61,3.2c0,1.77-0.27,3.2-0.61,3.2H91.25L91.25,85.45z M15.85,103.81c-0.34,0-0.61-1.43-0.61-3.2 c0-1.77,0.27-3.2,0.61-3.2h15.79c0.34,0,0.61,1.43,0.61,3.2c0,1.77-0.27,3.2-0.61,3.2H15.85L15.85,103.81z M40.98,103.81 c-0.34,0-0.61-1.43-0.61-3.2c0-1.77,0.27-3.2,0.61-3.2h15.79c0.34,0,0.61,1.43,0.61,3.2c0,1.77-0.27,3.2-0.61,3.2H40.98 L40.98,103.81z M29.61,4.73c0-2.61,2.58-4.73,5.77-4.73s5.77,2.12,5.77,4.73v20.72c0,2.61-2.58,4.73-5.77,4.73 s-5.77-2.12-5.77-4.73V4.73L29.61,4.73z M6.4,45.32h110.07V21.47c0-0.8-0.33-1.53-0.86-2.07c-0.53-0.53-1.26-0.86-2.07-0.86H103 c-1.77,0-3.2-1.43-3.2-3.2c0-1.77,1.43-3.2,3.2-3.2h10.55c2.57,0,4.9,1.05,6.59,2.74c1.69,1.69,2.74,4.02,2.74,6.59v27.06v65.03 c0,2.57-1.05,4.9-2.74,6.59c-1.69,1.69-4.02,2.74-6.59,2.74H9.33c-2.57,0-4.9-1.05-6.59-2.74C1.05,118.45,0,116.12,0,113.55V48.52 V21.47c0-2.57,1.05-4.9,2.74-6.59c1.69-1.69,4.02-2.74,6.59-2.74H20.6c1.77,0,3.2,1.43,3.2,3.2c0,1.77-1.43,3.2-3.2,3.2H9.33 c-0.8,0-1.53,0.33-2.07,0.86c-0.53,0.53-0.86,1.26-0.86,2.07V45.32L6.4,45.32z M116.48,51.73H6.4v61.82c0,0.8,0.33,1.53,0.86,2.07 c0.53,0.53,1.26,0.86,2.07,0.86h104.22c0.8,0,1.53-0.33,2.07-0.86c0.53-0.53,0.86-1.26,0.86-2.07V51.73L116.48,51.73z M50.43,18.54 c-1.77,0-3.2-1.43-3.2-3.2c0-1.77,1.43-3.2,3.2-3.2h21.49c1.77,0,3.2,1.43,3.2,3.2c0,1.77-1.43,3.2-3.2,3.2H50.43L50.43,18.54z" fill="currentColor"/>
        </symbol>
        <symbol id="eye" viewBox="0 0 512 512">
            <path d="M510.484 251.474C447.574 168.069 354.819 120.235 256 120.235S64.425 168.07 1.515 251.474a7.517 7.517 0 0 0 0 9.051C64.425 343.93 157.181 391.765 256 391.765s191.574-47.834 254.484-131.239a7.515 7.515 0 0 0 0-9.052zM256 376.736c-92.263 0-179.064-43.928-239.014-120.736C76.936 179.192 163.737 135.264 256 135.264c92.262 0 179.063 43.928 239.014 120.736C435.063 332.808 348.262 376.736 256 376.736z" fill="currentColor"/>
            <path d="M345.357 176.3a7.515 7.515 0 0 0-11.214 10.008c17.128 19.19 26.562 43.942 26.562 69.692 0 57.734-46.971 104.704-104.705 104.704-57.735 0-104.705-46.971-104.705-104.704S198.265 151.295 256 151.295c16.904 0 33.036 3.902 47.945 11.596a7.515 7.515 0 0 0 6.892-13.356c-16.821-8.681-35.783-13.269-54.836-13.269-66.022 0-119.734 53.712-119.734 119.734S189.978 375.734 256 375.734 375.734 322.021 375.734 256c0-29.448-10.789-57.752-30.377-79.7z" fill="currentColor"/>
            <path d="M256 208.407c-26.242 0-47.593 21.35-47.593 47.593 0 26.242 21.351 47.593 47.593 47.593s47.593-21.351 47.593-47.593-21.351-47.593-47.593-47.593zm0 80.156c-17.955 0-32.564-14.608-32.564-32.564s14.609-32.564 32.564-32.564c17.956 0 32.564 14.608 32.564 32.564S273.956 288.563 256 288.563z" fill="currentColor"/>
        </symbol>
        <symbol id="close" viewBox="0 0 36 36">
            <line x1="4.35355" y1="3.64645" x2="32.6378" y2="31.9307" stroke="currentColor"/>
            <line x1="3.64657" y1="31.9307" x2="31.9308" y2="3.64644" stroke="currentColor"/>
        </symbol>
        <symbol id="phone" viewBox="0 0 12 12">
            <path d="M2.44502 7.97679C3.62861 9.39163 5.05339 10.5056 6.67959 11.2938C7.29873 11.5872 8.12675 11.9353 9.04925 11.995C9.10644 11.9975 9.16114 12 9.21833 12C9.83748 12 10.3348 11.7862 10.7401 11.346C10.7426 11.3436 10.7476 11.3386 10.75 11.3336C10.8943 11.1596 11.0584 11.0029 11.2299 10.8363C11.3468 10.7244 11.4662 10.6075 11.5805 10.4882C12.1102 9.93618 12.1102 9.23498 11.5756 8.70037L10.0812 7.20597C9.82753 6.94239 9.52418 6.80315 9.2059 6.80315C8.88763 6.80315 8.58178 6.9424 8.3207 7.20348L7.43052 8.09366C7.34846 8.04642 7.26392 8.00414 7.18435 7.96436C7.08489 7.91463 6.99289 7.86738 6.91083 7.81517C6.10022 7.30046 5.36421 6.62909 4.66052 5.76627C4.30495 5.3162 4.06624 4.93825 3.89964 4.55284C4.13338 4.34148 4.35219 4.12018 4.56355 3.90385C4.63814 3.82677 4.71523 3.74969 4.79231 3.67261C5.06085 3.40406 5.20507 3.09324 5.20507 2.77746C5.20507 2.46167 5.06334 2.15085 4.79231 1.8823L4.05132 1.14132C3.96429 1.05429 3.88224 0.969747 3.7977 0.882719C3.63359 0.713634 3.46201 0.539577 3.29293 0.382926C3.03682 0.131786 2.73595 0 2.41767 0C2.10188 0 1.79853 0.131786 1.53247 0.385412L0.602504 1.31538C0.264336 1.65354 0.0728727 2.06382 0.0330882 2.53875C-0.0141559 3.13303 0.0952515 3.76461 0.378716 4.52797C0.813859 5.70908 1.4703 6.80564 2.44502 7.97679ZM0.639802 2.59097C0.66964 2.26026 0.796453 1.98425 1.03516 1.74554L1.96015 0.820555C2.10437 0.68131 2.26351 0.6092 2.41767 0.6092C2.56935 0.6092 2.72352 0.68131 2.86525 0.825528C3.03184 0.979693 3.1885 1.14132 3.35758 1.31289C3.44212 1.39992 3.52915 1.48695 3.61618 1.57646L4.35717 2.31745C4.51133 2.47161 4.5909 2.62826 4.5909 2.78243C4.5909 2.93659 4.51133 3.09325 4.35717 3.24741C4.28008 3.32449 4.203 3.40406 4.12592 3.48114C3.89467 3.71488 3.67834 3.93618 3.43964 4.14753L3.4272 4.15997C3.22082 4.36635 3.25315 4.56278 3.30288 4.71198C3.30536 4.71944 3.30785 4.72441 3.31034 4.73187C3.5018 5.19188 3.76786 5.62951 4.18311 6.15168C4.92907 7.07169 5.71481 7.78533 6.58012 8.33485C6.68705 8.40448 6.80143 8.45918 6.90835 8.51388C7.00781 8.56361 7.09981 8.61086 7.18186 8.66307C7.19181 8.66805 7.19927 8.67302 7.20922 8.67799C7.29127 8.72027 7.37084 8.74016 7.45041 8.74016C7.64933 8.74016 7.77863 8.61334 7.8209 8.57107L8.75087 7.64111C8.89509 7.49689 9.05174 7.41981 9.2059 7.41981C9.39488 7.41981 9.54904 7.53668 9.64602 7.64111L11.1454 9.138C11.4438 9.43639 11.4413 9.75964 11.1379 10.0754C11.0335 10.1873 10.9241 10.2942 10.8072 10.4061C10.6332 10.5752 10.4517 10.7493 10.2875 10.9457C10.0016 11.254 9.66094 11.3983 9.22082 11.3983C9.17855 11.3983 9.13379 11.3958 9.09152 11.3933C8.27594 11.3411 7.51755 11.0228 6.94813 10.7518C5.40151 10.0033 4.04386 8.94157 2.91746 7.59387C1.98999 6.47741 1.36587 5.43804 0.953105 4.32408C0.696992 3.64028 0.600017 3.09076 0.639802 2.59097Z" fill="currentColor"/>
        </symbol>
        <symbol id="whatsapp" viewBox="0 0 12 12">
            <path d="M6 0C2.69146 0 0 2.69146 0 6C0 7.12869 0.313615 8.22439 0.908538 9.17585C0.671538 10.0062 0.243462 11.5768 0.238846 11.5932C0.227924 11.633 0.227946 11.6751 0.238911 11.7149C0.249876 11.7547 0.271378 11.7909 0.301154 11.8195C0.361846 11.8779 0.449538 11.8987 0.529385 11.8742L2.90769 11.1427C3.84121 11.7046 4.91041 12.001 6 12C9.30854 12 12 9.30854 12 6C12 2.69146 9.30854 0 6 0ZM6 11.5385C4.96095 11.5395 3.94267 11.2475 3.06208 10.6959C3.03399 10.6783 3.00245 10.667 2.9696 10.6627C2.93675 10.6584 2.90336 10.6612 2.87169 10.671L0.795 11.3102C0.986873 10.607 1.18211 9.90468 1.38069 9.20331C1.39915 9.13915 1.38877 9.06992 1.35254 9.01385C0.769625 8.11686 0.460063 7.06975 0.461538 6C0.461538 2.94623 2.94623 0.461538 6 0.461538C9.05377 0.461538 11.5385 2.94623 11.5385 6C11.5385 9.05377 9.05377 11.5385 6 11.5385Z" fill="currentColor"/>
            <path d="M9.91965 7.41369C9.49365 7.17715 9.13088 6.93992 8.86618 6.76684C8.66403 6.63484 8.51795 6.53954 8.41088 6.48577C8.11157 6.33646 7.88472 6.44192 7.79841 6.52915C7.78767 6.53987 7.77801 6.55162 7.76957 6.56423C7.45872 7.03061 7.0528 7.47669 6.93395 7.50069C6.79665 7.47923 6.15395 7.11392 5.51518 6.582C4.86303 6.03854 4.45272 5.51815 4.39249 5.16369C4.81088 4.73307 4.96157 4.46215 4.96157 4.15384C4.96157 3.83607 4.22034 2.50938 4.08626 2.3753C3.95172 2.241 3.64872 2.22 3.18557 2.3123C3.14095 2.32134 3.09996 2.34324 3.06765 2.3753C3.01157 2.43138 1.69941 3.76915 2.32295 5.39054C3.00741 7.17 4.76426 9.23838 7.00411 9.57438C7.25865 9.61246 7.49726 9.63138 7.72065 9.63138C9.03834 9.63138 9.81603 8.96838 10.035 7.65323C10.043 7.60627 10.0362 7.55799 10.0155 7.51508C9.99482 7.47217 9.96133 7.43674 9.91965 7.41369ZM7.07265 9.11792C4.70403 8.76277 3.21211 6.41607 2.7538 5.22484C2.29918 4.04331 3.13757 2.98984 3.34803 2.75169C3.51926 2.72261 3.69949 2.71038 3.77472 2.72215C3.93188 2.94069 4.47603 3.96877 4.50003 4.15384C4.50003 4.275 4.46057 4.44369 3.99072 4.91377C3.96925 4.93516 3.95222 4.96059 3.94062 4.98859C3.92901 5.01659 3.92306 5.04661 3.92311 5.07692C3.92311 6.28523 6.47172 7.96154 6.92311 7.96154C7.31565 7.96154 7.82749 7.30177 8.11895 6.87184C8.14903 6.87476 8.17818 6.88388 8.20457 6.89861C8.28765 6.94038 8.43165 7.03431 8.61372 7.15338C8.85418 7.31054 9.17357 7.51915 9.55065 7.73538C9.37941 8.55923 8.9008 9.39254 7.07265 9.11792Z" fill="currentColor"/>
        </symbol>
        <symbol id="home_phone" viewBox="0 0 12 12">
            <path d="M9 3.88235C9 3.78874 9.03718 3.69897 9.10337 3.63278C9.16956 3.56659 9.25934 3.52941 9.35294 3.52941C9.44655 3.52941 9.53632 3.56659 9.60251 3.63278C9.6687 3.69897 9.70588 3.78874 9.70588 3.88235V5.10723C9.70589 5.26422 9.75824 5.41673 9.85465 5.54064L10.6438 6.55535C10.8366 6.80323 10.9412 7.10832 10.9412 7.42235V9.27246C10.9412 9.42309 10.893 9.56977 10.8037 9.69106C10.7144 9.81235 10.5886 9.90188 10.4448 9.94658C9.06759 10.3745 7.58576 10.5882 6 10.5882C4.39659 10.5882 2.89835 10.3165 1.50741 9.77223C1.37521 9.72048 1.26168 9.63007 1.18165 9.5128C1.10162 9.39553 1.05882 9.25685 1.05882 9.11488V7.42217C1.0588 7.1082 1.16343 6.80318 1.35618 6.55535L2.14535 5.54064C2.24176 5.41673 2.29411 5.26422 2.29412 5.10723V3.88235C2.29412 3.78874 2.3313 3.69897 2.39749 3.63278C2.46368 3.56659 2.55345 3.52941 2.64706 3.52941C2.74066 3.52941 2.83044 3.56659 2.89663 3.63278C2.96282 3.69897 3 3.78874 3 3.88235V5.10723C3.00003 5.4212 2.8954 5.72622 2.70265 5.97405L1.91347 6.98876C1.81707 7.11267 1.76472 7.26518 1.76471 7.42217V9.11488C3.072 9.62629 4.48306 9.88235 6 9.88235C7.51641 9.88235 8.92765 9.6787 10.2353 9.27229V7.42235C10.2353 7.26535 10.1829 7.11284 10.0865 6.98894L9.29735 5.97423C9.10453 5.7263 8.99989 5.42114 9 5.10705V3.88235ZM0.705882 4.94117C0.705882 5.03478 0.668698 5.12455 0.602508 5.19074C0.536319 5.25693 0.446547 5.29411 0.352941 5.29411C0.259335 5.29411 0.169563 5.25693 0.103374 5.19074C0.0371848 5.12455 9.46788e-09 5.03478 9.46788e-09 4.94117V3.29964C-2.87104e-05 3.08483 0.0652822 2.87508 0.187262 2.69826C0.309241 2.52144 0.482118 2.3859 0.682941 2.30964C2.26094 1.71052 4.03376 1.41176 6 1.41176C7.96624 1.41176 9.73906 1.71052 11.3171 2.30964C11.5179 2.3859 11.6908 2.52144 11.8127 2.69826C11.9347 2.87508 12 3.08483 12 3.29964V4.94117C12 5.03478 11.9628 5.12455 11.8966 5.19074C11.8304 5.25693 11.7407 5.29411 11.6471 5.29411C11.5535 5.29411 11.4637 5.25693 11.3975 5.19074C11.3313 5.12455 11.2941 5.03478 11.2941 4.94117V3.29964C11.2941 3.22804 11.2724 3.15812 11.2317 3.09918C11.191 3.04024 11.1334 2.99506 11.0665 2.96964C9.57212 2.40211 7.88382 2.11764 6 2.11764C4.11618 2.11764 2.42788 2.40211 0.933529 2.96964C0.866588 2.99506 0.808963 3.04024 0.768303 3.09918C0.727643 3.15812 0.705873 3.22804 0.705882 3.29964V4.94117ZM6 8.82352C4.83053 8.82352 3.88235 7.87535 3.88235 6.70588C3.88235 5.53641 4.83053 4.58823 6 4.58823C7.16947 4.58823 8.11765 5.53641 8.11765 6.70588C8.11765 7.87535 7.16947 8.82352 6 8.82352ZM6 8.11764C6.37442 8.11764 6.73351 7.9689 6.99827 7.70414C7.26303 7.43939 7.41177 7.0803 7.41177 6.70588C7.41177 6.33145 7.26303 5.97237 6.99827 5.70761C6.73351 5.44285 6.37442 5.29411 6 5.29411C5.62558 5.29411 5.26649 5.44285 5.00173 5.70761C4.73697 5.97237 4.58824 6.33145 4.58824 6.70588C4.58824 7.0803 4.73697 7.43939 5.00173 7.70414C5.26649 7.9689 5.62558 8.11764 6 8.11764Z" fill="currentColor"/>
        </symbol>
    </defs>
</svg>
