<svg aria-hidden="true" style="position: absolute; width: 0; height: 0; overflow: hidden;" version="1.1" xmlns="http://www.w3.org/2000/svg">
    <defs>
        <symbol id="vk" viewBox="0 0 36 36">
            <path d="M35.8092 26.2798C35.7656 26.1858 35.7249 26.1079 35.6872 26.0455C35.0626 24.9205 33.869 23.5398 32.1071 21.9028L32.0699 21.8653L32.0512 21.8469L32.0324 21.8281H32.0135C31.2139 21.0658 30.7075 20.5533 30.4955 20.2909C30.1075 19.791 30.0205 19.285 30.2326 18.7724C30.3824 18.385 30.9452 17.567 31.9196 16.3172C32.4321 15.6549 32.838 15.124 33.1378 14.7241C35.2997 11.8499 36.237 10.0133 35.9494 9.21344L35.8378 9.02654C35.7627 8.91401 35.5691 8.81107 35.257 8.71719C34.9443 8.62351 34.5445 8.60801 34.0571 8.67045L28.659 8.70774C28.5716 8.67675 28.4467 8.67964 28.284 8.71719L28.0403 8.77358L27.9463 8.82052L27.8717 8.87692C27.8092 8.91421 27.7405 8.97979 27.6655 9.07354C27.5908 9.16696 27.5284 9.2766 27.4785 9.40153C26.8908 10.9135 26.2226 12.3193 25.4727 13.6188C25.0103 14.3937 24.5857 15.0652 24.1979 15.6338C23.8106 16.2022 23.4857 16.621 23.2235 16.8894C22.9609 17.1581 22.7239 17.3734 22.511 17.536C22.2985 17.6987 22.1363 17.7674 22.024 17.7423C21.9114 17.7172 21.8054 17.6922 21.705 17.6673C21.5302 17.5547 21.3895 17.4017 21.2835 17.208C21.177 17.0144 21.1053 16.7706 21.0678 16.477C21.0306 16.1831 21.0085 15.9303 21.0022 15.7178C20.9964 15.5056 20.999 15.2054 21.0117 14.818C21.0247 14.4305 21.0306 14.1683 21.0306 14.0308C21.0306 13.5559 21.0398 13.0405 21.0584 12.4844C21.0773 11.9284 21.0926 11.4878 21.1054 11.1632C21.1181 10.8383 21.124 10.4945 21.124 10.1322C21.124 9.76977 21.102 9.48556 21.0584 9.27929C21.0148 9.07283 20.949 8.8717 20.8621 8.67944C20.7745 8.48577 20.6462 8.33596 20.4778 8.2296C20.3092 8.12338 20.0995 8.03909 19.85 7.97646C19.1876 7.82657 18.3442 7.7455 17.3193 7.73289C14.9952 7.70794 13.5019 7.85802 12.8396 8.18293C12.5772 8.3202 12.3397 8.50776 12.1274 8.74503C11.9024 9.02004 11.8711 9.17011 12.0335 9.1948C12.7833 9.30713 13.3142 9.57583 13.6266 10.0007L13.7392 10.2258C13.8268 10.3882 13.9142 10.6757 14.0017 11.088C14.0891 11.5003 14.1455 11.9564 14.1703 12.456C14.2327 13.3683 14.2327 14.1493 14.1703 14.799C14.1078 15.4489 14.0487 15.9549 13.9923 16.3173C13.9359 16.6797 13.8516 16.9733 13.7392 17.1982C13.6266 17.4231 13.5517 17.5606 13.5142 17.6105C13.4767 17.6604 13.4454 17.6918 13.4206 17.7042C13.2591 17.7664 13.0875 17.7983 12.9144 17.7981C12.7394 17.7981 12.527 17.7105 12.2772 17.5355C12.0274 17.3605 11.7681 17.1201 11.4994 16.8139C11.2307 16.5076 10.9277 16.0796 10.5902 15.5299C10.2529 14.9801 9.90299 14.3304 9.5406 13.5806L9.24077 13.0369C9.05334 12.6871 8.7973 12.1778 8.4724 11.5094C8.1473 10.8408 7.85994 10.194 7.61014 9.5692C7.51029 9.3068 7.36028 9.10702 7.16037 8.96955L7.06656 8.91316C7.00419 8.86326 6.90407 8.81028 6.76673 8.75382C6.62806 8.69715 6.48344 8.65632 6.33561 8.63211L1.19983 8.6694C0.675019 8.6694 0.31893 8.78829 0.131432 9.02575L0.0563938 9.13808C0.0189074 9.20064 0 9.30056 0 9.4381C0 9.57557 0.0374865 9.74429 0.112525 9.94407C0.862254 11.7061 1.67757 13.4055 2.55847 15.0424C3.43937 16.6794 4.20485 17.9979 4.85446 18.997C5.50421 19.9968 6.16649 20.9404 6.84131 21.8273C7.51613 22.7146 7.96282 23.2832 8.18137 23.533C8.40018 23.7833 8.57206 23.9704 8.69699 24.0953L9.16567 24.5451C9.46556 24.845 9.90594 25.2043 10.487 25.6228C11.0682 26.0416 11.7117 26.4539 12.4177 26.8603C13.1238 27.2661 13.9453 27.5972 14.8826 27.8533C15.8197 28.1097 16.7319 28.2126 17.6192 28.1629H19.7747C20.2119 28.1252 20.5431 27.9877 20.7682 27.7505L20.8428 27.6565C20.893 27.5819 20.9399 27.4661 20.9832 27.3101C21.0271 27.154 21.0489 26.9819 21.0489 26.7947C21.0361 26.2575 21.077 25.7733 21.1705 25.3423C21.2639 24.9113 21.3704 24.5864 21.4895 24.3676C21.6085 24.149 21.7428 23.9645 21.8923 23.815C22.0421 23.6651 22.1489 23.5743 22.2115 23.5431C22.2737 23.5116 22.3234 23.4903 22.3609 23.4775C22.6608 23.3775 23.0137 23.4743 23.4202 23.7682C23.8264 24.0619 24.2074 24.4245 24.5637 24.8554C24.9199 25.2867 25.3478 25.7706 25.8475 26.3079C26.3476 26.8453 26.7848 27.2448 27.1596 27.5076L27.5343 27.7325C27.7846 27.8826 28.1095 28.02 28.5094 28.145C28.9086 28.2698 29.2584 28.3011 29.5588 28.2386L34.357 28.1638C34.8316 28.1638 35.2008 28.0852 35.4628 27.9293C35.7253 27.7731 35.8812 27.601 35.9315 27.4139C35.9816 27.2265 35.9843 27.0139 35.941 26.7763C35.8965 26.5392 35.8527 26.3734 35.8092 26.2798Z" fill="currentColor"/>
        </symbol>
        <symbol id="dzen" viewBox="0 0 36 36">
            <path d="M30.2606 17.4323C30.2629 17.4323 30.2645 17.4323 30.2668 17.4323C30.423 17.4323 30.572 17.3668 30.6778 17.252C30.7853 17.1355 30.8385 16.9792 30.8245 16.8213C30.2623 10.6372 25.3662 5.73948 19.1816 5.17612C19.0248 5.1638 18.8669 5.21476 18.7504 5.32284C18.6339 5.43036 18.5689 5.58212 18.5706 5.7406C18.6681 13.9592 19.7522 17.3175 30.2606 17.4323ZM30.2606 18.568C19.7522 18.6828 18.6686 22.0411 18.5712 30.2596C18.5695 30.4181 18.6345 30.5699 18.7509 30.6774C18.8551 30.7732 18.9912 30.8264 19.1312 30.8264C19.148 30.8264 19.1653 30.8258 19.1821 30.8241C25.3668 30.2608 30.2629 25.3636 30.8245 19.1789C30.8385 19.021 30.7859 18.8648 30.6778 18.7483C30.5697 18.6318 30.4191 18.5741 30.2606 18.568ZM16.7809 5.17892C10.6158 5.75852 5.73542 10.6552 5.17598 16.8224C5.16198 16.9804 5.21462 17.1366 5.3227 17.2531C5.42854 17.3679 5.57806 17.4328 5.73374 17.4328C5.73598 17.4328 5.73822 17.4328 5.74046 17.4328C16.2141 17.3124 17.2955 13.9558 17.3941 5.74284C17.3957 5.58436 17.3302 5.43204 17.2137 5.32452C17.0961 5.217 16.9388 5.16436 16.7809 5.17892ZM5.7399 18.5674C5.56574 18.5478 5.4291 18.6307 5.32214 18.7472C5.21462 18.8636 5.16142 19.0199 5.17542 19.1778C5.73486 25.3451 10.6158 30.2417 16.7809 30.8213C16.7982 30.823 16.8161 30.8236 16.8335 30.8236C16.9735 30.8236 17.109 30.7709 17.2132 30.6752C17.3297 30.5676 17.3952 30.4153 17.3935 30.2568C17.2949 22.0444 16.2141 18.6878 5.7399 18.5674Z" fill="currentColor"/>
        </symbol>
        <symbol id="ok" viewBox="0 0 36 36">
            <path d="M10.0927 18.9554C9.42855 20.2609 10.1826 20.8849 11.903 21.951C13.3656 22.8546 15.3862 23.185 16.6841 23.3172L11.5694 28.2369C10.0808 29.6638 12.4773 31.953 13.9648 30.5565L17.9918 26.6725C19.5335 28.1557 21.0112 29.5771 22.0188 30.5619C23.5074 31.9638 25.9028 29.6941 24.4305 28.2423C24.32 28.1372 18.9734 23.0084 19.2995 23.3226C20.6136 23.1904 22.6038 22.8405 24.0491 21.9564L24.048 21.9553C25.7685 20.8838 26.5225 20.2609 25.8682 18.9554C25.4727 18.2143 24.4066 17.5946 22.9874 18.6661C22.9874 18.6661 21.0708 20.1341 17.9799 20.1341C14.8878 20.1341 12.9724 18.6661 12.9724 18.6661C11.5542 17.5892 10.4838 18.2143 10.0927 18.9554Z" fill="currentColor"/>
            <path d="M17.9778 18.1547C21.7458 18.1547 24.8227 15.21 24.8227 11.5849C24.8227 7.9447 21.7458 5 17.9778 5C14.2086 5 11.1317 7.9447 11.1317 11.5849C11.1317 15.21 14.2086 18.1547 17.9778 18.1547ZM17.9778 8.33581C19.8293 8.33581 21.3396 9.78865 21.3396 11.5849C21.3396 13.3661 19.8293 14.8189 17.9778 14.8189C16.1262 14.8189 14.6159 13.3661 14.6159 11.5849C14.6149 9.78757 16.1251 8.33581 17.9778 8.33581Z" fill="currentColor"/>
        </symbol>
        <symbol id="youtube" viewBox="0 0 36 36">
            <path d="M32.3819 10.4425C32.0362 9.09635 31.0229 8.03524 29.7378 7.67276C27.3902 7 17.9997 7 17.9997 7C17.9997 7 8.60945 7 6.26185 7.64728C5.00152 8.00936 3.96352 9.09659 3.61781 10.4425C3 12.9011 3 18 3 18C3 18 3 23.1246 3.61781 25.5575C3.96385 26.9035 4.97682 27.9646 6.26204 28.327C8.63415 29 18 29 18 29C18 29 27.3902 29 29.7378 28.3527C31.0231 27.9904 32.0362 26.9293 32.3822 25.5834C32.9999 23.1246 32.9999 18.0259 32.9999 18.0259C32.9999 18.0259 33.0246 12.901 32.3819 10.4425ZM15.0099 22.7106V13.2894L22.8186 18L15.0099 22.7106Z" fill="currentColor"/>
        </symbol>
        <symbol id="telegram" viewBox="0 0 36 36">
            <path d="M14.7711 21.9763L14.2749 28.9563C14.9849 28.9563 15.2924 28.6513 15.6611 28.285L18.9899 25.1038L25.8874 30.155C27.1524 30.86 28.0436 30.4888 28.3849 28.9913L32.9124 7.77627L32.9136 7.77502C33.3149 5.90502 32.2374 5.17377 31.0049 5.63252L4.39236 15.8213C2.57611 16.5263 2.60361 17.5388 4.08361 17.9975L10.8874 20.1138L26.6911 10.225C27.4349 9.73252 28.1111 10.005 27.5549 10.4975L14.7711 21.9763Z" fill="currentColor"/>
        </symbol>
        <symbol id="tiktok" viewBox="0 0 36 36">
            <path d="M29.9872 11.1718C28.4247 11.1718 26.9831 10.6542 25.8255 9.78097C24.4978 8.77998 23.5438 7.31165 23.207 5.61927C23.1225 5.19373 23.0781 4.76122 23.0744 4.32739H18.6111V16.5232L18.6057 23.2034C18.6057 24.9894 17.4427 26.5037 15.8305 27.0363C15.3476 27.1959 14.839 27.2634 14.3312 27.2352C13.6596 27.1983 13.0302 26.9956 12.4832 26.6684C11.3191 25.9722 10.5299 24.7092 10.5085 23.2644C10.4748 21.0063 12.3003 19.1652 14.5569 19.1652C15.0023 19.1652 15.43 19.238 15.8305 19.37V14.8383C15.4081 14.7758 14.9782 14.7431 14.5435 14.7431C12.0736 14.7431 9.76365 15.7698 8.11245 17.6194C6.86442 19.0171 6.11582 20.8004 6.00032 22.6703C5.84899 25.1268 6.74785 27.4619 8.49103 29.1848C8.74716 29.4377 9.01612 29.6724 9.29738 29.889C10.7919 31.0392 12.619 31.6626 14.5435 31.6626C14.9782 31.6626 15.4081 31.6306 15.8305 31.568C17.6283 31.3017 19.287 30.4788 20.5959 29.1848C22.2044 27.595 23.0931 25.4845 23.1027 23.2382L23.0797 13.2625C23.8488 13.8558 24.6914 14.3471 25.5864 14.7244C26.9869 15.3153 28.4718 15.6147 30 15.6142V11.1707C30.0011 11.1718 29.9882 11.1718 29.9872 11.1718Z" fill="currentColor"/>
        </symbol>
        <symbol id="rutube" viewBox="0 0 36 36">
            <path fill-rule="evenodd" clip-rule="evenodd" d="M4 9.07107C4 8.47953 4.4701 8 5.05001 8H24.0014C25.2394 8 26.2875 8.13231 27.1615 8.38465C27.174 8.38825 27.1864 8.39208 27.1987 8.39614C28.0978 8.69275 28.8618 9.14532 29.5434 9.7826C29.5581 9.79639 29.5725 9.81061 29.5864 9.82523C30.2275 10.4973 30.6981 11.2658 30.9729 12.1591C31.2357 13.0138 31.3684 14.0674 31.3684 15.3254V16.889C31.3684 18.9712 31.0151 20.7582 30.1139 21.9751L30.1138 21.9752C29.5052 22.7968 28.6676 23.3751 27.6612 23.7513L31.7856 29.2803C32.0272 29.6043 32.068 30.0399 31.8908 30.4046C31.7136 30.7693 31.349 31 30.95 31H25.0437C24.6994 31 24.3769 30.8278 24.1808 30.5391L19.8823 24.2142H11.3747V29.9289C11.3747 30.5205 10.9046 31 10.3247 31H5.05001C4.4701 31 4 30.5205 4 29.9289V9.07107ZM6.10001 10.1421V28.8579H9.27471V23.1432C9.27471 22.5516 9.74481 22.0721 10.3247 22.0721H20.4321C20.7764 22.0721 21.0988 22.2443 21.295 22.5329L25.5934 28.8579H28.8316L25.0292 23.7605C24.8051 23.4601 24.7526 23.0616 24.8909 22.7115C25.0293 22.3614 25.3381 22.1114 25.7037 22.0535C27.119 21.8294 27.9625 21.326 28.4383 20.6838C28.9266 20.0246 29.2684 18.8094 29.2684 16.889V15.3254C29.2684 14.2067 29.1487 13.3842 28.9692 12.8004C28.8042 12.2641 28.5233 11.7884 28.1022 11.3411C27.6572 10.9304 27.1696 10.6405 26.5709 10.4404C25.9311 10.2582 25.0897 10.1421 24.0014 10.1421H6.10001ZM9.27471 13.6679C9.27471 13.0764 9.74481 12.5969 10.3247 12.5969H23.1486C23.5653 12.5969 23.9568 12.6322 24.3048 12.7142C24.6406 12.7934 25.0097 12.933 25.3126 13.1954C25.8963 13.701 26.0937 14.4794 26.0937 15.2315V16.9827C26.0937 17.7547 25.9019 18.5395 25.3126 19.0499C24.9917 19.3277 24.6026 19.455 24.2747 19.522C23.9406 19.5903 23.5671 19.6159 23.1776 19.6171C23.168 19.6174 23.1583 19.6176 23.1486 19.6176H10.3247C9.74481 19.6176 9.27471 19.138 9.27471 18.5465V13.6679ZM23.1212 17.4754C23.1303 17.4752 23.1395 17.4751 23.1486 17.4751C23.4752 17.4751 23.7072 17.4533 23.8622 17.4216C23.8962 17.4147 23.923 17.4079 23.9436 17.4021C23.9659 17.3349 23.9937 17.2031 23.9937 16.9827V15.2315C23.9937 15.0271 23.966 14.9034 23.9442 14.8409C23.9432 14.8381 23.9423 14.8355 23.9413 14.8331C23.9177 14.8245 23.8822 14.8132 23.832 14.8014C23.6826 14.7661 23.4581 14.739 23.1486 14.739H11.3747V17.4754H23.1212ZM23.9267 14.8001C23.9264 14.7996 23.9262 14.7994 23.9262 14.7994C23.9262 14.7994 23.9264 14.7996 23.9267 14.8001ZM23.9246 17.448C23.9246 17.448 23.9247 17.4478 23.925 17.4474C23.9247 17.4478 23.9246 17.448 23.9246 17.448Z" fill="currentColor" />
            <path d="M30.0004 9C31.1044 9 32 8.1046 32 7C32 5.8954 31.1044 5 30.0004 5C28.8956 5 28 5.8954 28 7C28 8.1046 28.8956 9 30.0004 9Z" fill="currentColor" />
        </symbol>
    </defs>
</svg>
