<svg width="195" height="204" viewBox="0 0 195 204" fill="none" xmlns="http://www.w3.org/2000/svg">
    <path d="M56.4624 139.658H58.7926V146.564L63.6287 139.658H65.8224V150.256H63.5117V143.371L58.6756 150.256H56.4624V139.658Z" fill="#212121"/>
    <path d="M77.6296 139.658V150.256H75.2896V145.911H70.6876V150.256H68.3379V139.658H70.6876V143.84H75.2896V139.658H77.6296Z" fill="#212121"/>
    <path d="M82.1534 149.736C81.3149 149.267 80.6617 148.614 80.1839 147.788C79.7062 146.951 79.4722 146.013 79.4722 144.962C79.4722 143.912 79.7062 142.973 80.1839 142.137C80.6617 141.301 81.3149 140.658 82.1534 140.189C82.9919 139.72 83.9279 139.485 84.9712 139.485C85.8487 139.485 86.6384 139.648 87.3502 139.964C88.0619 140.291 88.6567 140.75 89.1344 141.362L87.6329 142.81C86.9504 141.984 86.1022 141.566 85.0882 141.566C84.4642 141.566 83.8987 141.709 83.4112 141.994C82.9237 142.28 82.5337 142.688 82.2607 143.198C81.9877 143.708 81.8512 144.299 81.8512 144.952C81.8512 145.605 81.9877 146.197 82.2607 146.707C82.5337 147.217 82.9237 147.625 83.4112 147.91C83.8987 148.196 84.4642 148.339 85.0882 148.339C86.1022 148.339 86.9504 147.92 87.6329 147.084L89.1344 148.532C88.6567 149.144 88.0522 149.614 87.3404 149.94C86.6287 150.266 85.8292 150.419 84.9517 150.419C83.9182 150.44 82.9822 150.205 82.1534 149.736Z" fill="#212121"/>
    <path d="M98.3092 141.658H95.0624V150.256H92.7517V141.658H89.5244V139.658H98.3092V141.658Z" fill="#212121"/>
    <path d="M99.7812 139.658H102.111V146.564L106.947 139.658H109.141V150.256H106.83V143.371L101.995 150.256H99.7812V139.658Z" fill="#212121"/>
    <path d="M119.399 141.658H116.162V150.256H113.841V141.658H110.614V139.658H119.399V141.658Z" fill="#212121"/>
    <path d="M129.587 139.658L125.278 148.043C124.858 148.849 124.361 149.461 123.776 149.879C123.191 150.297 122.557 150.501 121.875 150.501C121.348 150.501 120.793 150.379 120.227 150.134L120.793 148.267C121.202 148.4 121.534 148.461 121.807 148.461C122.099 148.461 122.353 148.39 122.587 148.237C122.821 148.094 123.025 147.859 123.22 147.543L123.308 147.421L119.311 139.638H121.816L124.507 145.33L127.286 139.638H129.587V139.658Z" fill="#212121"/>
    <path d="M138.469 141.658H135.232V150.256H132.912V141.658H129.685V139.658H138.469V141.658Z" fill="#212121"/>
    <path d="M31.6387 164.159H30.0202V168.422H27.6899V157.825H30.0202V162.109H31.6972L34.3589 157.825H36.8354L33.5204 162.945L36.9329 168.422H34.2712L31.6387 164.159Z" fill="#212121"/>
    <path d="M39.9849 167.892C39.1367 167.423 38.4834 166.76 38.0057 165.934C37.5279 165.097 37.2939 164.169 37.2939 163.129C37.2939 162.088 37.5279 161.15 38.0057 160.324C38.4834 159.487 39.1464 158.834 39.9849 158.365C40.8332 157.896 41.7789 157.651 42.8319 157.651C43.8849 157.651 44.8307 157.886 45.6692 158.365C46.5077 158.845 47.1707 159.497 47.6484 160.324C48.1262 161.16 48.3699 162.088 48.3699 163.129C48.3699 164.169 48.1262 165.107 47.6484 165.934C47.1707 166.77 46.5077 167.423 45.6692 167.892C44.8307 168.361 43.8849 168.606 42.8319 168.606C41.7692 168.606 40.8234 168.371 39.9849 167.892ZM44.4504 166.087C44.9282 165.801 45.3084 165.393 45.5814 164.883C45.8544 164.373 45.9909 163.781 45.9909 163.129C45.9909 162.476 45.8544 161.884 45.5814 161.374C45.3084 160.864 44.9282 160.456 44.4504 160.171C43.9727 159.885 43.4267 159.742 42.8319 159.742C42.2372 159.742 41.6912 159.885 41.2134 160.171C40.7357 160.456 40.3554 160.864 40.0727 161.374C39.7997 161.884 39.6632 162.476 39.6632 163.129C39.6632 163.781 39.7997 164.373 40.0727 164.883C40.3457 165.393 40.7259 165.801 41.2134 166.087C41.6912 166.372 42.2372 166.515 42.8319 166.515C43.4267 166.515 43.9629 166.372 44.4504 166.087Z" fill="#212121"/>
    <path d="M59.3871 168.422L59.3773 162.078L56.3938 167.3H55.3506L52.3768 162.2V168.422H50.1733V157.825H52.1136L55.9063 164.414L59.6406 157.825H61.5808L61.5906 168.422H59.3871Z" fill="#212121"/>
    <path d="M73.3392 157.825V168.422H71.009V159.824H66.4362V168.422H64.106V157.825H73.3392Z" fill="#212121"/>
    <path d="M83.6062 162.17C84.2692 162.741 84.6007 163.598 84.6007 164.73C84.6007 165.934 84.24 166.852 83.5087 167.474C82.7775 168.106 81.7537 168.422 80.4375 168.422H75.8647V157.825H78.195V161.303H80.769C81.9975 161.313 82.9432 161.599 83.6062 162.17ZM81.7245 166.138C82.0657 165.821 82.2412 165.373 82.2412 164.771C82.2412 163.669 81.5977 163.118 80.301 163.118H78.1852V166.597H80.301C80.9055 166.607 81.3832 166.454 81.7245 166.138Z" fill="#212121"/>
    <path d="M97.9681 158.355C98.7871 158.834 99.4208 159.487 99.8888 160.313C100.357 161.14 100.581 162.078 100.581 163.118C100.581 164.159 100.347 165.097 99.8888 165.923C99.4306 166.76 98.7871 167.413 97.9681 167.882C97.1491 168.351 96.2423 168.596 95.2283 168.596C94.3216 168.596 93.4928 168.402 92.7421 168.025C91.9913 167.647 91.3673 167.117 90.8798 166.433C90.3923 165.75 90.0803 164.975 89.9438 164.098H88.6081V168.412H86.2778V157.814H88.6081V161.976H89.9731C90.1291 161.129 90.4508 160.375 90.9383 159.712C91.4258 159.049 92.0401 158.539 92.7811 158.171C93.5221 157.804 94.3411 157.631 95.2283 157.631C96.2423 157.641 97.1588 157.886 97.9681 158.355ZM96.7493 166.087C97.1978 165.801 97.5586 165.403 97.8218 164.893C98.0851 164.383 98.2118 163.792 98.2118 163.118C98.2118 162.455 98.0851 161.864 97.8218 161.344C97.5586 160.834 97.2076 160.426 96.7493 160.15C96.2911 159.865 95.7938 159.722 95.2283 159.722C94.6726 159.722 94.1656 159.865 93.7073 160.15C93.2491 160.436 92.8981 160.834 92.6348 161.344C92.3716 161.854 92.2448 162.445 92.2448 163.118C92.2448 163.781 92.3716 164.373 92.6348 164.893C92.8981 165.403 93.2491 165.811 93.7073 166.087C94.1558 166.372 94.6628 166.515 95.2283 166.515C95.7938 166.515 96.3008 166.372 96.7493 166.087Z" fill="#212121"/>
    <path d="M110 159.824H106.763V168.422H104.452V159.824H101.225V157.825H110V159.824Z" fill="#212121"/>
    <path d="M119.32 166.454V168.422H111.481V157.825H119.135V159.793H113.812V162.098H118.511V164.006H113.812V166.454H119.32Z" fill="#212121"/>
    <path d="M127.939 158.294C128.602 158.61 129.109 159.049 129.47 159.63C129.831 160.201 130.006 160.885 130.006 161.67C130.006 162.445 129.831 163.129 129.47 163.71C129.109 164.291 128.602 164.73 127.939 165.046C127.276 165.352 126.496 165.505 125.599 165.505H123.562V168.422H121.222V157.825H125.609C126.496 157.825 127.276 157.988 127.939 158.294ZM127.081 163.027C127.452 162.71 127.627 162.262 127.627 161.67C127.627 161.078 127.442 160.619 127.081 160.303C126.711 159.987 126.175 159.824 125.473 159.824H123.562V163.506H125.473C126.175 163.506 126.711 163.343 127.081 163.027Z" fill="#212121"/>
    <path d="M140.839 157.825V168.422H138.489V164.077H133.887V168.422H131.547V157.825H133.887V162.007H138.489V157.825H140.839Z" fill="#212121"/>
    <path d="M151.116 162.17C151.779 162.741 152.11 163.598 152.11 164.73C152.11 165.934 151.749 166.852 151.018 167.474C150.287 168.106 149.263 168.422 147.947 168.422H143.374V157.825H145.704V161.303H148.278C149.507 161.313 150.453 161.599 151.116 162.17ZM149.234 166.138C149.575 165.821 149.751 165.373 149.751 164.771C149.751 163.669 149.107 163.118 147.81 163.118H145.695V166.597H147.81C148.415 166.607 148.893 166.454 149.234 166.138ZM153.397 157.825H155.727V168.422H153.397V157.825Z" fill="#212121"/>
    <path d="M160.066 157.825L162.162 161.038L164.258 157.825H167.008L163.644 162.894L167.281 168.422H164.521L162.162 164.914L159.832 168.422H157.131L160.748 163.006L157.355 157.825H160.066Z" fill="#212121"/>
    <path d="M85.6145 175.991V186.589H83.2745V182.243H78.6725V186.589H76.3228V175.991H78.6725V180.173H83.2745V175.991H85.6145Z" fill="#212121"/>
    <path d="M95.0038 184.314H90.3043L89.4073 186.589H87.0088L91.523 175.991H93.8338L98.3578 186.589H95.9008L95.0038 184.314ZM94.2725 182.458L92.6638 178.398L91.055 182.458H94.2725Z" fill="#212121"/>
    <path d="M108.332 175.991L104.023 184.375C103.603 185.181 103.106 185.793 102.521 186.211C101.936 186.629 101.302 186.833 100.62 186.833C100.093 186.833 99.5377 186.711 98.9722 186.466L99.5377 184.6C99.9472 184.732 100.279 184.793 100.552 184.793C100.844 184.793 101.098 184.722 101.332 184.569C101.566 184.426 101.77 184.192 101.965 183.875L102.053 183.753L98.0557 175.97H100.561L103.252 181.662L106.031 175.97H108.332V175.991Z" fill="#212121"/>
    <path d="M113.363 182.315H111.745V186.589H109.415V175.991H111.745V180.275H113.422L116.084 175.991H118.56L115.245 181.111L118.667 186.589H116.006L113.363 182.315Z" fill="#212121"/>
    <path d="M141.414 87.1488H134.433L141.414 79.8558V87.1488Z" fill="#B1896A"/>
    <path d="M140.107 78.4788L130.357 88.689L110.487 109.477L100.63 119.779L96.437 124.165V109.589L106.304 99.2766L126.175 78.489L123.435 75.6228L122.177 74.3172L119.827 71.859V57.2832L122.177 59.7312L140.107 78.4788Z" fill="#4B5C6C"/>
    <path d="M98.5433 17.34V31.9158L88.6763 42.2382L86.7945 44.217L85.8975 45.1452L68.8155 63.0156V63.0258L69.5566 63.8214L75.1336 69.6456V84.2214L54.873 63.0258L58.5195 59.2212L61.8345 55.7328L71.6625 45.4614L72.3548 44.7372L98.5433 17.34Z" fill="#4B5C6C"/>
    <path d="M53.5664 54.3762H60.5279L53.5664 61.6488V54.3762Z" fill="#B1896A"/>
    <path d="M105.105 60.7308C106.177 60.741 107.045 61.6488 107.045 62.7606V78.7032C107.045 79.8252 106.177 80.7432 105.105 80.7534H89.8654C88.7831 80.7534 87.9056 79.8354 87.9056 78.7032V62.7606C87.9154 61.6386 88.7831 60.7308 89.8654 60.7308H105.105ZM105.105 59.0172H89.8654C87.8959 59.0376 86.3066 60.7002 86.2969 62.7708V78.7134C86.2969 80.7942 87.9056 82.4772 89.8946 82.4772H105.105C107.084 82.467 108.693 80.784 108.693 78.7134V62.7606C108.683 60.7002 107.084 59.0172 105.105 59.0172Z" fill="#FFD040"/>
    <path d="M89.1538 57.7524C88.8223 57.7524 88.5591 57.477 88.5493 57.1404V53.3766C88.5493 53.0298 88.8223 52.7442 89.1538 52.7442C89.4853 52.7442 89.7583 53.0298 89.7583 53.3766V57.171C89.7388 57.4974 89.4756 57.7524 89.1538 57.7524Z" fill="#FFD040"/>
    <path d="M94.7114 57.7524C94.3799 57.7524 94.1167 57.477 94.1069 57.1404V53.3766C94.1069 53.0298 94.3799 52.7442 94.7114 52.7442C95.0429 52.7544 95.2964 53.0298 95.2964 53.3766V57.171C95.2867 57.4974 95.0234 57.7524 94.7114 57.7524Z" fill="#FFD040"/>
    <path d="M100.269 57.7524C99.9371 57.7524 99.6738 57.477 99.6641 57.1404V53.3766C99.6641 53.0298 99.9371 52.7442 100.269 52.7442C100.6 52.7544 100.854 53.0298 100.854 53.3766V57.171C100.834 57.4974 100.581 57.7524 100.269 57.7524Z" fill="#FFD040"/>
    <path d="M105.816 57.7524C105.485 57.7524 105.222 57.477 105.212 57.1404V53.3766C105.212 53.0298 105.485 52.7442 105.816 52.7442C106.148 52.7544 106.401 53.0298 106.401 53.3766V57.171C106.392 57.4974 106.138 57.7524 105.816 57.7524Z" fill="#FFD040"/>
    <path d="M89.1538 88.7604C88.8223 88.7604 88.5591 88.485 88.5493 88.1484V84.354C88.5493 84.0072 88.8223 83.7216 89.1538 83.7216C89.4853 83.7216 89.7583 84.0072 89.7583 84.354V88.1484C89.7486 88.485 89.4853 88.7604 89.1538 88.7604Z" fill="#FFD040"/>
    <path d="M94.7114 88.7604C94.3799 88.7604 94.1167 88.485 94.1069 88.1484V84.354C94.1069 84.0072 94.3799 83.7216 94.7114 83.7216C95.0429 83.7318 95.2964 84.0072 95.2964 84.354V88.1484C95.2964 88.485 95.0332 88.7604 94.7114 88.7604Z" fill="#FFD040"/>
    <path d="M100.269 88.7604C99.9371 88.7604 99.6738 88.485 99.6641 88.1484V84.354C99.6641 84.0072 99.9371 83.7216 100.269 83.7216C100.6 83.7318 100.854 84.0072 100.854 84.354V88.1484C100.854 88.485 100.59 88.7604 100.269 88.7604Z" fill="#FFD040"/>
    <path d="M105.816 88.7604C105.485 88.7604 105.222 88.485 105.212 88.1484V84.354C105.212 84.0072 105.485 83.7216 105.816 83.7216C106.148 83.7318 106.401 84.0072 106.401 84.354V88.1484C106.411 88.485 106.148 88.7604 105.816 88.7604Z" fill="#FFD040"/>
    <path d="M109.902 61.965C109.902 61.6284 110.165 61.353 110.487 61.353H114.114C114.445 61.353 114.709 61.6284 114.718 61.965C114.718 62.3118 114.445 62.5974 114.114 62.5974H110.487C110.155 62.5872 109.902 62.3016 109.902 61.965Z" fill="#FFD040"/>
    <path d="M109.902 67.83C109.902 67.4832 110.165 67.2078 110.487 67.1976H114.114C114.445 67.1976 114.718 67.4832 114.718 67.83C114.718 68.1768 114.445 68.4624 114.114 68.4624H110.487C110.155 68.4522 109.902 68.1768 109.902 67.83Z" fill="#FFD040"/>
    <path d="M109.902 73.644C109.902 73.2972 110.165 73.0218 110.487 73.0116H114.114C114.445 73.0116 114.718 73.2972 114.718 73.644C114.718 73.9908 114.445 74.2764 114.114 74.2764H110.487C110.155 74.2662 109.902 73.9806 109.902 73.644Z" fill="#FFD040"/>
    <path d="M109.902 79.458C109.902 79.1112 110.165 78.8358 110.487 78.8256H114.114C114.445 78.8256 114.718 79.1112 114.718 79.458C114.718 79.8048 114.445 80.0904 114.114 80.0904H110.487C110.155 80.0802 109.902 79.7946 109.902 79.458Z" fill="#FFD040"/>
    <path d="M80.2617 61.965C80.2617 61.6284 80.525 61.353 80.8467 61.353H84.4737C84.8052 61.353 85.0685 61.6284 85.0782 61.965C85.0782 62.3118 84.8052 62.5974 84.4737 62.5974H80.8175C80.5055 62.5668 80.2617 62.2914 80.2617 61.965Z" fill="#FFD040"/>
    <path d="M80.2617 67.83C80.2617 67.4832 80.525 67.2078 80.8467 67.1976H84.4737C84.8052 67.1976 85.0782 67.4832 85.0782 67.83C85.0782 68.1768 84.8052 68.4624 84.4737 68.4624H80.8175C80.5055 68.442 80.2617 68.1666 80.2617 67.83Z" fill="#FFD040"/>
    <path d="M80.2617 73.644C80.2617 73.2972 80.525 73.0218 80.8467 73.0116H84.4737C84.8052 73.0116 85.0782 73.2972 85.0782 73.644C85.0782 73.9908 84.8052 74.2764 84.4737 74.2764H80.8175C80.5055 74.2458 80.2617 73.9704 80.2617 73.644Z" fill="#FFD040"/>
    <path d="M80.2617 79.458C80.2617 79.1112 80.525 78.8358 80.8467 78.8256H84.4737C84.8052 78.8256 85.0782 79.1112 85.0782 79.458C85.0782 79.8048 84.8052 80.0904 84.4737 80.0904H80.8175C80.5055 80.0598 80.2617 79.7844 80.2617 79.458Z" fill="#FFD040"/>
    <path d="M95.3061 81.4062V67.1976H91.9229C91.5914 67.1976 91.3184 67.4832 91.3184 67.83C91.3184 68.1768 91.5914 68.4624 91.9229 68.4624H94.0971V81.396C94.0971 81.7428 94.3701 82.0284 94.7016 82.0284C95.0331 82.0386 95.3061 81.753 95.3061 81.4062Z" fill="#FFD143"/>
    <path d="M87.126 74.2764H90.402V76.7346C90.402 77.0814 90.675 77.367 91.0065 77.367C91.338 77.367 91.611 77.0814 91.611 76.7346V73.0116H87.1162C86.7847 73.0116 86.5117 73.2972 86.5117 73.644C86.5215 73.9908 86.7945 74.2764 87.126 74.2764Z" fill="#FFD143"/>
    <path d="M87.1255 64.0662H94.7012C95.0327 64.0662 95.3057 63.7806 95.3057 63.4338C95.3057 63.087 95.0327 62.8014 94.7012 62.8014H87.1255C86.794 62.8014 86.521 63.087 86.521 63.4338C86.521 63.7806 86.794 64.0662 87.1255 64.0662Z" fill="#FFD143"/>
    <path d="M100.863 81.4062V64.0662H104.637C104.968 64.0662 105.241 63.7806 105.241 63.4338C105.241 63.087 104.968 62.8014 104.637 62.8014H99.6543V81.4062C99.6543 81.753 99.9273 82.0386 100.259 82.0386C100.59 82.0386 100.863 81.753 100.863 81.4062Z" fill="#FFD143"/>
    <path d="M107.805 67.1976H102.979V71.91C102.979 72.2568 103.252 72.5424 103.583 72.5424C103.915 72.5424 104.188 72.2568 104.188 71.91V68.4624H107.805C108.137 68.4624 108.41 68.1768 108.41 67.83C108.41 67.4832 108.137 67.1976 107.805 67.1976Z" fill="#FFD143"/>
    <path d="M91.0065 78.1218C91.6419 78.1218 92.157 77.5829 92.157 76.9182C92.157 76.2535 91.6419 75.7146 91.0065 75.7146C90.3711 75.7146 89.856 76.2535 89.856 76.9182C89.856 77.5829 90.3711 78.1218 91.0065 78.1218Z" fill="#FFD143"/>
    <path d="M104.188 81.1002V78.0096C104.188 77.6628 103.915 77.3772 103.583 77.3772C103.252 77.3772 102.979 77.6628 102.979 78.0096V81.1002C102.979 81.447 103.252 81.7326 103.583 81.7326C103.915 81.7326 104.188 81.447 104.188 81.1002Z" fill="#FFD143"/>
    <path d="M103.584 79.0296C104.219 79.0296 104.734 78.4907 104.734 77.826C104.734 77.1613 104.219 76.6224 103.584 76.6224C102.948 76.6224 102.433 77.1613 102.433 77.826C102.433 78.4907 102.948 79.0296 103.584 79.0296Z" fill="#FFD143"/>
    <path d="M91.4449 69.0336C92.0803 69.0336 92.5954 68.4947 92.5954 67.83C92.5954 67.1653 92.0803 66.6264 91.4449 66.6264C90.8095 66.6264 90.2944 67.1653 90.2944 67.83C90.2944 68.4947 90.8095 69.0336 91.4449 69.0336Z" fill="#FFD143"/>
    <path d="M95.1988 64.6374C95.8342 64.6374 96.3493 64.0985 96.3493 63.4338C96.3493 62.7691 95.8342 62.2302 95.1988 62.2302C94.5634 62.2302 94.0483 62.7691 94.0483 63.4338C94.0483 64.0985 94.5634 64.6374 95.1988 64.6374Z" fill="#FFD143"/>
    <path d="M104.832 64.6374C105.467 64.6374 105.982 64.0985 105.982 63.4338C105.982 62.7691 105.467 62.2302 104.832 62.2302C104.196 62.2302 103.681 62.7691 103.681 63.4338C103.681 64.0985 104.196 64.6374 104.832 64.6374Z" fill="#FFD143"/>
    <path d="M103.584 73.4196C104.219 73.4196 104.734 72.8807 104.734 72.216C104.734 71.5513 104.219 71.0124 103.584 71.0124C102.948 71.0124 102.433 71.5513 102.433 72.216C102.433 72.8807 102.948 73.4196 103.584 73.4196Z" fill="#FFD143"/>
</svg>
