<svg width="99" height="38" viewBox="0 0 99 38" fill="none" xmlns="http://www.w3.org/2000/svg">
<path d="M22.0421 15.0118C23.9812 15.5794 25.4658 16.5055 26.4959 17.7901C27.5261 19.0747 28.0411 20.658 28.0411 22.5401C28.0411 25.3184 26.9655 27.4843 24.8144 29.0377C22.6935 30.5912 19.6485 31.3679 15.6794 31.3679H0V0H14.8159C18.5123 0 21.3906 0.702044 23.4509 2.10613C25.5112 3.51022 26.5414 5.51179 26.5414 8.11085C26.5414 9.66431 26.1475 11.0385 25.3597 12.2335C24.572 13.3986 23.4661 14.3247 22.0421 15.0118ZM7.31705 12.9953H14.1796C15.7854 12.9953 16.9974 12.6816 17.8154 12.0542C18.6335 11.397 19.0425 10.441 19.0425 9.18632C19.0425 7.96148 18.6183 7.02044 17.77 6.36321C16.9519 5.70597 15.7551 5.37736 14.1796 5.37736H7.31705V12.9953ZM15.4067 25.9906C18.8607 25.9906 20.5877 24.6462 20.5877 21.9575C20.5877 19.3585 18.8607 18.059 15.4067 18.059H7.31705V25.9906H15.4067Z" fill="#006633"/>
<path d="M62.1428 0L48.5994 24.8255C47.2966 27.2154 45.7211 29.0228 43.8729 30.2476C42.0549 31.4725 40.0704 32.0849 37.9192 32.0849C36.2528 32.0849 34.5258 31.7264 32.7382 31.0094L34.5107 25.4976C35.7832 25.886 36.8436 26.0802 37.692 26.0802C38.6009 26.0802 39.419 25.8711 40.1462 25.4528C40.8733 25.0047 41.5399 24.3176 42.1458 23.3915L42.4185 23.033L29.875 0H37.7374L46.1907 16.8491L54.9166 0H62.1428Z" fill="#006633"/>
<path d="M99 25.4528V38H92.2283V31.3679H65.6415V0H72.9586V25.4528H87.1382V0H94.4552V25.4528H99Z" fill="#006633"/>
</svg>
