<svg width="354" height="354" viewBox=" " fill="none" xmlns="http://www.w3.org/2000/svg">
<path d="M255 78.4C266 78.5 274.9 87.4 274.9 98.3V254.6C274.9 265.6 266 274.6 255 274.7H98.7001C87.6001 274.7 78.6001 265.7 78.6001 254.6V98.3C78.7001 87.3 87.6001 78.4 98.7001 78.4H255ZM255 61.6H98.7001C78.5001 61.8 62.2001 78.1 62.1001 98.4V254.7C62.1001 275.1 78.6001 291.6 99.0001 291.6H255C275.3 291.5 291.8 275 291.8 254.7V98.3C291.7 78.1 275.3 61.6 255 61.6Z" fill="#FFD040"/>
<path d="M91.4 49.2C88 49.2 85.3 46.5 85.2 43.2V6.29999C85.2 2.89999 88 0.100006 91.4 0.100006C94.8 0.100006 97.6 2.89999 97.6 6.29999V43.5C97.4 46.7 94.7 49.2 91.4 49.2Z" fill="#FFD040"/>
<path d="M148.4 49.2C145 49.2 142.3 46.5 142.2 43.2V6.29999C142.2 2.89999 145 0.100006 148.4 0.100006C151.8 0.200006 154.4 2.89999 154.4 6.29999V43.5C154.3 46.7 151.6 49.2 148.4 49.2Z" fill="#FFD040"/>
<path d="M205.4 49.2C202 49.2 199.3 46.5 199.2 43.2V6.29999C199.2 2.89999 202 0.100006 205.4 0.100006C208.8 0.200006 211.4 2.89999 211.4 6.29999V43.5C211.2 46.7 208.6 49.2 205.4 49.2Z" fill="#FFD040"/>
<path d="M262.3 49.2C258.9 49.2 256.2 46.5 256.1 43.2V6.29999C256.1 2.89999 258.9 0.100006 262.3 0.100006C265.7 0.200006 268.3 2.89999 268.3 6.29999V43.5C268.2 46.7 265.6 49.2 262.3 49.2Z" fill="#FFD040"/>
<path d="M91.4 353.2C88 353.2 85.3 350.5 85.2 347.2V310C85.2 306.6 88 303.8 91.4 303.8C94.8 303.8 97.6 306.6 97.6 310V347.2C97.5 350.5 94.8 353.2 91.4 353.2Z" fill="#FFD040"/>
<path d="M148.4 353.2C145 353.2 142.3 350.5 142.2 347.2V310C142.2 306.6 145 303.8 148.4 303.8C151.8 303.9 154.4 306.6 154.4 310V347.2C154.4 350.5 151.7 353.2 148.4 353.2Z" fill="#FFD040"/>
<path d="M205.4 353.2C202 353.2 199.3 350.5 199.2 347.2V310C199.2 306.6 202 303.8 205.4 303.8C208.8 303.9 211.4 306.6 211.4 310V347.2C211.4 350.5 208.7 353.2 205.4 353.2Z" fill="#FFD040"/>
<path d="M262.3 353.2C258.9 353.2 256.2 350.5 256.1 347.2V310C256.1 306.6 258.9 303.8 262.3 303.8C265.7 303.9 268.3 306.6 268.3 310V347.2C268.4 350.5 265.7 353.2 262.3 353.2Z" fill="#FFD040"/>
<path d="M304.2 90.5C304.2 87.2 306.9 84.5 310.2 84.5H347.4C350.8 84.5 353.5 87.2 353.6 90.5C353.6 93.9 350.8 96.7 347.4 96.7H310.2C306.8 96.6 304.2 93.8 304.2 90.5Z" fill="#FFD040"/>
<path d="M304.2 148C304.2 144.6 306.9 141.9 310.2 141.8H347.4C350.8 141.8 353.6 144.6 353.6 148C353.6 151.4 350.8 154.2 347.4 154.2H310.2C306.8 154.1 304.2 151.4 304.2 148Z" fill="#FFD040"/>
<path d="M304.2 205C304.2 201.6 306.9 198.9 310.2 198.8H347.4C350.8 198.8 353.6 201.6 353.6 205C353.6 208.4 350.8 211.2 347.4 211.2H310.2C306.8 211.1 304.2 208.3 304.2 205Z" fill="#FFD040"/>
<path d="M304.2 262C304.2 258.6 306.9 255.9 310.2 255.8H347.4C350.8 255.8 353.6 258.6 353.6 262C353.6 265.4 350.8 268.2 347.4 268.2H310.2C306.8 268.1 304.2 265.3 304.2 262Z" fill="#FFD040"/>
<path d="M0.199951 90.5C0.199951 87.2 2.89995 84.5 6.19995 84.5H43.4C46.8 84.5 49.5 87.2 49.6 90.5C49.6 93.9 46.8 96.7 43.4 96.7H5.89996C2.69996 96.4 0.199951 93.7 0.199951 90.5Z" fill="#FFD040"/>
<path d="M0.199951 148C0.199951 144.6 2.89995 141.9 6.19995 141.8H43.4C46.8 141.8 49.6 144.6 49.6 148C49.6 151.4 46.8 154.2 43.4 154.2H5.89996C2.69996 154 0.199951 151.3 0.199951 148Z" fill="#FFD040"/>
<path d="M0.199951 205C0.199951 201.6 2.89995 198.9 6.19995 198.8H43.4C46.8 198.8 49.6 201.6 49.6 205C49.6 208.4 46.8 211.2 43.4 211.2H5.89996C2.69996 210.9 0.199951 208.2 0.199951 205Z" fill="#FFD040"/>
<path d="M0.199951 262C0.199951 258.6 2.89995 255.9 6.19995 255.8H43.4C46.8 255.8 49.6 258.6 49.6 262C49.6 265.4 46.8 268.2 43.4 268.2H5.89996C2.69996 267.9 0.199951 265.2 0.199951 262Z" fill="#FFD040"/>
<path d="M154.5 281.1V141.8H119.8C116.4 141.8 113.6 144.6 113.6 148C113.6 151.4 116.4 154.2 119.8 154.2H142.1V281C142.1 284.4 144.9 287.2 148.3 287.2C151.7 287.3 154.5 284.5 154.5 281.1Z" fill="#FFD143"/>
<path d="M70.6001 211.2H104.2V235.3C104.2 238.7 107 241.5 110.4 241.5C113.8 241.5 116.6 238.7 116.6 235.3V198.8H70.5001C67.1001 198.8 64.3 201.6 64.3 205C64.4 208.4 67.2001 211.2 70.6001 211.2Z" fill="#FFD143"/>
<path d="M70.5999 111.1H148.3C151.7 111.1 154.5 108.3 154.5 104.9C154.5 101.5 151.7 98.7 148.3 98.7H70.5999C67.1999 98.7 64.3999 101.5 64.3999 104.9C64.3999 108.3 67.1999 111.1 70.5999 111.1Z" fill="#FFD143"/>
<path d="M211.5 281.1V111.1H250.2C253.6 111.1 256.4 108.3 256.4 104.9C256.4 101.5 253.6 98.7 250.2 98.7H199.1V281.1C199.1 284.5 201.9 287.3 205.3 287.3C208.7 287.3 211.5 284.5 211.5 281.1Z" fill="#FFD143"/>
<path d="M282.7 141.8H233.2V188C233.2 191.4 236 194.2 239.4 194.2C242.8 194.2 245.6 191.4 245.6 188V154.2H282.7C286.1 154.2 288.9 151.4 288.9 148C288.9 144.6 286.1 141.8 282.7 141.8Z" fill="#FFD143"/>
<path d="M110.4 248.9C116.917 248.9 122.2 243.617 122.2 237.1C122.2 230.583 116.917 225.3 110.4 225.3C103.883 225.3 98.6001 230.583 98.6001 237.1C98.6001 243.617 103.883 248.9 110.4 248.9Z" fill="#FFD143"/>
<path d="M245.6 278.1V247.8C245.6 244.4 242.8 241.6 239.4 241.6C236 241.6 233.2 244.4 233.2 247.8V278.1C233.2 281.5 236 284.3 239.4 284.3C242.8 284.3 245.6 281.5 245.6 278.1Z" fill="#FFD143"/>
<path d="M239.4 257.8C245.917 257.8 251.2 252.517 251.2 246C251.2 239.483 245.917 234.2 239.4 234.2C232.883 234.2 227.6 239.483 227.6 246C227.6 252.517 232.883 257.8 239.4 257.8Z" fill="#FFD143"/>
<path d="M114.9 159.8C121.417 159.8 126.7 154.517 126.7 148C126.7 141.483 121.417 136.2 114.9 136.2C108.383 136.2 103.1 141.483 103.1 148C103.1 154.517 108.383 159.8 114.9 159.8Z" fill="#FFD143"/>
<path d="M153.4 116.7C159.917 116.7 165.2 111.417 165.2 104.9C165.2 98.383 159.917 93.1 153.4 93.1C146.883 93.1 141.6 98.383 141.6 104.9C141.6 111.417 146.883 116.7 153.4 116.7Z" fill="#FFD143"/>
<path d="M252.2 116.7C258.717 116.7 264 111.417 264 104.9C264 98.383 258.717 93.1 252.2 93.1C245.683 93.1 240.4 98.383 240.4 104.9C240.4 111.417 245.683 116.7 252.2 116.7Z" fill="#FFD143"/>
<path d="M239.4 202.8C245.917 202.8 251.2 197.517 251.2 191C251.2 184.483 245.917 179.2 239.4 179.2C232.883 179.2 227.6 184.483 227.6 191C227.6 197.517 232.883 202.8 239.4 202.8Z" fill="#FFD143"/>
</svg>
