<svg width="42" height="50" viewBox="0 0 41 49" fill="none" xmlns="http://www.w3.org/2000/svg">
    <path d="M15.4432 27.4177C14.6985 26.8948 13.7877 26.6499 12.875 26.7272C12.0111 26.7149 11.1478 26.7783 10.2954 26.9165V35.6363H12.1817V32.4736C12.3974 32.4887 12.6139 32.4887 12.8295 32.4736C13.3257 32.5051 13.8234 32.4397 14.2936 32.281C14.7637 32.1223 15.197 31.8736 15.5682 31.5493C16.0969 30.9783 16.3746 30.226 16.3409 29.4557C16.3497 29.0727 16.2741 28.6923 16.1192 28.3406C15.9642 27.9889 15.7336 27.6741 15.4432 27.4177ZM13.1253 31.0019C13.0224 31.0058 12.9194 30.9989 12.8181 30.9814L12.8749 30.9703C12.6635 30.9946 12.45 30.9946 12.2386 30.9703V28.3198C12.4954 28.2607 12.759 28.2345 13.0227 28.2418C13.9772 28.2418 14.5113 28.7318 14.5113 29.5336C14.5423 30.3141 13.9218 30.9715 13.1253 31.0019Z" fill="#E5252A"/>
    <path d="M29.5455 0H4.54551C2.03516 0 0 1.99436 0 4.4545V44.5454C0 47.0056 2.03506 48.9999 4.54541 48.9999H36.3636C38.8739 48.9999 40.909 47.0056 40.909 44.5454V12.25L29.5455 0ZM38.6364 44.5455C38.6364 45.7756 37.6189 46.7728 36.3637 46.7728H4.54551C3.29033 46.7728 2.27275 45.7756 2.27275 44.5455V4.4545C2.27275 3.22443 3.29033 2.2272 4.54551 2.2272H25.0001V13.3636C25.0001 14.5937 26.0176 15.5909 27.2729 15.5909H38.6365L38.6364 44.5455ZM27.2728 13.3636V2.2273H28.4091L38.6363 13.3637L27.2728 13.3636Z" fill="#E5252A"/>
    <path d="M23.1365 27.7407C22.1499 27.0093 20.9279 26.6496 19.6934 26.7273C18.8297 26.7214 17.967 26.7847 17.1138 26.9166V35.6364C17.8294 35.7302 18.5509 35.7748 19.2729 35.77C20.663 35.8708 22.0434 35.4753 23.1592 34.6564C23.6392 34.193 24.0124 33.6342 24.2535 33.0175C24.4946 32.4009 24.5981 31.7408 24.5569 31.0816C24.6032 30.4547 24.4987 29.8259 24.2521 29.2457C24.0054 28.6654 23.6233 28.15 23.1365 27.7407ZM22.5456 31.0816C22.5343 33.1864 21.4093 34.1775 19.6934 34.1664V34.1553C19.4742 34.1768 19.2534 34.1768 19.0343 34.1553V28.3533C19.3181 28.2946 19.6079 28.2684 19.8979 28.2753C21.2753 28.1805 22.4702 29.1978 22.567 30.5476C22.5797 30.7258 22.5726 30.9049 22.5456 31.0816ZM26.2047 35.6364H28.1138V32.0839H31.1365V30.458H28.1138V28.4423H31.3524V26.8052H26.2047V35.6364Z" fill="#E5252A"/>
</svg>
