<svg width="306" height="306" viewBox="0 0 306 306" fill="none" xmlns="http://www.w3.org/2000/svg">
    <path d="M153 0C91.8925 0 42.1782 49.7142 42.1782 110.821C42.1782 186.656 141.353 297.987 145.575 302.69C149.541 307.107 156.466 307.099 160.425 302.69C164.647 297.987 263.821 186.656 263.821 110.821C263.82 49.7142 214.107 0 153 0ZM153 166.578C122.255 166.578 97.2433 141.566 97.2433 110.821C97.2433 80.0764 122.256 55.0645 153 55.0645C183.744 55.0645 208.756 80.077 208.756 110.822C208.756 141.566 183.744 166.578 153 166.578Z" fill="#FF8300"/>
</svg>
